<svg width="101" height="97" viewBox="0 0 101 97" fill="none" xmlns="http://www.w3.org/2000/svg">
<path d="M99.0427 68.1018C96.1213 78.9527 87.8947 89.0028 67.9677 94.2026C60.7669 96.0823 52.3865 97.0055 44.9153 96.4353C33.92 95.5957 22.3954 90.8009 13.2373 85.3642C6.8991 81.6022 4.37668 76.5259 3.48376 70.7875C2.93096 67.2393 3.00101 63.4388 3.17721 59.539C3.44223 53.6726 2.47674 47.7651 1.04763 42.0568C-1.152 33.2679 0.659842 24.049 6.08742 16.4889C11.5154 8.92853 20.0922 3.66874 29.8742 1.90106C46.3548 -1.07553 63.0741 0.888519 63.0741 0.888519C85.095 3.09812 96.2415 24.2168 98.9603 41.4067C100.203 49.2629 101.503 58.9663 99.043 68.1018H99.0427Z" fill="#EDF5FE"/>
<path d="M10.5578 4.87228L45.6146 6.95074V9.77212L10.5578 11.2241V4.87228Z" fill="#97A6B7"/>
<path d="M85.4477 47.3873L55.1664 53.5522V10.3561L85.4477 13.392V47.3873Z" fill="url(#paint0_linear_3_2898)"/>
<path d="M84.749 13.3189L55.1664 10.3559V8.40999L84.749 11.7779V13.3189Z" fill="#CBD0D8"/>
<path d="M55.1652 12.6704L10.5578 13.9463V10.3837L55.1652 8.37331V12.6704Z" fill="white"/>
<path d="M10.5583 47.6932L7.76324 47.3098V5.04842L10.5583 4.87228V47.6932Z" fill="#CBD0D8"/>
<path opacity="0.2" d="M10.5583 47.6932L7.76324 47.3098V5.04842L10.5583 4.87228V47.6932Z" fill="#CBD0D8"/>
<path d="M55.1652 53.3738L9.50955 47.5828V15.6485L55.1652 14.6994V53.3738Z" fill="white"/>
<g style="mix-blend-mode:multiply" opacity="0.2">
<path d="M55.1652 12.6704L10.5578 13.9463V10.3837L55.1652 8.37331V12.6704Z" fill="#AD7AEE"/>
</g>
<path d="M57.5709 54.7587L6.59814 47.9059V46.4494L57.5431 52.9359L57.5709 54.7587Z" fill="#D8DEE8"/>
<g style="mix-blend-mode:multiply" opacity="0.2">
<g style="mix-blend-mode:multiply">
<path d="M55.2864 11.0089V10.9349L10.3367 12.7089C8.78011 12.7703 7.53046 14.4026 7.53046 16.36V18.1166L51.8133 17.5404V15.3949C51.8133 13.2806 53.1778 11.4665 55.2864 11.0092V11.0089Z" fill="#AD7AEE"/>
</g>
<g style="mix-blend-mode:multiply">
<path d="M7.53027 16.841V17.9959C7.53027 19.7381 8.5427 21.1605 9.86891 21.1633L10.3376 21.165C11.6876 21.1678 12.7398 19.714 12.7398 17.9258V16.7406L7.52991 16.841H7.53027Z" fill="#AD7AEE"/>
</g>
<g style="mix-blend-mode:multiply">
<path d="M12.7401 16.7407V17.9259C12.7401 19.7141 13.8894 21.1731 15.2878 21.1763L15.7056 21.1773C17.1296 21.1805 18.198 19.6859 18.198 17.8484V16.6308L12.7401 16.741V16.7407Z" fill="#AD7AEE"/>
</g>
<g style="mix-blend-mode:multiply">
<path d="M18.1982 16.6304V17.8481C18.1982 19.6855 19.4728 21.185 20.9492 21.1881H21.541C23.0455 21.1916 24.2764 19.6548 24.2764 17.7661V16.5143L18.1982 16.6301V16.6304Z" fill="#AD7AEE"/>
</g>
<g style="mix-blend-mode:multiply">
<path d="M24.2758 16.5145V17.7664C24.2758 19.6551 25.5695 21.1974 27.1307 21.2006L27.7297 21.2023C29.3217 21.2058 30.7259 19.6251 30.7259 17.6809V16.3925L24.2758 16.5149V16.5145Z" fill="#AD7AEE"/>
</g>
<g style="mix-blend-mode:multiply">
<path d="M30.7254 16.3921V17.6806C30.7254 19.6248 31.9422 21.2118 33.5959 21.2152L34.1426 21.2173C35.8299 21.2212 37.1756 19.5941 37.1756 17.5923V16.2659L30.7254 16.3921Z" fill="#AD7AEE"/>
</g>
<g style="mix-blend-mode:multiply">
<path d="M37.1756 16.2658V17.5922C37.1756 19.5939 38.5968 21.227 40.3516 21.2308L40.9567 21.2319C42.748 21.2357 44.2461 19.5577 44.2461 17.4942V16.1266L37.1756 16.2658Z" fill="#AD7AEE"/>
</g>
<g style="mix-blend-mode:multiply">
<path d="M44.2469 16.1265V17.4942C44.2469 19.5576 45.7266 21.2419 47.5919 21.2461L48.3057 21.2475C50.211 21.2517 51.8135 19.521 51.8135 17.3927V15.9821L44.2469 16.1265Z" fill="#AD7AEE"/>
</g>
</g>
<path d="M6.60706 46.4637L7.34652 46.117L57.5354 51.8885L57.5502 52.9652L6.60706 46.4637Z" fill="#97A6B7"/>
<path d="M86.8438 47.6206L57.5637 54.7565L57.5327 51.8912L86.8438 46.4494V47.6206Z" fill="#CBD0D8"/>
<path d="M86.8911 46.4492L57.5388 52.9633L57.5186 51.8893L85.454 46.0858L86.8911 46.4492Z" fill="#97A6B7"/>
<path d="M23.1364 19.9128V47.9616L36.1808 49.5026V19.5361L23.1364 19.9128Z" fill="#97A6B7"/>
<path d="M9.5094 41.2633V21.1687L21.7384 20.884V42.4129L9.5094 41.2633Z" fill="#D8DEE8"/>
<path d="M21.0395 21.5843V41.6705L10.0916 40.6625V21.8016L21.0395 21.5843Z" fill="url(#paint1_linear_3_2898)"/>
<g style="mix-blend-mode:soft-light" opacity="0.3">
<path d="M21.0395 39.3767V41.6707L10.0916 40.663V21.8017L11.9698 21.7637C12.3778 22.6245 12.6772 23.9381 12.7281 25.7452C12.8956 31.6562 13.6239 35.164 20.5672 39.0949C20.742 39.1936 20.6904 39.2832 21.0395 39.3763V39.3767Z" fill="white"/>
</g>
<path d="M38.3936 44.0256V20.4884L55.1652 20.0929V45.6228L38.3936 44.0256Z" fill="#D8DEE8"/>
<path d="M54.3507 44.7295L39.2096 43.3298V21.2254L54.3507 20.9237V44.7295Z" fill="url(#paint2_linear_3_2898)"/>
<g style="mix-blend-mode:soft-light" opacity="0.3">
<path d="M54.3509 42.0108V44.7296L39.2102 43.3299V21.2255L41.7727 21.1743C42.3352 22.184 42.7403 23.7267 42.8108 25.8498C43.0418 32.7971 44.0312 36.9282 53.7049 41.6689C53.9501 41.7889 54.2346 41.8985 54.3509 42.0108Z" fill="white"/>
</g>
<path d="M23.3906 47.9616L21.8387 49.9539L35.229 51.7541L36.3808 49.5026L23.3906 47.9616Z" fill="#97A6B7"/>
<path d="M55.1664 45.6675V20.1261L69.8413 20.5869V43.6686L55.1664 45.6675Z" fill="#D8DEE8"/>
<path d="M69.1411 42.9494L55.8639 44.6976V20.9204L69.1411 21.2731V42.9494Z" fill="url(#paint3_linear_3_2898)"/>
<g style="mix-blend-mode:soft-light" opacity="0.3">
<path d="M69.1411 40.5016V42.9491L55.8639 44.6972V20.9204L58.4863 20.9895C59.0297 22.0864 59.4424 23.6843 59.5092 25.8729C59.728 33.0096 60.6325 37.126 68.6807 40.2833C68.8645 40.3551 69.1414 40.4217 69.1414 40.5016H69.1411Z" fill="white"/>
</g>
<path d="M19.3297 43.442C19.3123 43.4064 19.2766 43.382 19.2379 43.3785L11.2464 42.6575C11.211 42.6544 11.1785 42.6718 11.1627 42.7029L10.5254 43.938C10.512 43.9638 10.512 43.9959 10.5254 44.0241L11.1623 45.3837C11.1782 45.4179 11.2107 45.4416 11.2461 45.4454L19.2358 46.2913C19.2744 46.2954 19.3102 46.2777 19.3275 46.2456L20.0305 44.9582C20.0453 44.931 20.0453 44.8975 20.0305 44.8675L19.3293 43.442H19.3297ZM19.173 46.0841L11.3042 45.2595L10.7131 43.9997L11.3042 42.8553L19.1744 43.5738L19.8225 44.8926L19.1726 46.0841H19.173Z" fill="#CBD0D8"/>
<path d="M52.4526 47.9296L51.5004 46.253C51.4766 46.2111 51.4286 46.1822 51.3759 46.1773L40.5709 45.2028C40.5232 45.1986 40.4795 45.2181 40.4582 45.2537L39.6003 46.6729C39.5823 46.7026 39.5823 46.7396 39.6003 46.7727L40.4517 48.359C40.473 48.3988 40.5167 48.427 40.5644 48.4323L51.3661 49.5759C51.4188 49.5815 51.4672 49.5616 51.491 49.5247L52.4529 48.036C52.4731 48.0046 52.4731 47.9652 52.4529 47.93L52.4526 47.9296ZM51.2802 49.3321L40.642 48.2174L39.852 46.7472L40.6482 45.4323L51.2892 46.4037L52.1688 47.9548L51.2802 49.3321Z" fill="#CBD0D8"/>
<path d="M36.6467 49.5026L23.7187 47.9616V19.9128L36.6467 19.5361V49.5026Z" fill="url(#paint4_linear_3_2898)"/>
<path d="M29.5412 30.842L25.1155 30.7126V22.2L29.5412 22.1305V30.842Z" fill="url(#paint5_linear_3_2898)"/>
<path d="M35.1307 31.0059L30.3556 30.8712V22.1138L35.1307 22.0367V31.0059Z" fill="url(#paint6_linear_3_2898)"/>
<path d="M29.5411 41.2237L25.1154 40.8578V32.4617L29.5411 32.6319V41.2237Z" fill="url(#paint7_linear_3_2898)"/>
<path d="M35.1307 41.695L30.3556 41.3085V32.6707L35.1307 32.8489V41.695Z" fill="url(#paint8_linear_3_2898)"/>
<path d="M24.5264 31.5558C24.5264 31.4749 24.5802 31.4118 24.6571 31.4146L25.6998 31.4509C25.7757 31.4536 25.8414 31.521 25.8414 31.6012V31.6294C25.8414 31.7097 25.7713 31.7721 25.6955 31.7697L24.6614 31.7355C24.5845 31.733 24.5264 31.6654 24.5264 31.5844V31.5562V31.5558Z" fill="url(#paint9_linear_3_2898)"/>
<path d="M23.9844 31.5121C23.9844 31.2115 24.217 30.9767 24.5033 30.9872C24.7885 30.9976 25.0189 31.2484 25.0189 31.547C25.0189 31.8456 24.7885 32.0806 24.5033 32.0719C24.2173 32.0632 23.9844 31.8124 23.9844 31.5118V31.5121Z" fill="url(#paint10_linear_3_2898)"/>
<g style="mix-blend-mode:soft-light">
<path style="mix-blend-mode:soft-light" d="M35.1316 47.4807C35.1316 47.5424 35.0342 47.587 34.9757 47.5804L25.0383 46.4423C24.9853 46.4364 24.8827 46.3837 24.8827 46.3251V42.3443C24.8827 42.2857 24.9607 42.2421 25.0138 42.247L34.9587 43.1598C35.0175 43.1654 35.1324 43.2198 35.1324 43.2815V47.4807H35.1316ZM25.1152 46.2222L34.8984 47.3206V43.3935L25.1152 42.4908V46.2226V46.2222Z" fill="url(#paint11_linear_3_2898)"/>
</g>
<path d="M55.1699 10.355V20.4829C53.2331 20.4459 51.6884 18.8931 51.7375 17.0131L51.7386 16.9569L7.52979 17.5318V15.7756C7.52979 13.8192 8.77944 12.1865 10.3367 12.1248L51.9076 10.4844L55.1699 10.355Z" fill="url(#paint12_linear_3_2898)"/>
<path d="M55.286 10.3508V10.4251C55.2463 10.4341 55.208 10.4432 55.1694 10.4533V10.3553L55.286 10.3508Z" fill="url(#paint13_linear_3_2898)"/>
<path d="M7.53082 16.2575V17.4123C7.53082 19.1546 8.54325 20.5769 9.86946 20.5797L10.3381 20.5815C11.6882 20.5843 12.7403 19.1305 12.7403 17.3422V16.157L7.53046 16.2575H7.53082Z" fill="url(#paint14_linear_3_2898)"/>
<path d="M12.7406 16.1568V17.342C12.7406 19.1302 13.8899 20.5892 15.2883 20.5924L15.7061 20.5934C17.1301 20.5966 18.1985 19.102 18.1985 17.2645V16.0469L12.7406 16.1571V16.1568Z" fill="url(#paint15_linear_3_2898)"/>
<path d="M18.1982 16.0467V17.2643C18.1982 19.1017 19.4728 20.6012 20.9492 20.6043H21.541C23.0455 20.6078 24.2764 19.0711 24.2764 17.1823V15.9305L18.1982 16.0463V16.0467Z" fill="url(#paint16_linear_3_2898)"/>
<path d="M24.2762 15.9307V17.1825C24.2762 19.0712 25.57 20.6135 27.1312 20.6167L27.7302 20.6184C29.3222 20.6219 30.7264 19.0412 30.7264 17.097V15.8086L24.2762 15.931V15.9307Z" fill="url(#paint17_linear_3_2898)"/>
<path d="M30.7254 15.8083V17.0967C30.7254 19.0409 31.9422 20.6279 33.5959 20.6314L34.1426 20.6335C35.8299 20.6373 37.1756 19.0102 37.1756 17.0085V15.682L30.7254 15.8083Z" fill="url(#paint18_linear_3_2898)"/>
<path d="M37.1762 15.6824V17.0089C37.1762 19.0106 38.5973 20.6437 40.3521 20.6475L40.9573 20.6486C42.7485 20.6524 44.2466 18.9744 44.2466 16.9109V15.5433L37.1762 15.6824Z" fill="url(#paint19_linear_3_2898)"/>
<path d="M44.2469 15.5433V16.9109C44.2469 18.9744 45.7266 20.6587 47.5919 20.6625L48.3057 20.6639C50.211 20.6681 51.8135 18.9374 51.8135 16.8091V15.3986L44.2469 15.543V15.5433Z" fill="url(#paint20_linear_3_2898)"/>
<path d="M58.7051 16.5113H58.7031L58.6818 16.3763C58.6894 16.4213 58.6968 16.4663 58.7055 16.5113H58.7051Z" fill="url(#paint21_linear_3_2898)"/>
<path d="M85.7897 20.5226L85.4998 20.517C84.6845 20.4978 83.8529 19.2366 83.5861 17.6795C83.5792 17.6426 83.5731 17.6053 83.5673 17.5683C83.5731 17.6053 83.5789 17.6426 83.5825 17.6795C83.7887 19.2355 83.2796 20.4664 82.4307 20.4472L82.1711 20.4416C81.3056 20.4214 80.452 19.1232 80.1715 17.5188C80.1646 17.4804 80.1574 17.441 80.1516 17.4019C80.1574 17.4413 80.1632 17.4807 80.1679 17.5188C80.382 19.1208 79.8021 20.3876 78.903 20.3663L78.5326 20.3572C77.6126 20.3359 76.6446 18.9938 76.3463 17.3398C76.338 17.2994 76.3322 17.2599 76.3254 17.2195C76.3322 17.2599 76.338 17.3004 76.3416 17.3398C76.5698 18.9924 75.9842 20.3 75.0255 20.2773L74.6493 20.2683C73.6697 20.2456 72.5775 18.8574 72.2605 17.1473C72.2522 17.1068 72.2453 17.0664 72.2384 17.0259C72.2453 17.0664 72.2511 17.1068 72.2572 17.1473C72.5017 18.8553 71.9673 20.2086 70.9458 20.1849L70.5999 20.1769C69.5539 20.1532 68.479 18.7221 68.1472 16.9548C68.1389 16.9132 68.1309 16.8703 68.1237 16.8278C68.1306 16.8707 68.1378 16.9122 68.1436 16.9537C68.3974 18.7189 67.7453 20.1117 66.6538 20.0869L66.2671 20.0778C65.1503 20.0531 63.9599 18.569 63.6046 16.7409H63.601C63.87 18.5669 63.1897 20.0081 62.0206 19.9812L61.5627 19.9711C60.4445 19.9453 59.2566 18.6052 58.7955 16.8874C58.8013 16.9663 58.8049 17.0451 58.8049 17.1236C58.8049 18.9697 57.2523 20.5044 55.2993 20.5044C55.2747 20.5044 55.2083 20.4615 55.1841 20.4615L55.1595 10.2569L55.2946 10.266L58.0131 10.5384L58.0152 10.5576L84.3476 12.8955C85.3261 12.9834 86.3252 14.4853 86.5895 16.2516L86.6534 16.6837L86.8025 17.675L86.8094 17.7235C86.8151 17.7594 86.8198 17.7953 86.8234 17.8316C87.0227 19.3436 86.5895 20.5421 85.7893 20.5229L85.7897 20.5226Z" fill="url(#paint22_linear_3_2898)"/>
<path d="M68.1464 16.9549L68.143 16.9539C68.1377 16.9124 68.1313 16.8705 68.1246 16.828C68.131 16.8709 68.1387 16.9134 68.1464 16.9549Z" fill="url(#paint23_linear_3_2898)"/>
<path d="M72.2586 17.1471H72.2552C72.2499 17.1067 72.2445 17.0662 72.2379 17.0258C72.2442 17.0662 72.2509 17.1067 72.2582 17.1471H72.2586Z" fill="url(#paint24_linear_3_2898)"/>
<path d="M76.3458 17.3397H76.3415C76.3381 17.3003 76.3328 17.2599 76.3264 17.2194C76.3328 17.2599 76.3381 17.2993 76.3458 17.3397Z" fill="url(#paint25_linear_3_2898)"/>
<path d="M80.1692 17.5187H80.1659C80.1616 17.4804 80.1562 17.441 80.1509 17.4019C80.1562 17.4413 80.1626 17.4807 80.1692 17.5187Z" fill="url(#paint26_linear_3_2898)"/>
<path d="M83.5849 17.6794H83.5816C83.5782 17.6425 83.5729 17.6052 83.5675 17.5682C83.5729 17.6052 83.5782 17.6425 83.5849 17.6794Z" fill="url(#paint27_linear_3_2898)"/>
<path d="M86.8252 17.8311H86.8232C86.8199 17.7952 86.8156 17.7593 86.8102 17.723L86.8252 17.8311Z" fill="url(#paint28_linear_3_2898)"/>
<path d="M58.7959 16.887C58.762 16.7631 58.7331 16.6383 58.7075 16.5113L58.754 16.5134L58.7891 16.7935C58.7927 16.8249 58.7948 16.8552 58.7959 16.887Z" fill="url(#paint29_linear_3_2898)"/>
<path d="M55.1702 10.2516V10.3552L51.908 10.4846L51.9094 10.4588L55.1702 10.2516Z" fill="url(#paint30_linear_3_2898)"/>
<path d="M58.7049 16.4926H58.7029L58.6815 16.3576C58.6892 16.4026 58.6966 16.4476 58.7053 16.4926H58.7049Z" fill="url(#paint31_linear_3_2898)"/>
<g style="mix-blend-mode:multiply">
<path d="M86.7273 17.7931H86.7295L86.493 16.2134C86.2287 14.4472 85.2292 12.9449 84.2511 12.8584L55.2656 10.2843V10.2864L55.1884 10.2791V20.5127C57.2403 20.4935 58.8402 18.7809 58.6431 16.8029L58.5882 16.3585L58.608 16.4733H58.6102C58.9886 18.3679 60.2686 19.9058 61.4659 19.933L61.9237 19.9441C63.0932 19.9699 63.7731 18.5287 63.5041 16.7038H63.5077C63.8641 18.5308 65.0531 20.0149 66.1702 20.0407L66.5569 20.0498C67.6481 20.0746 68.2995 18.6819 68.0453 16.9166H68.0489C68.3821 18.6839 69.4571 20.1164 70.5031 20.1398L70.849 20.1464C71.8704 20.1701 72.4037 18.8179 72.1593 17.1088L72.1629 17.1098C72.4821 18.82 73.5721 20.2082 74.5528 20.2308L74.929 20.2399C75.8877 20.2612 76.4722 18.9539 76.2462 17.3013H76.2498C76.5481 18.9564 77.5157 20.2985 78.4361 20.3198L78.8055 20.3288C79.7071 20.3491 80.2848 19.0833 80.0714 17.4803L80.075 17.4813C80.3555 19.0847 81.2095 20.384 82.0746 20.4031L82.3342 20.4087C83.1834 20.429 83.6922 19.197 83.486 17.6411H83.4896C83.7564 19.1995 84.5869 20.4603 85.4033 20.4785L85.6932 20.4851C86.4933 20.5032 86.9266 19.3048 86.7273 17.7928V17.7931Z" fill="url(#paint32_linear_3_2898)"/>
</g>
<path d="M96.3039 36.3583V40.0596C96.1818 40.3893 96.1692 40.6299 96.1692 40.6299V78.3867L93.3785 75.8789L91.9151 77.4634L91.3049 78.123L89.1327 76.1603L87.071 78.4038L84.8999 76.4401L82.8393 78.6835L80.6682 76.7208L78.6086 78.9643L76.4375 77.0016L74.378 79.244L72.2069 77.2813L70.1452 79.5248L67.9741 77.5621L65.9146 79.8056L63.7435 77.8408L61.6839 80.0853L59.5197 78.1212L57.1951 80.6608C57.1951 80.6608 57.3298 60.765 57.3298 49.2106V37.0684L60.1205 39.6882L61.5839 38.1626L62.193 37.5274L64.3663 39.5783L66.4269 37.4175L68.5991 39.4674L70.6586 37.3066L72.8297 39.3565L74.8904 37.1957L77.0615 39.2466L79.121 37.0858L81.2921 39.1357L83.3538 36.9749L85.5238 39.0248L87.5844 36.864L89.7556 38.916L91.8151 36.7541L93.9782 38.805L96.3039 36.3586V36.3583Z" fill="#CBD0D8"/>
<path d="M97.8216 39.2893V65.0699C97.7772 65.7685 97.7317 66.4197 97.6826 67.027V39.8592C97.6826 39.8592 97.6956 39.6185 97.8216 39.2889V39.2893Z" fill="white"/>
<path d="M97.8212 35.5879V39.2892C97.6955 39.6188 97.6822 39.8595 97.6822 39.8595V77.557L93.9187 75.4663L92.6709 77.2926L90.5359 75.842L88.65 77.6348L86.4049 76.1311L83.9489 77.8531L81.9742 76.2469L79.5901 78.1339L77.3533 76.1712L75.2313 78.4136L72.9945 76.451L70.8703 78.6944L68.6335 76.7317L66.5119 78.9752L64.275 77.0104L62.153 79.2549L59.9234 77.2908L57.5285 79.8304C57.5285 79.8304 57.6675 59.9939 57.6675 48.4395V36.2973L60.5427 38.9171L62.0501 37.3915L62.6777 36.7563L64.9167 38.8072L67.0397 36.6464L69.2776 38.6963L71.3996 36.5355L73.6365 38.5854L75.7595 36.4246L77.9964 38.4755L80.118 36.3147L82.3548 38.3646L84.479 36.2038L86.7147 38.2537L88.8378 36.0929L91.0746 38.1448L93.1962 35.983L95.4248 38.0339L97.8208 35.5875L97.8212 35.5879Z" fill="white"/>
<path d="M93.3562 52.7101L88.4641 52.9232C88.1351 52.9375 87.8759 53.1994 87.8759 53.5175V55.6867C87.8759 56.0285 88.1734 56.2998 88.5265 56.2807L93.4186 56.0142C93.7447 55.9964 94 55.7359 94 55.4202V53.3044C94 52.9654 93.7071 52.6947 93.3562 52.7101Z" fill="#CBD0D8"/>
<path d="M93.3493 56.9023L88.4572 57.1688C88.1312 57.1866 87.8759 57.4471 87.8759 57.7628V60.0275C87.8759 60.371 88.1763 60.6431 88.5312 60.6211L93.4233 60.3194C93.7476 60.2995 94 60.0397 94 59.7258V57.4963C94 57.1545 93.7024 56.8831 93.3493 56.9023Z" fill="#CBD0D8"/>
<path d="M94.0001 46.6983V42.8173C94.0001 42.4804 93.7105 42.2104 93.362 42.2226L88.4699 42.3928C88.1385 42.4043 87.876 42.6673 87.876 42.9875V46.9114C87.876 47.2505 88.1688 47.5211 88.5198 47.5058L93.4119 47.2927C93.7408 47.2784 94.0001 47.0164 94.0001 46.6983Z" fill="#CBD0D8"/>
<g opacity="0.4">
<path d="M83.1918 53.1529L63.2713 54.0207C62.9424 54.035 62.6831 54.297 62.6831 54.6151V57.0584C62.6831 57.4002 62.9807 57.6715 63.3338 57.6523L83.2543 56.5676C83.5803 56.5498 83.8356 56.2893 83.8356 55.9736V53.7473C83.8356 53.4082 83.5428 53.1376 83.1918 53.1529Z" fill="#CBD0D8"/>
<path d="M83.1839 57.4556L63.2634 58.5403C62.9374 58.5581 62.6821 58.8187 62.6821 59.1343V61.5811C62.6821 61.9247 62.9825 62.1967 63.3374 62.1748L83.2579 60.9463C83.5822 60.9264 83.8346 60.6666 83.8346 60.3527V58.0496C83.8346 57.7078 83.537 57.4364 83.1839 57.4556Z" fill="#CBD0D8"/>
<path d="M83.8345 47.1407V43.1704C83.8345 42.8335 83.5449 42.5635 83.1965 42.5757L63.276 43.2684C62.9445 43.2799 62.682 43.5429 62.682 43.8631V48.0081C62.682 48.3472 62.9749 48.6178 63.3258 48.6025L83.2463 47.7347C83.5753 47.7204 83.8345 47.4584 83.8345 47.1404V47.1407Z" fill="#CBD0D8"/>
</g>
<g style="mix-blend-mode:soft-light" opacity="0.5">
<path d="M81.2298 63.338C83.4139 58.6757 80.9323 52.6412 75.5343 52.2872C70.1364 51.9332 65.5692 52.554 64.6221 43.1251C64.338 40.2929 63.3241 38.5057 62.051 37.3927L60.5439 38.9184L57.6683 36.2982V75.6155C57.6683 75.6155 57.6546 75.8562 57.53 76.1868L81.4938 74.4244C80.5481 71.2699 80.4398 65.0251 81.2302 63.3383L81.2298 63.338Z" fill="white"/>
</g>
<path d="M90.1714 28.8124V28.8591C89.7468 28.2986 88.9857 27.5205 88.53 27.0695C88.5214 27.0496 88.5073 27.0297 88.4986 27.0098C88.2444 26.4207 87.9014 25.7828 87.4537 25.1462C87.0088 24.5079 86.4434 23.8794 85.7845 23.3008C85.7054 23.2258 85.6144 23.1595 85.5299 23.0887C85.4869 23.0542 85.4432 23.0183 85.3996 22.9837L85.3356 22.9311C85.3133 22.9136 85.2902 22.8976 85.2674 22.8805C85.1771 22.8142 85.0865 22.7476 84.9955 22.6799L84.9276 22.6294L84.8561 22.5826C84.8089 22.5509 84.7616 22.5191 84.7143 22.4881C84.5272 22.3573 84.3257 22.2443 84.1293 22.1247C84.0293 22.0668 83.9242 22.0134 83.8224 21.9583C83.7722 21.9307 83.7206 21.9025 83.669 21.8756C83.6162 21.8505 83.5628 21.8247 83.5104 21.7996C82.6681 21.3887 81.7495 21.0915 80.8071 20.9279C80.6894 20.9091 80.5717 20.8903 80.4526 20.8718C80.3341 20.8561 80.2143 20.846 80.0962 20.8324L79.9178 20.8132L79.7387 20.8038L79.5596 20.7933C79.5001 20.7905 79.4412 20.7846 79.3813 20.7856C79.2625 20.7849 79.1433 20.7839 79.0238 20.7832C78.9946 20.7832 78.9632 20.7815 78.9357 20.7832L78.8563 20.7874L78.6974 20.7958L78.5396 20.8034C78.5255 20.8041 78.5162 20.8041 78.4977 20.8052L78.3356 20.817L78.119 20.8317L77.9569 20.8435L77.9294 20.8453L77.9197 20.846C77.9197 20.846 77.8633 20.846 77.9579 20.8477L77.6077 20.8976C77.5499 20.9063 77.4918 20.9116 77.434 20.9241L77.2622 20.9576L77.0903 20.9904L77.0047 21.0068C76.9762 21.012 76.9484 21.0204 76.9202 21.0267C76.8079 21.0542 76.6956 21.0811 76.5841 21.1093C76.5278 21.1212 76.4732 21.1397 76.4183 21.1557L76.2544 21.2056L76.0905 21.253L75.9302 21.3099C75.8233 21.3486 75.7164 21.3824 75.6128 21.4236C75.5095 21.4658 75.4059 21.508 75.3034 21.5509C74.4874 21.9014 73.7537 22.3545 73.129 22.8721L73.0113 22.967L72.8997 23.0685C72.8257 23.1354 72.7492 23.1993 72.6788 23.2676C72.6759 23.2701 72.6733 23.2736 72.6705 23.276C72.5333 23.4131 72.3942 23.5421 72.2711 23.6841C72.2383 23.7186 72.2061 23.7539 72.1747 23.7891L72.1263 23.8407L72.0816 23.8958C72.0216 23.9673 71.962 24.0395 71.9025 24.1103C71.888 24.1278 71.8721 24.1449 71.8577 24.163L71.8169 24.2181C71.7891 24.2551 71.7616 24.292 71.7342 24.3276C71.6808 24.4016 71.6226 24.4696 71.5746 24.5456C71.1691 25.1319 70.8604 25.7179 70.6503 26.2774C70.4383 26.8354 70.313 27.359 70.2408 27.8215C70.2329 27.8794 70.2249 27.9362 70.217 27.9927C70.2105 28.0485 70.1989 28.1029 70.1964 28.1574C70.1874 28.2665 70.1784 28.3701 70.169 28.4692C70.1628 28.57 70.1628 28.6666 70.1585 28.7576C70.1567 28.8033 70.1538 28.848 70.1531 28.8909C70.1549 28.9348 70.156 28.9777 70.1567 29.0185C70.1578 29.1012 70.1592 29.179 70.1603 29.2519C70.1596 29.2724 70.1632 29.2829 70.1646 29.2969C70.1664 29.3105 70.1683 29.3237 70.1701 29.3366C70.1726 29.3624 70.1762 29.359 70.1787 29.3823C70.1805 29.4022 70.1831 29.4116 70.1849 29.4116H74.1794L71.7523 32.0112L66.1095 37.9727L58.0389 29.4116H62.2822C62.2883 29.4116 62.2948 29.3412 62.3017 29.2861C62.3179 29.1671 62.3356 29.051 62.3551 28.9097C62.3659 28.8392 62.3757 28.7737 62.3872 28.698C62.3934 28.661 62.3988 28.6258 62.4049 28.5871C62.4103 28.5491 62.4158 28.5079 62.4237 28.4744C62.4533 28.3325 62.4844 28.1832 62.5172 28.0238C62.5349 27.9446 62.5519 27.8637 62.5699 27.7807C62.5894 27.6973 62.6125 27.6129 62.6356 27.5264C62.6819 27.3534 62.7266 27.1717 62.7826 26.9847C62.8422 26.7988 62.9039 26.6059 62.9678 26.4057C62.9989 26.3049 63.0393 26.2059 63.0772 26.1033C63.1155 26.0025 63.1549 25.8986 63.1949 25.7932C63.5246 24.9579 63.9741 24.0482 64.5753 23.1337C65.1743 22.2188 65.9369 21.3071 66.8425 20.462C66.9522 20.3535 67.0735 20.2544 67.1909 20.1508C67.2505 20.0999 67.3093 20.0483 67.3685 19.9967L67.4588 19.9192L67.5509 19.8453C67.6751 19.7473 67.8007 19.6482 67.926 19.5492L68.0206 19.4752L68.1188 19.4048C68.1849 19.3573 68.2506 19.3102 68.3167 19.2635C68.5759 19.0717 68.8543 18.899 69.1309 18.7208C69.2706 18.6339 69.4147 18.553 69.5588 18.4693C69.6299 18.4282 69.7021 18.3873 69.7743 18.3451C69.8483 18.3064 69.9224 18.2677 69.9964 18.229C71.1771 17.6043 72.482 17.1299 73.8363 16.846C74.0057 16.8139 74.1761 16.7808 74.3462 16.7487C74.5162 16.7184 74.6892 16.6971 74.86 16.672L75.1174 16.6368L75.3767 16.612L75.6352 16.5879C75.7215 16.5802 75.8071 16.5708 75.8937 16.568C76.0659 16.5604 76.2389 16.5405 76.4118 16.5328C76.4545 16.5311 76.4981 16.5154 76.5411 16.5154H76.6711L76.9289 16.5293L77.1867 16.5377C77.273 16.5377 77.3589 16.5489 77.4445 16.553L77.9572 16.583C78.0738 16.5848 77.9973 16.5858 78.0269 16.5865L78.0403 16.5883L78.0677 16.5911L78.1211 16.598L78.2291 16.6109L78.4439 16.6368L78.5519 16.6497L78.6053 16.6559L78.6714 16.6647L78.9433 16.7034L79.2152 16.7431L79.3499 16.7637C79.3943 16.7707 79.4336 16.7801 79.4762 16.7885C79.642 16.8223 79.8077 16.8572 79.9731 16.8903C80.0557 16.906 80.137 16.929 80.2182 16.9496L80.4627 17.0124L80.7053 17.0752L80.9451 17.1484C81.1039 17.1983 81.2635 17.245 81.4195 17.2991C81.5755 17.3553 81.73 17.4118 81.8849 17.4679C83.1125 17.9391 84.2326 18.568 85.1956 19.3005C85.2562 19.3455 85.3162 19.3912 85.3765 19.4365C85.4353 19.4832 85.4931 19.531 85.5505 19.5788C85.6657 19.6737 85.7816 19.7651 85.8928 19.8624C86.1119 20.0612 86.3304 20.2516 86.5301 20.4578C86.581 20.5083 86.6308 20.5593 86.6817 20.6091L86.7565 20.6841L86.8279 20.7623C86.9233 20.8666 87.0172 20.9705 87.1099 21.073L87.1796 21.1505L87.2464 21.2303C87.2894 21.2837 87.3338 21.3364 87.3768 21.389C87.4631 21.4951 87.5533 21.5959 87.631 21.7058C88.0707 22.2795 88.4434 22.8609 88.7517 23.4344C88.9023 23.7127 89.0362 23.99 89.1547 24.2638C89.5204 25.0998 89.7555 25.8951 89.9035 26.6038C89.9198 26.6928 89.9375 26.7803 89.9537 26.8665C89.9696 26.9519 89.9884 27.036 89.9985 27.1197C90.0216 27.2868 90.0447 27.4469 90.066 27.601C90.0841 27.7559 90.0938 27.9048 90.1072 28.0461C90.1126 28.1166 90.1198 28.1849 90.1241 28.2529C90.1267 28.3199 90.1411 28.3855 90.144 28.45C90.1476 28.5777 90.1689 28.7004 90.1689 28.8134L90.1714 28.8124Z" fill="url(#paint33_linear_3_2898)"/>
<path style="mix-blend-mode:multiply" opacity="0.4" d="M90.1712 28.8125V28.8592C89.7466 28.2987 88.9855 27.5205 88.5298 27.0696C88.5212 27.0497 88.5071 27.0298 88.4984 27.0099C88.2442 26.4208 87.9012 25.7829 87.4535 25.1463C87.0086 24.508 86.4432 23.8795 85.7843 23.3009C85.7052 23.2259 85.6142 23.1596 85.5297 23.0888C85.4867 23.0543 85.443 23.0183 85.3994 22.9838L85.3355 22.9311C85.3131 22.9137 85.29 22.8977 85.2672 22.8806C85.1769 22.8143 85.0863 22.7477 84.9953 22.68L84.9274 22.6294L84.856 22.5827C84.8087 22.551 84.7614 22.5192 84.7141 22.4882C84.527 22.3574 84.3255 22.2444 84.1291 22.1247C84.0291 22.0668 83.924 22.0135 83.8222 21.9584C83.772 21.9308 83.7204 21.9025 83.6688 21.8757C83.616 21.8506 83.5626 21.8248 83.5102 21.7997C82.6679 21.3888 81.7493 21.0916 80.8069 20.928C80.6892 20.9092 80.5715 20.8904 80.4524 20.8719C80.3339 20.8562 80.2141 20.8461 80.096 20.8325L79.9176 20.8133L79.7385 20.8039L79.5594 20.7934C79.4999 20.7906 79.441 20.7847 79.3811 20.7857C79.2623 20.785 79.1431 20.784 79.0236 20.7833C78.9944 20.7833 78.963 20.7815 78.9355 20.7833L78.8561 20.7875L78.6972 20.7958L78.5394 20.8035C78.5253 20.8042 78.516 20.8042 78.4975 20.8052L78.3354 20.8171L78.1188 20.8318L77.9567 20.8436L77.9292 20.8454L77.9195 20.8461C77.9195 20.8461 77.8631 20.8461 77.9577 20.8478L77.6075 20.8977C77.5497 20.9064 77.4916 20.9116 77.4338 20.9242L77.262 20.9577L77.0901 20.9905L77.0045 21.0069C76.976 21.0121 76.9482 21.0205 76.92 21.0267C76.8077 21.0543 76.6954 21.0811 76.5839 21.1094C76.5276 21.1213 76.473 21.1397 76.4181 21.1558L76.2542 21.2057L76.0903 21.2531L75.93 21.31C75.8231 21.3487 75.7162 21.3825 75.6126 21.4237C75.5093 21.4659 75.4057 21.5081 75.3032 21.551C74.4872 21.9015 73.7535 22.3546 73.1288 22.8722L73.0111 22.9671L72.8995 23.0686C72.8255 23.1355 72.749 23.1994 72.6786 23.2677C72.6757 23.2702 72.6731 23.2737 72.6703 23.2761C74.4633 21.1314 77.3681 19.7379 80.6463 19.7379C83.9244 19.7379 86.9718 21.2004 88.7519 23.4344C88.9024 23.7128 89.0364 23.9901 89.1548 24.2639C89.5206 25.0999 89.7556 25.8952 89.9037 26.6039C89.9199 26.6929 89.9376 26.7804 89.9539 26.8666C89.9698 26.952 89.9885 27.0361 89.9987 27.1198C90.0218 27.2869 90.0449 27.447 90.0662 27.6011C90.0842 27.756 90.094 27.9049 90.1073 28.0462C90.1128 28.1166 90.12 28.185 90.1243 28.253C90.1268 28.32 90.1413 28.3856 90.1442 28.4501C90.1478 28.5777 90.1691 28.7005 90.1691 28.8135L90.1712 28.8125Z" fill="url(#paint34_linear_3_2898)"/>
<path d="M4.37105 82.8244C6.8032 81.9531 9.19564 82.9475 10.4767 83.4798C12.2669 84.2238 11.9986 84.5855 13.3598 85.1181C17.1446 86.5997 20.5455 84.3228 21.3311 85.4456C21.7998 86.1153 21.1528 87.7312 19.9743 88.5586C17.9877 89.9527 15.7234 88.2398 9.11982 86.9203C4.39993 85.9771 1.83888 86.109 1.65726 85.1181C1.50128 84.2674 3.21924 83.237 4.37105 82.8244Z" fill="#F4F7FA"/>
<path d="M1.08804 43.9682C1.30612 39.9592 5.18436 36.577 7.98408 36.819C8.85895 36.8947 9.61539 37.4228 10.2368 37.9837C11.173 38.8288 12.3783 40.4542 13.8554 40.2651C14.5664 40.1741 14.8361 39.4737 15.091 38.9226C15.8048 37.3785 17.7997 37.1298 19.3278 37.4559C20.0546 37.6112 21.1519 38.2899 21.0515 39.1396C20.9854 39.7001 20.3037 39.863 20.0178 40.2707C19.995 40.3031 19.9755 40.3359 19.9589 40.3691C19.6744 40.9341 20.2254 41.6059 20.5532 42.0422C20.9742 42.6027 21.4407 43.1992 21.5083 43.9128C21.5483 44.3376 21.5216 45.6194 17.5795 48.3142C13.6265 51.0166 11.65 52.3679 9.27165 52.205C5.49596 51.9469 0.838177 48.5576 1.08768 43.9682H1.08804Z" fill="#26264F"/>
<path d="M24.9295 57.5422C25.3227 56.9398 23.4899 56.0511 22.8941 53.5796C22.3912 51.4927 23.4173 50.964 22.8577 48.1702C22.5457 46.6142 22.0135 45.7105 21.3932 45.0544C20.8819 44.5138 20.2175 43.8113 19.6189 43.903C17.7413 44.1911 15.5175 52.4401 19.269 56.0368C21.1967 57.8851 24.4554 58.2684 24.9295 57.5422Z" fill="#27AAE1"/>
<path d="M17.2163 56.7324C19.2722 57.3316 19.5943 61.1806 19.7925 63.5492C20.0156 66.2164 20.2644 69.1874 18.4984 71.8491C16.2775 75.1968 11.6775 76.8358 6.79044 76.3659C6.84099 76.0614 6.8919 75.7566 6.94245 75.4521C11.958 73.6028 13.3276 71.5247 13.6731 69.9959C14.4079 66.7452 10.8098 64.6577 11.7392 61.1328C12.4397 58.4764 15.3958 56.2019 17.2159 56.7324H17.2163Z" fill="url(#paint35_linear_3_2898)"/>
<path d="M10.0668 59.2911C11.1821 57.7023 12.2696 56.0951 13.3597 54.4903C13.5738 54.175 13.698 53.8091 13.7576 53.4251C14.1905 53.7571 14.605 54.154 14.987 54.619C16.0215 58.3162 16.9975 63.239 17.1033 69.1092C17.1693 72.7722 16.3122 83.8499 15.8984 86.6336C15.7467 86.6636 15.6918 86.2823 15.5366 86.311C15.3474 86.3458 15.2994 86.6779 15.1145 86.7086C14.5639 81.0864 13.9323 76.0122 13.6139 73.4042C13.5059 72.5194 13.1867 69.865 11.7158 67.7273C11.6919 67.6928 9.5154 64.8173 8.76402 63.6684C8.5138 63.2858 8.20111 62.7898 7.84546 62.1264C8.68891 61.2701 9.36483 60.2904 10.0664 59.2911H10.0668Z" fill="url(#paint36_linear_3_2898)"/>
<path d="M15.0753 83.6607C15.1605 83.4706 15.6306 83.9485 16.0683 84.4535C16.0119 85.1801 15.9556 85.9069 15.8989 86.6335C16.0545 86.5379 16.2502 86.4336 16.4716 86.3844C16.7373 86.3251 17.1966 86.4176 17.2316 86.5403C17.4493 87.2976 15.4945 87.4629 15.2804 87.225C15.0663 86.9871 15.115 86.7088 15.115 86.7088C15.3133 85.6178 15.2873 84.8787 15.193 84.3684C15.127 84.0099 15.0277 83.7661 15.075 83.6611L15.0753 83.6607Z" fill="#27AAE1"/>
<path d="M15.8987 86.6331C15.7471 86.6631 15.6922 86.2818 15.5369 86.3104C15.3477 86.3453 15.2997 86.6774 15.1148 86.7081C14.9137 84.653 14.7018 82.6718 14.4981 80.8567C15.1567 80.7821 15.8254 80.7633 16.4855 80.7559C16.2757 83.3356 16.0558 85.5787 15.8991 86.6327L15.8987 86.6331Z" fill="#1C75BC"/>
<path style="mix-blend-mode:multiply" opacity="0.25" d="M10.0668 59.2911C11.1821 57.7023 12.2696 56.0951 13.3597 54.4903C13.5738 54.175 13.698 53.8091 13.7576 53.4251C14.1905 53.7571 14.605 54.1544 14.987 54.619C15.7474 57.3371 16.4754 60.7201 16.8498 64.6527C15.7106 64.5889 14.6242 65.2362 14.3042 66.0095C13.6424 67.6084 15.7301 68.8598 15.7088 72.2124C15.6973 74.0488 15.0174 74.5099 15.3268 76.1956C15.4066 76.6309 15.633 77.5866 15.533 78.9002C15.4889 79.4767 15.4409 79.3515 15.4044 79.8726C15.3001 81.3574 15.6669 82.7222 15.5081 83.6493C15.451 83.9824 15.3337 84.2151 15.2882 84.2995C15.1658 84.5265 15.0224 84.6891 14.9217 84.7902C14.4227 79.9504 13.8959 75.7122 13.6139 73.4049C13.5059 72.5201 13.1867 69.8661 11.7158 67.728C11.6919 67.6935 9.5154 64.818 8.76402 63.6691C8.5138 63.2865 8.20111 62.7905 7.84546 62.1271C8.68891 61.2708 9.36484 60.291 10.0664 59.2918L10.0668 59.2911Z" fill="url(#paint37_linear_3_2898)"/>
<path d="M21.6101 45.3992C22.3113 46.6412 22.2315 47.8784 22.1546 48.4197C21.9156 50.104 20.8656 51.2404 20.6082 51.5438C19.3914 52.9781 18.6996 56.2794 20.8837 64.4083C20.3825 64.6214 19.4065 65.5405 16.1797 65.5475C14.7289 65.5506 13.0629 65.5632 11.2868 65.0466C8.50373 64.2371 6.64748 62.7313 5.69714 61.8311C6.97171 60.3247 8.46257 58.2208 9.6447 55.4932C11.8996 50.2896 12.0487 46.2324 11.8003 43.6283C12.955 42.304 15.8475 41.7211 18.9177 43.1575C19.6828 43.5153 20.871 44.0908 21.6098 45.3992H21.6101Z" fill="#00E5FF"/>
<path d="M6.94245 75.452C8.16683 75.0003 9.17277 74.5354 10.0007 74.068C10.2358 74.7841 10.3437 75.5609 10.3296 76.3334C9.18829 76.4691 7.99821 76.482 6.79044 76.3659C6.84099 76.0614 6.8919 75.7565 6.94245 75.452Z" fill="#27AAE1"/>
<path d="M7.05369 75.6357L6.94393 75.4519C6.94393 75.4519 6.74715 75.3382 6.65399 75.5736C6.56084 75.8091 6.03259 77.04 6.00479 77.598C6.14344 77.9322 6.53556 77.6489 6.61644 77.4222C6.69732 77.1952 6.97751 76.3532 6.97751 76.3532L7.05369 75.6357Z" fill="#1C75BC"/>
<path style="mix-blend-mode:multiply" opacity="0.3" d="M9.64471 55.4931C11.3861 51.474 11.7429 47.7489 11.7014 45.0586C12.6578 45.511 14.7769 46.9808 15.0138 48.1591C15.3268 49.714 12.9972 49.8123 13.4742 50.9103C14.4798 53.2246 17.681 53.3585 18.6313 55.5203C18.966 56.2817 19.2639 55.7571 18.2851 57.2678C17.4189 58.6043 14.5198 58.8764 13.0629 59.5977C10.9637 60.6368 9.76386 60.0417 8.54742 61.072C7.88522 61.6329 7.54004 62.4034 7.36745 63.1826C6.65217 62.6897 6.09432 62.2074 5.69714 61.831C6.97171 60.3246 8.46257 58.2207 9.64471 55.4931Z" fill="url(#paint38_linear_3_2898)"/>
<path d="M17.4543 40.4773C17.4554 40.7396 17.4449 42.1452 16.7982 42.3758C16.657 42.4263 16.5433 42.3939 15.9165 42.41C15.559 42.419 15.2684 42.4375 15.0813 42.4515C15.1131 42.6911 15.1756 43.012 15.3084 43.3733C16.1129 45.5595 18.7166 47.0789 19.5983 46.5316C20.0576 46.2467 20.093 45.3918 20.1078 45.0374C20.1298 44.5048 19.9969 44.0828 19.8998 43.8411C19.577 43.6143 19.2466 43.3873 18.9087 43.1602C18.688 43.0116 18.4685 42.8662 18.2501 42.7235C18.2649 42.4546 18.2797 42.1857 18.2941 41.9168C18.0139 41.4372 17.7337 40.9572 17.4539 40.4776L17.4543 40.4773Z" fill="url(#paint39_linear_3_2898)"/>
<path d="M17.1399 40.9691C17.1399 40.9691 17.7527 41.9628 18.7727 41.8111C19.6862 41.675 19.6165 39.4525 18.9911 39.08C18.7824 38.9559 18.3614 38.9119 18.0505 39.0253C17.8317 39.1051 17.0099 39.5743 17.1634 40.3301C16.9724 40.1735 16.7561 40.1257 16.6131 40.2063C16.5904 40.2192 16.5312 40.2659 16.5012 40.3318C16.3936 40.5701 16.6348 40.8421 17.1399 40.9691Z" fill="url(#paint40_linear_3_2898)"/>
<path d="M42.5513 62.9464C42.5051 62.9464 42.4607 62.9216 42.439 62.879C42.391 62.7849 41.2684 60.5582 41.9967 59.645C42.2783 59.2917 42.7838 59.1836 43.4998 59.3238C44.4036 59.5006 45.0224 59.8895 45.3398 60.4794C45.8803 61.4839 45.3445 62.6928 45.3214 62.7437C45.2936 62.8048 45.22 62.8327 45.1568 62.8058C45.0936 62.7793 45.0647 62.7078 45.0921 62.6467C45.0972 62.6352 45.603 61.4909 45.1174 60.5896C44.8365 60.0681 44.2754 59.7221 43.45 59.5606C42.8355 59.4403 42.413 59.5184 42.1946 59.7922C41.6685 60.4521 42.3545 62.1668 42.6632 62.772C42.6939 62.832 42.6683 62.9042 42.6065 62.9338C42.5889 62.9422 42.5701 62.9464 42.5513 62.9464Z" fill="#CBD0D8"/>
<path d="M56.2051 87.4963C56.2051 88.3225 56.7323 88.9926 57.3826 88.9926C58.0329 88.9926 58.56 88.3225 58.56 87.4963C58.56 86.67 58.0329 85.9999 57.3826 85.9999C56.7323 85.9999 56.2051 86.67 56.2051 87.4963Z" fill="url(#paint41_linear_3_2898)"/>
<path d="M55.876 87.6655C55.876 88.4918 56.4031 89.1618 57.0534 89.1618C57.7037 89.1618 58.2309 88.4918 58.2309 87.6655C58.2309 86.8392 57.7037 86.1692 57.0534 86.1692C56.4031 86.1692 55.876 86.8392 55.876 87.6655Z" fill="url(#paint42_linear_3_2898)"/>
<path d="M56.5599 87.6952C56.5599 88.0416 56.7809 88.3224 57.0535 88.3224C57.3261 88.3224 57.5471 88.0416 57.5471 87.6952C57.5471 87.3489 57.3261 87.0681 57.0535 87.0681C56.7809 87.0681 56.5599 87.3489 56.5599 87.6952Z" fill="url(#paint43_linear_3_2898)"/>
<path d="M57.3816 85.8388V87.4819C57.3816 87.7233 57.1791 87.9186 56.9296 87.9186C56.7852 87.9186 56.6494 87.852 56.5645 87.7393L55.0347 85.716L57.3816 85.8388Z" fill="#CBD0D8"/>
<path d="M43.5981 86.1841C43.5981 87.0104 44.1252 87.6804 44.7755 87.6804C45.4258 87.6804 45.9529 87.0104 45.9529 86.1841C45.9529 85.3578 45.4258 84.6878 44.7755 84.6878C44.1252 84.6878 43.5981 85.3578 43.5981 86.1841Z" fill="url(#paint44_linear_3_2898)"/>
<path d="M43.2684 86.353C43.2684 87.1793 43.7955 87.8493 44.4458 87.8493C45.0961 87.8493 45.6233 87.1793 45.6233 86.353C45.6233 85.5267 45.0961 84.8567 44.4458 84.8567C43.7955 84.8567 43.2684 85.5267 43.2684 86.353Z" fill="url(#paint45_linear_3_2898)"/>
<path d="M44.4475 87.01C44.7201 87.01 44.9411 86.7293 44.9411 86.3829C44.9411 86.0365 44.7201 85.7558 44.4475 85.7558C44.1749 85.7558 43.9539 86.0365 43.9539 86.3829C43.9539 86.7293 44.1749 87.01 44.4475 87.01Z" fill="url(#paint46_linear_3_2898)"/>
<path d="M44.7748 84.5265V86.1697C44.7748 86.4111 44.5723 86.6064 44.3228 86.6064C44.1784 86.6064 44.0426 86.5398 43.9577 86.4271L42.3969 84.2213L44.7748 84.5265Z" fill="#CBD0D8"/>
<path d="M57.5577 85.9774C57.652 85.9774 57.7332 85.9091 57.744 85.8163C57.7556 85.7165 57.6816 85.6269 57.5783 85.6154L42.6489 83.99C41.783 83.8463 41.0677 83.2164 40.837 82.387L34.583 59.8947C34.2634 58.7451 33.2224 57.9181 31.9934 57.8362L27.1262 57.5114C27.0225 57.5062 26.9334 57.5816 26.9276 57.682C26.9214 57.7821 27.0005 57.8679 27.1038 57.8742L31.9695 58.1989C33.0369 58.2697 33.9421 58.9893 34.2201 59.9893L40.4741 82.4815C40.7428 83.4476 41.5758 84.1808 42.5961 84.3496L57.5364 85.9764C57.5436 85.9771 57.5505 85.9774 57.5577 85.9774Z" fill="#CBD0D8"/>
<path d="M47.1703 77.1231C47.2519 77.1231 47.3274 77.0712 47.3508 76.9913L50.8665 65.1076C50.8951 65.0113 50.8373 64.9109 50.7373 64.8833C50.6383 64.8561 50.5336 64.9112 50.5048 65.0078L46.989 76.8915C46.9605 76.9878 47.0183 77.0882 47.1183 77.1158C47.1356 77.1207 47.153 77.1228 47.1699 77.1228L47.1703 77.1231Z" fill="#CBD0D8"/>
<path d="M43.5731 76.6264C43.6626 76.6264 43.7417 76.5647 43.758 76.4768L45.9265 64.705C45.9446 64.6063 45.8767 64.5121 45.7745 64.4944C45.6723 64.4766 45.5749 64.5428 45.5568 64.6412L43.3882 76.4129C43.3702 76.5116 43.4381 76.6058 43.5402 76.6236C43.5514 76.6253 43.5626 76.6264 43.5731 76.6264Z" fill="#C2C2C2"/>
<path d="M41.3401 76.2407C41.343 76.2407 41.3455 76.2407 41.348 76.2407C41.452 76.2365 41.5326 76.1521 41.5282 76.0516L41.0278 64.4044C41.0234 64.3043 40.9285 64.2255 40.8324 64.2307C40.7285 64.2349 40.6479 64.3193 40.6523 64.4198L41.1527 76.067C41.157 76.1647 41.2401 76.241 41.3401 76.241V76.2407Z" fill="#C2C2C2"/>
<path d="M52.0767 77.558C52.1555 77.558 52.2284 77.5098 52.2551 77.4342L56.3828 65.5452C56.4157 65.4503 56.363 65.3471 56.2644 65.3154C56.1658 65.2836 56.0597 65.3346 56.0265 65.4298L51.8987 77.3187C51.8659 77.4136 51.9186 77.5168 52.0172 77.5486C52.037 77.5548 52.0572 77.558 52.0771 77.558H52.0767Z" fill="#CBD0D8"/>
<path d="M16.8365 58.7343C16.7076 58.7343 16.5982 58.6387 16.5874 58.5124C16.5762 58.3796 16.6784 58.2627 16.8163 58.2519L26.9768 57.4451C27.1136 57.4343 27.2353 57.533 27.2465 57.6663C27.2577 57.7992 27.1555 57.916 27.0176 57.9268L16.8571 58.7336C16.8502 58.7343 16.843 58.7343 16.8362 58.7343H16.8365Z" fill="url(#paint47_linear_3_2898)"/>
<path d="M45.1436 91.5773C45.1436 92.4036 45.6708 93.0736 46.3211 93.0736C46.9713 93.0736 47.4985 92.4036 47.4985 91.5773C47.4985 90.751 46.9713 90.081 46.3211 90.081C45.6708 90.081 45.1436 90.751 45.1436 91.5773Z" fill="url(#paint48_linear_3_2898)"/>
<path d="M44.816 91.7463C44.816 92.5725 45.3432 93.2426 45.9935 93.2426C46.6437 93.2426 47.1709 92.5725 47.1709 91.7463C47.1709 90.92 46.6437 90.2499 45.9935 90.2499C45.3432 90.2499 44.816 90.92 44.816 91.7463Z" fill="url(#paint49_linear_3_2898)"/>
<path d="M45.4989 91.7761C45.4989 92.1225 45.7199 92.4032 45.9925 92.4032C46.2651 92.4032 46.4861 92.1225 46.4861 91.7761C46.4861 91.4298 46.2651 91.149 45.9925 91.149C45.7199 91.149 45.4989 91.4298 45.4989 91.7761Z" fill="url(#paint50_linear_3_2898)"/>
<path d="M46.3203 89.9198V91.563C46.3203 91.8043 46.1177 91.9997 45.8682 91.9997C45.7238 91.9997 45.5881 91.933 45.5032 91.8204L43.9734 89.797L46.3203 89.9198Z" fill="#97A6B7"/>
<path d="M34.2283 90.5215C34.2283 91.3478 34.7555 92.0178 35.4058 92.0178C36.0561 92.0178 36.5832 91.3478 36.5832 90.5215C36.5832 89.6952 36.0561 89.0251 35.4058 89.0251C34.7555 89.0251 34.2283 89.6952 34.2283 90.5215Z" fill="url(#paint51_linear_3_2898)"/>
<path d="M33.9008 90.6907C33.9008 91.517 34.4279 92.187 35.0782 92.187C35.7285 92.187 36.2556 91.517 36.2556 90.6907C36.2556 89.8644 35.7285 89.1944 35.0782 89.1944C34.4279 89.1944 33.9008 89.8644 33.9008 90.6907Z" fill="url(#paint52_linear_3_2898)"/>
<path d="M34.5847 90.7208C34.5847 91.0672 34.8057 91.348 35.0783 91.348C35.3509 91.348 35.5719 91.0672 35.5719 90.7208C35.5719 90.3745 35.3509 90.0937 35.0783 90.0937C34.8057 90.0937 34.5847 90.3745 34.5847 90.7208Z" fill="url(#paint53_linear_3_2898)"/>
<path d="M35.4066 88.8642V90.5074C35.4066 90.7487 35.204 90.944 34.9546 90.944C34.8101 90.944 34.6744 90.8774 34.5895 90.7648L32.8864 88.5478L35.4066 88.8642Z" fill="#97A6B7"/>
<path d="M62.2031 65.9414C62.3006 65.9414 62.3833 65.8685 62.3905 65.7729C62.3981 65.6728 62.3201 65.586 62.2165 65.579L35.627 63.7304C35.6119 63.7294 35.5971 63.7301 35.5819 63.7325L24.574 65.5434C24.4718 65.5602 24.4029 65.654 24.4206 65.7531C24.4379 65.8518 24.535 65.9184 24.6372 65.9016L35.6223 64.0942L62.1894 65.9414C62.1941 65.9418 62.1984 65.9418 62.2031 65.9418V65.9414Z" fill="#CBD0D8"/>
<path d="M37.4224 62.7696C37.3704 62.7696 37.3216 62.7379 37.3039 62.6876C37.2808 62.6214 36.741 61.0577 37.2964 60.1181C37.4971 59.7787 37.8145 59.5632 38.2398 59.4773C38.6457 59.3957 39.0085 59.47 39.3191 59.6981C40.2459 60.3797 40.3777 62.2094 40.3828 62.2869C40.3871 62.3535 40.3348 62.4107 40.2658 62.4152C40.1979 62.4201 40.1376 62.3688 40.1329 62.3026C40.1318 62.2848 40.0037 60.5052 39.1671 59.8903C38.9132 59.7037 38.6265 59.6462 38.2904 59.7138C37.9333 59.7857 37.6791 59.9573 37.5134 60.2377C37.0133 61.0839 37.5354 62.5945 37.5408 62.6095C37.5632 62.6726 37.5282 62.7413 37.4628 62.7626C37.4495 62.7672 37.4357 62.7692 37.4227 62.7692L37.4224 62.7696Z" fill="#CBD0D8"/>
<path d="M35.8128 62.1114L35.5969 61.2018L41.9293 61.486L43.1425 62.5031L38.5865 62.8275L35.8128 62.1114Z" fill="url(#paint54_linear_3_2898)"/>
<path d="M35.5973 61.2018L30.4012 73.0674L33.7158 77.3195L36.8311 66.4934L36.5484 61.8911L35.5973 61.2018Z" fill="url(#paint55_linear_3_2898)"/>
<path d="M36.5482 61.891C38.7464 62.095 40.9446 62.2991 43.1428 62.5031C43.7544 67.8641 43.8487 70.4605 44.4603 75.8214C41.3678 77.1461 37.4462 78.0324 33.7153 77.3195C34.6364 72.4674 35.6271 66.7431 36.5482 61.891Z" fill="url(#paint56_linear_3_2898)"/>
<path d="M40.6263 62.9838C40.6202 62.9838 40.6137 62.9834 40.6072 62.9824C40.539 62.9722 40.492 62.9105 40.5025 62.8446C40.5054 62.8268 40.7751 61.0619 40.0948 60.2886C39.8883 60.0539 39.6211 59.9381 39.2778 59.9346C38.9134 59.9304 38.6267 60.0455 38.4025 60.2852C37.7262 61.0079 37.9006 62.5917 37.9024 62.6078C37.91 62.674 37.8606 62.7337 37.792 62.7414C37.7226 62.7487 37.6616 62.7009 37.6537 62.6346C37.6457 62.5652 37.4655 60.9259 38.2166 60.1233C38.4877 59.8335 38.8437 59.6894 39.2803 59.6929C39.6948 59.6971 40.0327 59.845 40.2855 60.1324C41.0398 60.9901 40.7617 62.8045 40.7495 62.8812C40.7401 62.9409 40.6866 62.9838 40.626 62.9838H40.6263Z" fill="#CBD0D8"/>
<path d="M38.9638 63.2755L38.6594 62.4534L45.7959 61.3784L47.2283 62.0913L42.1297 63.3693L38.9638 63.2755Z" fill="url(#paint57_linear_3_2898)"/>
<path d="M38.6599 62.4532L33.6248 74.8813L37.6384 78.235L40.4057 67.2407L39.7756 62.9087L38.6599 62.4532Z" fill="url(#paint58_linear_3_2898)"/>
<path d="M39.7749 62.9087C42.2594 62.6363 44.7439 62.3639 47.2281 62.0915C48.2792 67.0778 49.1768 71.1649 50.2278 76.1513C45.9864 76.2639 41.8789 78.1226 37.6374 78.2353C38.3433 73.4091 39.0687 67.7353 39.7746 62.909L39.7749 62.9087Z" fill="url(#paint59_linear_3_2898)"/>
<path d="M42.2436 63.374C42.1974 63.374 42.153 63.3492 42.1313 63.3066C42.0833 63.2125 40.9607 60.9858 41.689 60.0726C41.9707 59.7193 42.4761 59.6112 43.1921 59.7514C44.0959 59.9282 44.7148 60.3171 45.0322 60.907C45.5727 61.9115 45.0368 63.1204 45.0137 63.1713C44.9863 63.2324 44.9123 63.2603 44.8491 63.2334C44.7859 63.2069 44.757 63.1354 44.7845 63.0743C44.7895 63.0628 45.2954 61.9185 44.8097 61.0172C44.5288 60.4957 43.9677 60.1497 43.1423 59.9882C42.5278 59.8679 42.1053 59.946 41.8869 60.2198C41.3608 60.8797 42.0468 62.5944 42.3556 63.1996C42.3862 63.2596 42.3606 63.3318 42.2989 63.3614C42.2812 63.3698 42.2624 63.374 42.2436 63.374Z" fill="#CBD0D8"/>
<path d="M53.1679 68.5913C53.1863 68.5913 53.2047 68.5888 53.2224 68.5836L62.2571 65.9338C62.3563 65.9049 62.4123 65.8034 62.3823 65.7075C62.352 65.6116 62.2466 65.5571 62.148 65.5864L53.1491 68.2258L24.6233 65.5418C24.5214 65.532 24.4279 65.6053 24.4182 65.705C24.4081 65.8048 24.4835 65.8937 24.5872 65.9035L53.1498 68.5909C53.156 68.5916 53.1621 68.5916 53.1679 68.5916V68.5913Z" fill="#97A6B7"/>
<path d="M28.0446 77.9664C28.054 77.9664 28.0637 77.9657 28.0731 77.9643L38.92 76.3567L55.4143 77.8904C55.5168 77.9001 55.6093 77.8269 55.6194 77.7271C55.6291 77.6274 55.5536 77.5388 55.4504 77.529L38.9326 75.9933C38.9171 75.9919 38.9015 75.9923 38.886 75.9947L28.016 77.6058C27.9135 77.6211 27.8431 77.7135 27.8586 77.8126C27.8731 77.9022 27.9529 77.9668 28.0442 77.9668L28.0446 77.9664Z" fill="#CBD0D8"/>
<path d="M47.6847 79.7704C47.7569 79.7704 47.8233 79.7303 47.8544 79.6665L53.3376 68.4873C53.3823 68.3966 53.3423 68.2885 53.248 68.2456C53.1545 68.2027 53.0422 68.2414 52.9978 68.3321L47.5709 79.3961L28.0621 77.604C27.957 77.595 27.8671 77.6679 27.8573 77.7676C27.8476 77.8674 27.923 77.956 28.0267 77.9657L47.6666 79.7697C47.6728 79.7704 47.6785 79.7704 47.6843 79.7704H47.6847Z" fill="#97A6B7"/>
<path d="M47.6843 79.7708C47.6994 79.7708 47.715 79.769 47.7301 79.7652L55.4783 77.8859C55.5292 77.8737 55.5722 77.8412 55.5974 77.7969L62.3675 65.847C62.4173 65.7591 62.3837 65.6489 62.2927 65.6007C62.2017 65.5526 62.0873 65.585 62.0375 65.6729L55.3071 77.5531L47.6391 79.4129C47.5384 79.4373 47.4774 79.536 47.5027 79.6333C47.524 79.7157 47.6005 79.7708 47.6846 79.7708H47.6843Z" fill="#97A6B7"/>
<path d="M51.1728 72.6576C51.1905 72.6576 51.2086 72.6551 51.2256 72.6502L59.7345 70.2408C59.8341 70.2125 59.8912 70.1117 59.8619 70.0155C59.8327 69.9192 59.728 69.8644 59.6287 69.8923L51.1537 72.292L26.0053 70.1731C25.902 70.1651 25.8107 70.2383 25.8017 70.3381C25.7926 70.4378 25.8692 70.5261 25.9724 70.5348L51.1559 72.6565C51.1613 72.6569 51.1667 72.6572 51.1721 72.6572L51.1728 72.6576Z" fill="#97A6B7"/>
<path d="M49.0949 76.8956C49.1119 76.8956 49.1293 76.8935 49.1455 76.889L57.297 74.6828C57.397 74.6556 57.4551 74.5555 57.4273 74.4589C57.3995 74.3623 57.2955 74.3058 57.1959 74.333L49.0773 76.53L27.237 74.6842C27.1337 74.6752 27.0423 74.7495 27.0333 74.8492C27.0243 74.949 27.1008 75.0372 27.2041 75.0459L49.0783 76.8945C49.0838 76.8949 49.0892 76.8952 49.0946 76.8952L49.0949 76.8956Z" fill="#97A6B7"/>
<path d="M43.6741 79.402C43.7554 79.402 43.8301 79.3511 43.8543 79.2723L47.3509 67.9393C47.3805 67.8431 47.3238 67.7423 47.2245 67.7137C47.1245 67.6847 47.0201 67.7398 46.9909 67.8357L43.4943 79.1687C43.4647 79.2646 43.5214 79.3658 43.6207 79.3944C43.6384 79.3996 43.6568 79.402 43.6741 79.402Z" fill="#97A6B7"/>
<path d="M39.8056 79.0471C39.8952 79.0471 39.9746 78.985 39.9905 78.8971L42.0876 67.4155C42.1056 67.3168 42.0374 67.2226 41.9352 67.2052C41.833 67.1881 41.7355 67.2537 41.7175 67.3524L39.6204 78.8339C39.6023 78.9326 39.6706 79.0268 39.7728 79.0443C39.784 79.046 39.7948 79.0471 39.8056 79.0471Z" fill="#97A6B7"/>
<path d="M35.4434 78.5674C35.5423 78.5674 35.6253 78.4928 35.6308 78.3962L36.2915 66.9955C36.2973 66.8954 36.2182 66.8096 36.1142 66.8041C36.0117 66.7988 35.9218 66.8752 35.9164 66.9753L35.2556 78.3759C35.2498 78.476 35.3289 78.5618 35.4329 78.5674C35.4365 78.5674 35.4401 78.5674 35.4434 78.5674Z" fill="#97A6B7"/>
<path d="M31.3104 78.1203C31.3136 78.1203 31.3169 78.1203 31.3205 78.1203C31.4241 78.115 31.5036 78.0296 31.4985 77.9295L30.8695 66.3471C30.8641 66.247 30.7814 66.1699 30.672 66.1755C30.5684 66.1808 30.4889 66.2662 30.494 66.3663L31.123 77.9487C31.1284 78.0456 31.2111 78.1206 31.3104 78.1206V78.1203Z" fill="#97A6B7"/>
<path d="M50.0274 79.2021C50.0975 79.2021 50.1646 79.1641 50.1971 79.0993L55.8489 67.7516C55.894 67.6613 55.8543 67.5528 55.7612 67.5092C55.6677 67.466 55.5554 67.5037 55.5102 67.594L49.8584 78.9416C49.8133 79.0319 49.8527 79.1404 49.9462 79.184C49.9725 79.1962 50 79.2021 50.0274 79.2021Z" fill="#97A6B7"/>
<path d="M53.1675 78.4409C53.2364 78.4409 53.3029 78.4039 53.3357 78.3404L59.3349 66.7316C59.3815 66.6419 59.3435 66.5327 59.2507 66.4881C59.1576 66.4434 59.0449 66.4797 58.9987 66.5694L52.9996 78.1782C52.953 78.2679 52.9909 78.377 53.0837 78.4217C53.1104 78.4346 53.1393 78.4409 53.1675 78.4409Z" fill="#97A6B7"/>
<path d="M46.3796 90.2624C46.4034 90.2624 46.4269 90.2582 46.4489 90.2495L57.6258 85.9646C57.7222 85.9276 57.7695 85.8219 57.7312 85.7288C57.693 85.6357 57.5836 85.59 57.4872 85.627L46.3547 89.8948L32.8414 88.3001C31.8325 88.1812 31.0064 87.4926 30.7367 86.5464L23.3456 60.6266C23.0217 59.4913 21.9876 58.6712 20.7716 58.5861L16.85 58.3116C16.7485 58.304 16.6565 58.3797 16.6489 58.4794C16.6413 58.5795 16.7193 58.6664 16.8226 58.6737L20.7441 58.9482C21.8017 59.0221 22.7015 59.7358 22.9831 60.7232L30.3742 86.643C30.6847 87.7316 31.635 88.5237 32.7955 88.6607L46.3561 90.261C46.3637 90.2621 46.3713 90.2624 46.3789 90.2624H46.3796Z" fill="#97A6B7"/>
<path d="M23.7777 57.6438C23.8752 57.6406 25.4487 57.4101 25.578 57.799C25.6148 57.9092 25.5809 58.0187 25.5809 58.0187C25.5213 58.1352 25.1133 58.1195 25.07 58.1303C25.5274 58.4129 26.1766 58.5478 26.4395 58.2336C26.6236 58.0135 26.6771 57.6644 26.5309 57.3958C26.3955 57.1474 26.1395 57.0505 25.9943 57.0048C24.502 56.5346 23.7773 57.6438 23.7773 57.6438H23.7777Z" fill="url(#paint60_linear_3_2898)"/>
<path d="M19.9919 56.8802C20.2158 56.9423 20.2563 57.0089 20.5224 57.0689C20.7885 57.1289 21.2557 57.161 21.5738 57.2301C21.8923 57.2995 22.2002 57.455 22.132 57.8359C22.0638 58.2168 21.6276 58.2876 21.2012 58.2925C20.9419 58.2956 20.6047 58.0421 20.3277 57.8153C20.1328 57.6559 19.5677 57.4683 19.2788 57.3811C19.5027 57.2074 19.7605 57.0452 19.9912 56.8802H19.9919Z" fill="url(#paint61_linear_3_2898)"/>
<path d="M14.1965 42.6523C13.648 42.4151 12.6171 42.8308 11.8585 43.5863C9.67985 45.7562 7.83623 50.1342 9.20288 53.2618C9.96292 55.0016 12.8851 57.2429 14.9471 57.4163C16.6257 57.5575 17.5139 57.6165 19.0951 57.5052C19.502 57.2112 19.6601 57.1613 20.0562 56.8586C18.9293 56.5722 17.5844 55.6538 16.7738 55.0403C15.3941 53.9957 14.4831 52.9308 13.2187 52.1275C12.7262 51.8147 11.8159 51.898 11.8719 51.3944C11.9878 50.3525 13.7097 49.9699 14.4481 48.317C14.9865 47.1119 15.314 44.1109 14.1968 42.6526L14.1965 42.6523Z" fill="#00E5FF"/>
<path d="M49.559 55.4869L42.3832 45.5724L42.3832 45.5724C39.6396 41.782 40.5598 36.5595 44.4646 33.8621L44.4646 33.8621C47.5109 31.7575 51.607 31.7575 54.6538 33.8621C58.5585 36.5595 59.4788 41.782 56.7352 45.5724L49.559 55.4869ZM45.3909 40.6517C45.3909 42.9028 47.2728 44.6991 49.5589 44.6991C51.8451 44.6991 53.727 42.9028 53.727 40.6517C53.727 38.4007 51.8451 36.6044 49.5589 36.6044C47.2728 36.6044 45.3909 38.4007 45.3909 40.6517Z" fill="url(#paint62_linear_3_2898)" stroke="url(#paint63_linear_3_2898)"/>
<path d="M49.5587 56.5758C49.4791 56.5758 49.4044 56.538 49.3589 56.4752L41.7777 46.0012C38.8025 41.8909 39.8167 36.1751 44.038 33.2591C47.3403 30.9777 51.778 30.9777 55.0798 33.2591C59.3011 36.1751 60.3153 41.8909 57.3401 46.0012L49.7589 56.4752C49.7134 56.538 49.6383 56.5758 49.5587 56.5758ZM49.5587 32.02C47.7232 32.02 45.8877 32.5611 44.3217 33.643C40.3172 36.4088 39.3547 41.8314 42.1766 45.7301L49.5587 55.9279L56.9402 45.7301C59.7621 41.8314 58.8001 36.4088 54.7951 33.643C53.2297 32.5611 51.3942 32.02 49.5587 32.02ZM49.5587 44.4353C47.4014 44.4353 45.6464 42.7381 45.6464 40.6518C45.6464 38.5655 47.4014 36.8683 49.5587 36.8683C51.716 36.8683 53.4709 38.5655 53.4709 40.6518C53.4709 42.7381 51.716 44.4353 49.5587 44.4353ZM49.5587 37.341C47.6709 37.341 46.1347 38.8266 46.1347 40.6523C46.1347 42.4779 47.6709 43.9635 49.5587 43.9635C51.4464 43.9635 52.9826 42.4779 52.9826 40.6523C52.9826 38.8266 51.4464 37.341 49.5587 37.341Z" fill="url(#paint64_linear_3_2898)"/>
<path d="M49.5584 54.9287C49.5096 54.9287 49.4612 54.915 49.4183 54.8862C49.3079 54.8116 49.2811 54.6643 49.3587 54.5576L56.1402 45.189C56.2173 45.0814 56.3697 45.0568 56.48 45.1309C56.5904 45.2055 56.6172 45.3529 56.5396 45.4596L49.7581 54.8281C49.7113 54.8938 49.6351 54.9287 49.5584 54.9287Z" fill="url(#paint65_linear_3_2898)"/>
<path d="M41.2917 40.888C41.2907 40.888 41.2897 40.888 41.2887 40.888C41.154 40.8866 41.0461 40.7794 41.0475 40.649C41.0807 38.0192 42.4113 35.5438 44.6062 34.0274C46.0599 33.0235 47.7728 32.4922 49.5595 32.4922C49.6943 32.4922 49.8036 32.598 49.8036 32.7283C49.8036 32.8587 49.6943 32.9645 49.5595 32.9645C47.8754 32.9645 46.2606 33.465 44.8904 34.4114C42.8215 35.8403 41.5671 38.1745 41.5358 40.6547C41.5344 40.7845 41.425 40.888 41.2917 40.888Z" fill="url(#paint66_linear_3_2898)"/>
<path d="M41.9785 45.8656C39.0673 41.8436 40.0503 36.3044 44.1808 33.4507C45.3712 32.6281 46.7135 32.112 48.0949 31.8985C45.7433 31.5344 43.2784 32.0506 41.251 33.4507C37.12 36.3044 36.1376 41.8436 39.0488 45.8656L46.63 56.3396H49.5598L41.9785 45.8656Z" fill="url(#paint67_linear_3_2898)"/>
<path d="M49.5594 56.5759H46.6296C46.55 56.5759 46.4753 56.5381 46.4299 56.4753L38.8486 46.0013C35.8734 41.891 36.8876 36.1752 41.1089 33.2592C43.1539 31.8472 45.6481 31.2806 48.1336 31.6659C48.2512 31.6838 48.3386 31.7825 48.3386 31.8987C48.3386 32.0149 48.2512 32.1136 48.1331 32.132C46.7649 32.3435 45.4474 32.8663 44.3224 33.6431C40.3179 36.4094 39.356 41.8315 42.1773 45.7307L49.7586 56.2048C49.8109 56.277 49.8172 56.371 49.7752 56.4494C49.7332 56.5278 49.6507 56.5759 49.5594 56.5759ZM46.7571 56.1037H49.0906L41.7784 46.0008C38.8032 41.8906 39.8174 36.1747 44.0387 33.2587C44.8078 32.7275 45.6618 32.3095 46.5603 32.0201C44.715 32.03 42.9215 32.5872 41.3931 33.6431C37.3886 36.4094 36.4267 41.8315 39.248 45.7307L46.7571 56.1037Z" fill="url(#paint68_linear_3_2898)"/>
<path d="M48.2248 43.8404C48.6735 44.0298 49.1686 44.1365 49.6896 44.1365C51.7156 44.1365 53.3577 42.5484 53.3577 40.5891C53.3577 38.6298 51.7156 37.0417 49.6896 37.0417C49.1686 37.0417 48.6735 37.1485 48.2248 37.3378C49.5212 37.8851 50.428 39.1337 50.428 40.5891C50.428 42.0445 49.5212 43.2936 48.2248 43.8404Z" fill="url(#paint69_linear_3_2898)"/>
<path d="M49.6145 44.4534C49.0745 44.4534 48.5486 44.3472 48.052 44.138C47.9631 44.1002 47.9055 44.0152 47.9055 43.9217C47.9055 43.8282 47.9631 43.7427 48.052 43.7054C49.3015 43.1784 50.1087 41.987 50.1087 40.6709C50.1087 39.3548 49.3015 38.1633 48.052 37.6358C47.9631 37.5985 47.9055 37.5135 47.9055 37.4196C47.9055 37.3256 47.9631 37.2406 48.052 37.2033C48.5491 36.9941 49.0745 36.8878 49.6145 36.8878C51.7718 36.8878 53.5267 38.585 53.5267 40.6713C53.5267 42.7576 51.7718 44.4534 49.6145 44.4534ZM48.76 43.8763C49.0378 43.9458 49.324 43.9812 49.6145 43.9812C51.5023 43.9812 53.0385 42.4955 53.0385 40.6699C53.0385 38.8443 51.5023 37.3587 49.6145 37.3587C49.3235 37.3587 49.0378 37.3941 48.76 37.4635C49.8914 38.1482 50.597 39.3543 50.597 40.6699C50.597 41.9855 49.8919 43.1916 48.76 43.8763Z" fill="url(#paint70_linear_3_2898)"/>
<defs>
<linearGradient id="paint0_linear_3_2898" x1="82.5559" y1="30.2676" x2="103.477" y2="28.8869" gradientUnits="userSpaceOnUse">
<stop stop-color="#699EF7"/>
<stop offset="1" stop-color="white"/>
</linearGradient>
<linearGradient id="paint1_linear_3_2898" x1="6.97734" y1="9.52688" x2="25.1297" y2="58.4438" gradientUnits="userSpaceOnUse">
<stop stop-color="#8F8DE3"/>
<stop offset="1" stop-color="#652EFB"/>
</linearGradient>
<linearGradient id="paint2_linear_3_2898" x1="31.4795" y1="-6.3494" x2="53.5694" y2="53.1779" gradientUnits="userSpaceOnUse">
<stop stop-color="#8D8AFA"/>
<stop offset="1" stop-color="#6C38F9"/>
</linearGradient>
<linearGradient id="paint3_linear_3_2898" x1="52.7244" y1="8.39599" x2="73.1707" y2="63.495" gradientUnits="userSpaceOnUse">
<stop stop-color="#8D96E3"/>
<stop offset="1" stop-color="#3609AE"/>
</linearGradient>
<linearGradient id="paint4_linear_3_2898" x1="17.1509" y1="0.977909" x2="37.3321" y2="55.3624" gradientUnits="userSpaceOnUse">
<stop stop-color="#311944"/>
<stop offset="1" stop-color="#893976"/>
</linearGradient>
<linearGradient id="paint5_linear_3_2898" x1="23.3658" y1="16.4571" x2="29.4016" y2="32.7223" gradientUnits="userSpaceOnUse">
<stop stop-color="#E38DDD"/>
<stop offset="1" stop-color="#9571F6"/>
</linearGradient>
<linearGradient id="paint6_linear_3_2898" x1="28.6354" y1="16.1239" x2="34.8942" y2="32.9897" gradientUnits="userSpaceOnUse">
<stop stop-color="#E38DDD"/>
<stop offset="1" stop-color="#9571F6"/>
</linearGradient>
<linearGradient id="paint7_linear_3_2898" x1="23.3188" y1="26.6619" x2="29.4249" y2="43.1167" gradientUnits="userSpaceOnUse">
<stop stop-color="#E38DDD"/>
<stop offset="1" stop-color="#9571F6"/>
</linearGradient>
<linearGradient id="paint8_linear_3_2898" x1="28.5834" y1="26.6184" x2="34.9197" y2="43.6931" gradientUnits="userSpaceOnUse">
<stop stop-color="#E38DDD"/>
<stop offset="1" stop-color="#9571F6"/>
</linearGradient>
<linearGradient id="paint9_linear_3_2898" x1="25.3142" y1="31.9217" x2="24.7368" y2="30.3656" gradientUnits="userSpaceOnUse">
<stop stop-color="#E38DDD"/>
<stop offset="1" stop-color="#9571F6"/>
</linearGradient>
<linearGradient id="paint10_linear_3_2898" x1="24.7033" y1="32.0363" x2="23.8207" y2="29.6588" gradientUnits="userSpaceOnUse">
<stop stop-color="#E38DDD"/>
<stop offset="1" stop-color="#9571F6"/>
</linearGradient>
<linearGradient id="paint11_linear_3_2898" x1="28.4754" y1="40.9509" x2="31.4297" y2="48.9118" gradientUnits="userSpaceOnUse">
<stop stop-color="#E38DDD"/>
<stop offset="1" stop-color="#9571F6"/>
</linearGradient>
<linearGradient id="paint12_linear_3_2898" x1="46.4165" y1="11.2864" x2="43.4288" y2="25.7015" gradientUnits="userSpaceOnUse">
<stop stop-color="#B4FFE4"/>
<stop offset="0.376888" stop-color="#00E5FF"/>
<stop offset="1" stop-color="#8B49FF"/>
</linearGradient>
<linearGradient id="paint13_linear_3_2898" x1="55.2646" y1="10.3602" x2="55.1894" y2="10.4479" gradientUnits="userSpaceOnUse">
<stop stop-color="#B4FFE4"/>
<stop offset="0.376888" stop-color="#00E5FF"/>
<stop offset="1" stop-color="#8B49FF"/>
</linearGradient>
<linearGradient id="paint14_linear_3_2898" x1="11.7831" y1="16.5639" x2="8.55682" y2="20.4607" gradientUnits="userSpaceOnUse">
<stop stop-color="#B4FFE4"/>
<stop offset="0.376888" stop-color="#00E5FF"/>
<stop offset="1" stop-color="#8B49FF"/>
</linearGradient>
<linearGradient id="paint15_linear_3_2898" x1="17.1957" y1="16.465" x2="13.8929" y2="20.5319" gradientUnits="userSpaceOnUse">
<stop stop-color="#B4FFE4"/>
<stop offset="0.376888" stop-color="#00E5FF"/>
<stop offset="1" stop-color="#8B49FF"/>
</linearGradient>
<linearGradient id="paint16_linear_3_2898" x1="23.1596" y1="16.3604" x2="19.8298" y2="20.8022" gradientUnits="userSpaceOnUse">
<stop stop-color="#B4FFE4"/>
<stop offset="0.376888" stop-color="#00E5FF"/>
<stop offset="1" stop-color="#8B49FF"/>
</linearGradient>
<linearGradient id="paint17_linear_3_2898" x1="29.5412" y1="16.2509" x2="26.1453" y2="20.9221" gradientUnits="userSpaceOnUse">
<stop stop-color="#B4FFE4"/>
<stop offset="0.376888" stop-color="#00E5FF"/>
<stop offset="1" stop-color="#8B49FF"/>
</linearGradient>
<linearGradient id="paint18_linear_3_2898" x1="35.9904" y1="16.1374" x2="32.4645" y2="20.8488" gradientUnits="userSpaceOnUse">
<stop stop-color="#B4FFE4"/>
<stop offset="0.376888" stop-color="#00E5FF"/>
<stop offset="1" stop-color="#8B49FF"/>
</linearGradient>
<linearGradient id="paint19_linear_3_2898" x1="42.9475" y1="16.0128" x2="39.3803" y2="21.0802" gradientUnits="userSpaceOnUse">
<stop stop-color="#B4FFE4"/>
<stop offset="0.376888" stop-color="#00E5FF"/>
<stop offset="1" stop-color="#8B49FF"/>
</linearGradient>
<linearGradient id="paint20_linear_3_2898" x1="50.4232" y1="15.8828" x2="46.7919" y2="21.2355" gradientUnits="userSpaceOnUse">
<stop stop-color="#B4FFE4"/>
<stop offset="0.376888" stop-color="#00E5FF"/>
<stop offset="1" stop-color="#8B49FF"/>
</linearGradient>
<linearGradient id="paint21_linear_3_2898" x1="58.7182" y1="16.3209" x2="58.6522" y2="16.62" gradientUnits="userSpaceOnUse">
<stop stop-color="#FF9085"/>
<stop offset="1" stop-color="#FB6FBB"/>
</linearGradient>
<linearGradient id="paint22_linear_3_2898" x1="68.5274" y1="7.53039" x2="71.7655" y2="23.4032" gradientUnits="userSpaceOnUse">
<stop stop-color="#FF9085"/>
<stop offset="1" stop-color="#FB6FBB"/>
</linearGradient>
<linearGradient id="paint23_linear_3_2898" x1="68.1213" y1="16.8283" x2="68.1489" y2="16.9541" gradientUnits="userSpaceOnUse">
<stop stop-color="#FF9085"/>
<stop offset="1" stop-color="#FB6FBB"/>
</linearGradient>
<linearGradient id="paint24_linear_3_2898" x1="72.2345" y1="17.0265" x2="72.261" y2="17.1467" gradientUnits="userSpaceOnUse">
<stop stop-color="#FF9085"/>
<stop offset="1" stop-color="#FB6FBB"/>
</linearGradient>
<linearGradient id="paint25_linear_3_2898" x1="76.3221" y1="17.2201" x2="76.3482" y2="17.3393" gradientUnits="userSpaceOnUse">
<stop stop-color="#FF9085"/>
<stop offset="1" stop-color="#FB6FBB"/>
</linearGradient>
<linearGradient id="paint26_linear_3_2898" x1="80.1469" y1="17.4026" x2="80.1723" y2="17.5179" gradientUnits="userSpaceOnUse">
<stop stop-color="#FF9085"/>
<stop offset="1" stop-color="#FB6FBB"/>
</linearGradient>
<linearGradient id="paint27_linear_3_2898" x1="83.5635" y1="17.5689" x2="83.5878" y2="17.6787" gradientUnits="userSpaceOnUse">
<stop stop-color="#FF9085"/>
<stop offset="1" stop-color="#FB6FBB"/>
</linearGradient>
<linearGradient id="paint28_linear_3_2898" x1="86.8059" y1="17.7241" x2="86.8291" y2="17.8304" gradientUnits="userSpaceOnUse">
<stop stop-color="#FF9085"/>
<stop offset="1" stop-color="#FB6FBB"/>
</linearGradient>
<linearGradient id="paint29_linear_3_2898" x1="58.9779" y1="15.6652" x2="58.4339" y2="18.3316" gradientUnits="userSpaceOnUse">
<stop stop-color="#FF9085"/>
<stop offset="1" stop-color="#FB6FBB"/>
</linearGradient>
<linearGradient id="paint30_linear_3_2898" x1="53.6418" y1="9.93983" x2="53.4661" y2="10.8024" gradientUnits="userSpaceOnUse">
<stop stop-color="#FF9085"/>
<stop offset="1" stop-color="#FB6FBB"/>
</linearGradient>
<linearGradient id="paint31_linear_3_2898" x1="58.6906" y1="16.426" x2="58.669" y2="16.4324" gradientUnits="userSpaceOnUse">
<stop stop-color="#FF9085"/>
<stop offset="1" stop-color="#FB6FBB"/>
</linearGradient>
<linearGradient id="paint32_linear_3_2898" x1="80.9717" y1="11.2202" x2="76.6088" y2="25.0334" gradientUnits="userSpaceOnUse">
<stop stop-color="#B4FFE4"/>
<stop offset="0.376888" stop-color="#00E5FF"/>
<stop offset="1" stop-color="#8B49FF"/>
</linearGradient>
<linearGradient id="paint33_linear_3_2898" x1="66.9728" y1="38.5789" x2="82.1051" y2="17.1099" gradientUnits="userSpaceOnUse">
<stop stop-color="#D3F7FF"/>
<stop offset="1" stop-color="#2C9EF1"/>
</linearGradient>
<linearGradient id="paint34_linear_3_2898" x1="79.758" y1="28.2698" x2="85.2299" y2="20.5064" gradientUnits="userSpaceOnUse">
<stop stop-color="#6165D7"/>
<stop offset="1" stop-color="#AA80F9"/>
</linearGradient>
<linearGradient id="paint35_linear_3_2898" x1="1.81757" y1="80.5267" x2="17.9767" y2="61.6864" gradientUnits="userSpaceOnUse">
<stop stop-color="#40447E"/>
<stop offset="1" stop-color="#1C2C5A"/>
</linearGradient>
<linearGradient id="paint36_linear_3_2898" x1="17.6691" y1="63.3529" x2="12.4401" y2="73.9943" gradientUnits="userSpaceOnUse">
<stop stop-color="#40447E"/>
<stop offset="1" stop-color="#3C3B6B"/>
</linearGradient>
<linearGradient id="paint37_linear_3_2898" x1="15.1798" y1="61.4504" x2="11.8666" y2="73.0744" gradientUnits="userSpaceOnUse">
<stop stop-color="#40447E"/>
<stop offset="1" stop-color="#3C3B6B"/>
</linearGradient>
<linearGradient id="paint38_linear_3_2898" x1="18.5116" y1="49.2869" x2="-2.70065" y2="62.289" gradientUnits="userSpaceOnUse">
<stop stop-color="#FF9085"/>
<stop offset="1" stop-color="#FB6FBB"/>
</linearGradient>
<linearGradient id="paint39_linear_3_2898" x1="19.4318" y1="49.5574" x2="14.8667" y2="33.6086" gradientUnits="userSpaceOnUse">
<stop stop-color="#FCB148"/>
<stop offset="0.05" stop-color="#FDB946"/>
<stop offset="0.14" stop-color="#FEC144"/>
<stop offset="0.32" stop-color="#FFC444"/>
<stop offset="0.48" stop-color="#FDB946"/>
<stop offset="0.78" stop-color="#F99C4C"/>
<stop offset="0.87" stop-color="#F8924F"/>
<stop offset="1" stop-color="#F8924F"/>
</linearGradient>
<linearGradient id="paint40_linear_3_2898" x1="17.7887" y1="37.5196" x2="18.3538" y2="47.2505" gradientUnits="userSpaceOnUse">
<stop stop-color="#FCB148"/>
<stop offset="0.05" stop-color="#FDB946"/>
<stop offset="0.14" stop-color="#FEC144"/>
<stop offset="0.32" stop-color="#FFC444"/>
<stop offset="0.48" stop-color="#FDB946"/>
<stop offset="0.78" stop-color="#F99C4C"/>
<stop offset="0.87" stop-color="#F8924F"/>
<stop offset="1" stop-color="#F8924F"/>
</linearGradient>
<linearGradient id="paint41_linear_3_2898" x1="58.6543" y1="86.4631" x2="58.0217" y2="87.0138" gradientUnits="userSpaceOnUse">
<stop stop-color="#AA80F9"/>
<stop offset="1" stop-color="#6165D7"/>
</linearGradient>
<linearGradient id="paint42_linear_3_2898" x1="58.2309" y1="87.6655" x2="55.876" y2="87.6655" gradientUnits="userSpaceOnUse">
<stop stop-color="#AA80F9"/>
<stop offset="1" stop-color="#6165D7"/>
</linearGradient>
<linearGradient id="paint43_linear_3_2898" x1="57.5467" y1="87.6952" x2="56.5599" y2="87.6952" gradientUnits="userSpaceOnUse">
<stop stop-color="#40447E"/>
<stop offset="1" stop-color="#3C3B6B"/>
</linearGradient>
<linearGradient id="paint44_linear_3_2898" x1="46.0475" y1="85.1506" x2="45.4149" y2="85.7013" gradientUnits="userSpaceOnUse">
<stop stop-color="#AA80F9"/>
<stop offset="1" stop-color="#6165D7"/>
</linearGradient>
<linearGradient id="paint45_linear_3_2898" x1="45.6236" y1="86.353" x2="43.2684" y2="86.353" gradientUnits="userSpaceOnUse">
<stop stop-color="#AA80F9"/>
<stop offset="1" stop-color="#6165D7"/>
</linearGradient>
<linearGradient id="paint46_linear_3_2898" x1="44.9407" y1="86.3829" x2="43.9539" y2="86.3829" gradientUnits="userSpaceOnUse">
<stop stop-color="#40447E"/>
<stop offset="1" stop-color="#3C3B6B"/>
</linearGradient>
<linearGradient id="paint47_linear_3_2898" x1="27.2472" y1="58.0894" x2="16.5867" y2="58.0894" gradientUnits="userSpaceOnUse">
<stop stop-color="#40447E"/>
<stop offset="1" stop-color="#3C3B6B"/>
</linearGradient>
<linearGradient id="paint48_linear_3_2898" x1="47.5931" y1="90.5438" x2="46.9605" y2="91.0945" gradientUnits="userSpaceOnUse">
<stop stop-color="#AA80F9"/>
<stop offset="1" stop-color="#6165D7"/>
</linearGradient>
<linearGradient id="paint49_linear_3_2898" x1="47.1709" y1="91.7463" x2="44.816" y2="91.7463" gradientUnits="userSpaceOnUse">
<stop stop-color="#AA80F9"/>
<stop offset="1" stop-color="#6165D7"/>
</linearGradient>
<linearGradient id="paint50_linear_3_2898" x1="46.4857" y1="91.7761" x2="45.4989" y2="91.7761" gradientUnits="userSpaceOnUse">
<stop stop-color="#40447E"/>
<stop offset="1" stop-color="#3C3B6B"/>
</linearGradient>
<linearGradient id="paint51_linear_3_2898" x1="36.6778" y1="89.4883" x2="36.0449" y2="90.039" gradientUnits="userSpaceOnUse">
<stop stop-color="#AA80F9"/>
<stop offset="1" stop-color="#6165D7"/>
</linearGradient>
<linearGradient id="paint52_linear_3_2898" x1="36.256" y1="90.6907" x2="33.9008" y2="90.6907" gradientUnits="userSpaceOnUse">
<stop stop-color="#AA80F9"/>
<stop offset="1" stop-color="#6165D7"/>
</linearGradient>
<linearGradient id="paint53_linear_3_2898" x1="35.5715" y1="90.7208" x2="34.5847" y2="90.7208" gradientUnits="userSpaceOnUse">
<stop stop-color="#40447E"/>
<stop offset="1" stop-color="#3C3B6B"/>
</linearGradient>
<linearGradient id="paint54_linear_3_2898" x1="31.4808" y1="59.4767" x2="24.0742" y2="53.1769" gradientUnits="userSpaceOnUse">
<stop stop-color="#AA80F9"/>
<stop offset="1" stop-color="#6165D7"/>
</linearGradient>
<linearGradient id="paint55_linear_3_2898" x1="43.0439" y1="56.2257" x2="31.5277" y2="75.3871" gradientUnits="userSpaceOnUse">
<stop stop-color="#AA80F9"/>
<stop offset="1" stop-color="#6165D7"/>
</linearGradient>
<linearGradient id="paint56_linear_3_2898" x1="17.3996" y1="57.8866" x2="27.8294" y2="64.4539" gradientUnits="userSpaceOnUse">
<stop stop-color="#AA80F9"/>
<stop offset="1" stop-color="#6165D7"/>
</linearGradient>
<linearGradient id="paint57_linear_3_2898" x1="52.5139" y1="66.9605" x2="43.353" y2="62.4762" gradientUnits="userSpaceOnUse">
<stop stop-color="#FF9085"/>
<stop offset="1" stop-color="#FB6FBB"/>
</linearGradient>
<linearGradient id="paint58_linear_3_2898" x1="34.9319" y1="67.5877" x2="39.8703" y2="71.7705" gradientUnits="userSpaceOnUse">
<stop stop-color="#FF9085"/>
<stop offset="1" stop-color="#FB6FBB"/>
</linearGradient>
<linearGradient id="paint59_linear_3_2898" x1="37.8802" y1="68.8049" x2="51.2091" y2="73.0787" gradientUnits="userSpaceOnUse">
<stop stop-color="#FF9085"/>
<stop offset="1" stop-color="#FB6FBB"/>
</linearGradient>
<linearGradient id="paint60_linear_3_2898" x1="25.7679" y1="58.5067" x2="24.0357" y2="55.5184" gradientUnits="userSpaceOnUse">
<stop stop-color="#FCB148"/>
<stop offset="0.05" stop-color="#FDB946"/>
<stop offset="0.14" stop-color="#FEC144"/>
<stop offset="0.32" stop-color="#FFC444"/>
<stop offset="0.48" stop-color="#FDB946"/>
<stop offset="0.78" stop-color="#F99C4C"/>
<stop offset="0.87" stop-color="#F8924F"/>
<stop offset="1" stop-color="#F8924F"/>
</linearGradient>
<linearGradient id="paint61_linear_3_2898" x1="22.0649" y1="56.7923" x2="19.0128" y2="58.9098" gradientUnits="userSpaceOnUse">
<stop stop-color="#FCB148"/>
<stop offset="0.05" stop-color="#FDB946"/>
<stop offset="0.14" stop-color="#FEC144"/>
<stop offset="0.32" stop-color="#FFC444"/>
<stop offset="0.48" stop-color="#FDB946"/>
<stop offset="0.78" stop-color="#F99C4C"/>
<stop offset="0.87" stop-color="#F8924F"/>
<stop offset="1" stop-color="#F8924F"/>
</linearGradient>
<linearGradient id="paint62_linear_3_2898" x1="50.5666" y1="21.2845" x2="30.667" y2="36.9156" gradientUnits="userSpaceOnUse">
<stop stop-color="#FF9085"/>
<stop offset="1" stop-color="#FB6FBB"/>
</linearGradient>
<linearGradient id="paint63_linear_3_2898" x1="50.5666" y1="21.2845" x2="30.667" y2="36.9156" gradientUnits="userSpaceOnUse">
<stop stop-color="#D52817"/>
<stop offset="1" stop-color="#F3C1A5"/>
</linearGradient>
<linearGradient id="paint64_linear_3_2898" x1="50.5917" y1="20.8473" x2="30.2818" y2="36.895" gradientUnits="userSpaceOnUse">
<stop stop-color="#F5321F"/>
<stop offset="1" stop-color="#ED168B"/>
</linearGradient>
<linearGradient id="paint65_linear_3_2898" x1="53.3448" y1="40.881" x2="45.4098" y2="46.9898" gradientUnits="userSpaceOnUse">
<stop stop-color="#F5321F"/>
<stop offset="1" stop-color="#ED168B"/>
</linearGradient>
<linearGradient id="paint66_linear_3_2898" x1="45.9021" y1="28.9026" x2="38.9234" y2="36.4873" gradientUnits="userSpaceOnUse">
<stop stop-color="#F5321F"/>
<stop offset="1" stop-color="#ED168B"/>
</linearGradient>
<linearGradient id="paint67_linear_3_2898" x1="44.1306" y1="21.2873" x2="27.4176" y2="29.9302" gradientUnits="userSpaceOnUse">
<stop stop-color="#F5321F"/>
<stop offset="1" stop-color="#ED168B"/>
</linearGradient>
<linearGradient id="paint68_linear_3_2898" x1="44.1613" y1="20.8471" x2="26.9372" y2="29.9273" gradientUnits="userSpaceOnUse">
<stop stop-color="#F5321F"/>
<stop offset="1" stop-color="#ED168B"/>
</linearGradient>
<linearGradient id="paint69_linear_3_2898" x1="51.0706" y1="34.0083" x2="45.3812" y2="38.2978" gradientUnits="userSpaceOnUse">
<stop stop-color="#F5321F"/>
<stop offset="1" stop-color="#ED168B"/>
</linearGradient>
<linearGradient id="paint70_linear_3_2898" x1="51.0221" y1="33.6531" x2="44.9125" y2="38.3836" gradientUnits="userSpaceOnUse">
<stop stop-color="#F5321F"/>
<stop offset="1" stop-color="#ED168B"/>
</linearGradient>
</defs>
</svg>
