<svg width="112" height="105" viewBox="0 0 112 105" fill="none" xmlns="http://www.w3.org/2000/svg">
<path d="M58.0339 0.8435C29.6719 0.0461067 5.10379 19.6417 1.39205 45.3531C-2.66641 73.4653 19.6699 98.7592 47.1539 102.81C81.3391 107.849 114.497 78.698 111.52 47.0731C109.277 23.2465 86.865 1.65443 58.0339 0.8435Z" fill="#F4F7FA"/>
<path d="M61.9324 88.6681C61.1385 88.7024 59.38 88.1013 58.9885 87.762C56.3831 85.5049 51.2206 81.5845 50.7983 78.035C50.7263 77.4286 53.4026 76.4022 53.692 75.7857C55.2339 74.7314 55.8365 74.458 56.7921 72.7605C59.6141 67.749 49.8614 60.8824 58.9394 56.3553C65.5888 53.0393 71.955 54.375 69.2866 43.9581C66.6181 33.5412 71.7949 12.8624 84.661 18.2689C92.0448 21.3719 86.9516 31.4744 91.5562 37.5131C95.9318 43.2513 94.1102 48.8921 87.8784 53.8326C81.647 58.7734 85.8667 61.0486 88.9594 66.6819C92.6743 73.4485 81.4736 76.6516 76.1721 77.7047C71.9028 78.5525 61.6243 83.4926 61.9324 88.6678V88.6681Z" fill="#C8DCFF"/>
<path d="M48.875 77.4244C51.4328 82.085 53.8372 86.9292 56.3869 91.6361C59.4909 91.3585 63.1349 90.9587 63.1536 87.2113C63.1793 82.0012 71.909 78.5193 76.1794 77.6941C81.465 76.6725 92.677 73.4397 88.9594 66.6807C85.8647 61.0538 81.6469 58.7715 87.8787 53.8321C94.1102 48.8928 95.9302 43.252 91.5558 37.5127C86.9523 31.4732 92.0447 21.3752 84.6605 18.2688C71.7945 12.8559 66.6168 33.5524 69.2873 43.9535C71.9577 54.3546 65.581 53.0851 58.9413 56.3428C49.8765 60.7901 59.579 67.949 56.8022 72.66C54.6253 76.3532 52.3413 76.1317 48.875 77.4241V77.4244Z" fill="#C8DCFF"/>
<g style="mix-blend-mode:soft-light" opacity="0.8">
<g style="mix-blend-mode:soft-light">
<path d="M55.036 83.1724L54.9557 83.0652C76.0439 68.321 85.7868 43.0944 81.0182 15.5847L81.1534 15.5629C83.4124 28.5954 82.3579 41.6098 78.1039 53.1994C75.9126 59.1697 72.8904 64.7127 69.121 69.675C65.1985 74.8393 60.4594 79.3803 55.036 83.1724Z" fill="#C8DCFF"/>
</g>
<g style="mix-blend-mode:soft-light">
<path d="M65.9624 73.3806L65.9008 73.2625C72.5908 70.0214 83.7875 68.1893 90.86 69.1778L90.8406 69.3086C83.7914 68.3236 72.6313 70.1504 65.9624 73.3806Z" fill="#C8DCFF"/>
</g>
<g style="mix-blend-mode:soft-light">
<path d="M59.137 80.2359L59.0291 80.1547C61.419 77.2013 62.1705 73.1959 61.2636 68.2494C60.5986 64.6243 59.075 60.5873 56.7341 56.2502L56.8557 56.1892C59.2028 60.5384 60.7311 64.5882 61.3984 68.2265C62.3127 73.2113 61.5515 77.2521 59.137 80.2359Z" fill="#C8DCFF"/>
</g>
<g style="mix-blend-mode:soft-light">
<path d="M78.6446 51.5275L78.5324 51.4515C82.7323 45.6723 89.9454 43.097 95.2571 41.9547L95.2867 42.0837C89.9988 43.2211 82.8191 45.7829 78.6442 51.5275H78.6446Z" fill="#C8DCFF"/>
</g>
<g style="mix-blend-mode:soft-light">
<path d="M82.0324 35.7004L81.896 35.7136C81.0651 27.7901 75.1531 21.6836 71.7027 18.7491L71.7935 18.6498C75.2586 21.5971 81.1967 27.7318 82.0324 35.7004Z" fill="#C8DCFF"/>
</g>
</g>
<path d="M101.916 44.4116C101.916 48.1045 98.9249 51.0093 95.1025 50.8961C91.1247 50.778 87.7791 47.4609 87.7791 43.4916C87.7791 39.5223 91.1247 36.6408 95.1025 37.0406C98.9249 37.425 101.916 40.7192 101.916 44.412V44.4116Z" fill="url(#paint0_linear_3_3095)"/>
<path d="M102.948 44.0931C102.948 47.7859 99.9569 50.6908 96.1345 50.5776C92.1567 50.4595 88.8111 47.1424 88.8111 43.1731C88.8111 39.2038 92.1567 36.3219 96.1345 36.7221C99.9569 37.1065 102.948 40.4007 102.948 44.0935V44.0931Z" fill="url(#paint1_linear_3_3095)"/>
<path d="M102.648 44.0736C102.648 47.6035 99.7871 50.376 96.1354 50.262C92.3422 50.1435 89.1575 46.9776 89.1575 43.1957C89.1575 39.4137 92.3422 36.6623 96.1354 37.0377C99.7867 37.3988 102.648 40.5436 102.648 44.0739V44.0736Z" fill="url(#paint2_linear_3_3095)"/>
<path d="M102.434 44.0596C102.434 47.4733 99.6649 50.151 96.1359 50.0363C92.4744 49.9174 89.4039 46.8603 89.4039 43.2114C89.4039 39.5626 92.4744 36.9049 96.1359 37.263C99.6653 37.6079 102.434 40.6459 102.434 44.0596Z" fill="url(#paint3_linear_3_3095)"/>
<path d="M96.0995 38.4241C96.2873 38.4414 96.4392 38.6046 96.4392 38.7886V39.4171C96.8148 39.4577 97.1907 39.5205 97.5674 39.6059C97.8452 39.6691 98.121 39.7439 98.3948 39.8308C98.5588 39.8831 98.671 40.0429 98.6543 40.2081L98.5744 40.9961C98.5534 41.2052 98.3391 41.3278 98.1377 41.2413C97.9574 41.1634 97.7723 41.0969 97.5826 41.0416C97.2519 40.9449 96.9028 40.8817 96.5355 40.8527L96.4396 40.8452V42.6454C97.4194 42.9102 98.1389 43.266 98.6036 43.714C99.0664 44.1597 99.2971 44.7152 99.2971 45.3817C99.2971 46.1028 99.0423 46.6801 98.5304 47.1157C98.0158 47.5535 97.2943 47.7998 96.3617 47.8529V48.5465C96.3617 48.7308 96.2098 48.8741 96.0216 48.8669H96.0158C95.8276 48.8594 95.6745 48.7037 95.6745 48.519V47.8348L95.523 47.8281C95.0855 47.8089 94.6667 47.766 94.2667 47.6987C93.9702 47.649 93.6808 47.5847 93.3983 47.5057C93.2277 47.4579 93.1104 47.3011 93.126 47.1322L93.2199 46.1189C93.2402 45.9 93.468 45.7725 93.6839 45.8545C93.9351 45.9504 94.1899 46.0309 94.4474 46.0964C94.849 46.1987 95.2558 46.2641 95.6683 46.2935L95.6745 44.2913C94.7341 44.0668 94.0302 43.7339 93.5674 43.2931C93.1026 42.8504 92.8693 42.2835 92.8693 41.5945C92.8693 40.9054 93.1221 40.3311 93.6258 39.9444C94.1272 39.56 94.8397 39.3689 95.7587 39.3693V38.7269C95.7587 38.5422 95.9114 38.4064 96.0995 38.4237V38.4241ZM95.7587 40.8268C95.4681 40.8471 95.2413 40.9242 95.0793 41.0581C94.9168 41.192 94.8354 41.3722 94.8354 41.5986C94.8354 41.8126 94.9106 41.992 95.061 42.1357C95.211 42.2794 95.4439 42.3937 95.7587 42.4795V40.8272V40.8268ZM96.3613 44.4523V46.2886C96.6773 46.2893 96.9196 46.2163 97.0886 46.0704C97.2573 45.9245 97.3419 45.7187 97.3419 45.4524C97.3419 45.2095 97.2636 45.0082 97.1066 44.848C96.9496 44.6878 96.7014 44.5557 96.3613 44.4527V44.4523Z" fill="url(#paint4_linear_3_3095)"/>
<path style="mix-blend-mode:multiply" opacity="0.3" d="M94.996 44.8957C95.2087 42.8665 97.1402 42.0075 96.8881 40.1411C96.7327 38.9905 95.8297 38.0212 94.8223 37.2641C91.7666 37.5736 89.4039 40.0166 89.4039 43.2118C89.4039 46.8606 92.4744 49.9182 96.1359 50.0367C96.4916 50.0483 96.8387 50.0303 97.176 49.9878C95.7218 48.5908 94.8133 46.6391 94.996 44.8961V44.8957Z" fill="url(#paint5_linear_3_3095)"/>
<path d="M105.755 24.8327C105.755 29.2812 102.153 32.7807 97.5477 32.6445C92.7553 32.5023 88.7249 28.5063 88.7249 23.7242C88.7249 18.9421 92.7553 15.4708 97.5477 15.9527C102.152 16.4157 105.755 20.3842 105.755 24.8327Z" fill="url(#paint6_linear_3_3095)"/>
<path d="M107 24.449C107 28.8975 103.397 32.397 98.7919 32.2604C93.9995 32.1183 89.9691 28.1223 89.9691 23.3402C89.9691 18.5581 93.9995 15.0868 98.7919 15.5686C103.396 16.0316 107 20.0001 107 24.4486V24.449Z" fill="url(#paint7_linear_3_3095)"/>
<path d="M106.639 24.4257C106.639 28.6786 103.192 32.0183 98.7932 31.8806C94.2236 31.7377 90.3868 27.9241 90.3868 23.3677C90.3868 18.8112 94.2236 15.4972 98.7932 15.9493C103.192 16.3845 106.639 20.1728 106.639 24.4257Z" fill="url(#paint8_linear_3_3095)"/>
<path d="M106.38 24.4087C106.38 28.5213 103.045 31.747 98.7933 31.609C94.3823 31.466 90.6834 27.7826 90.6834 23.3868C90.6834 18.991 94.3823 15.7894 98.7933 16.2204C103.045 16.636 106.38 20.2961 106.38 24.4083V24.4087Z" fill="url(#paint9_linear_3_3095)"/>
<path d="M98.7484 17.6195C98.9747 17.6402 99.1578 17.8369 99.1578 18.0589V18.816C99.6101 18.8649 100.063 18.9409 100.517 19.0436C100.852 19.1195 101.184 19.2098 101.514 19.3147C101.712 19.3776 101.847 19.5701 101.826 19.7691L101.73 20.7185C101.704 20.9705 101.446 21.1183 101.204 21.0137C100.986 20.9201 100.764 20.84 100.535 20.7734C100.136 20.6568 99.7161 20.5812 99.2735 20.5458L99.1578 20.5368V22.7052C100.338 23.0241 101.205 23.4529 101.765 23.9923C102.323 24.529 102.6 25.1982 102.6 26.0016C102.6 26.8704 102.293 27.5659 101.677 28.0906C101.057 28.6179 100.188 28.9147 99.0639 28.979V29.8148C99.0639 30.0367 98.8808 30.2097 98.6541 30.201H98.6467C98.42 30.192 98.2357 30.0043 98.2357 29.7817V28.9572L98.0534 28.9493C97.5267 28.9263 97.0218 28.8744 96.5396 28.7936C96.1823 28.7338 95.8337 28.6563 95.4936 28.5611C95.2879 28.5036 95.1465 28.3144 95.1656 28.1113L95.279 26.8907C95.3035 26.6271 95.5777 26.4732 95.838 26.5722C96.141 26.6876 96.4476 26.7847 96.7581 26.8637C97.242 26.9866 97.732 27.066 98.2291 27.101L98.2365 24.6889C97.1037 24.4181 96.2552 24.0175 95.6981 23.4864C95.1383 22.953 94.8574 22.27 94.8574 21.4399C94.8574 20.6098 95.1621 19.9177 95.769 19.452C96.3728 18.989 97.2314 18.7585 98.3386 18.7592V17.9851C98.3386 17.7625 98.5228 17.5989 98.7496 17.6199L98.7484 17.6195ZM98.3374 20.5142C97.9872 20.5387 97.7141 20.6316 97.5189 20.7929C97.3234 20.9543 97.2252 21.1713 97.2252 21.444C97.2252 21.702 97.316 21.9179 97.4971 22.091C97.6779 22.264 97.9584 22.402 98.3378 22.5051V20.5146L98.3374 20.5142ZM99.0635 24.8818V27.0938C99.4441 27.0946 99.7359 27.007 99.9397 26.8309C100.143 26.6553 100.245 26.407 100.245 26.0862C100.245 25.7936 100.15 25.551 99.9611 25.358C99.7718 25.1647 99.473 25.006 99.0632 24.8815L99.0635 24.8818Z" fill="url(#paint10_linear_3_3095)"/>
<path style="mix-blend-mode:multiply" opacity="0.3" d="M97.42 25.4156C97.6763 22.9711 100.003 21.936 99.6997 19.6875C99.5127 18.3015 98.4247 17.1336 97.2108 16.2219C93.5294 16.5946 90.6829 19.5378 90.6829 23.3868C90.6829 27.7826 94.3818 31.4656 98.7928 31.6089C99.2209 31.6228 99.6393 31.6014 100.046 31.5499C98.2942 29.8667 97.1995 27.5159 97.4196 25.4156H97.42Z" fill="url(#paint11_linear_3_3095)"/>
<path d="M29.5907 60.0199C29.3647 60.0199 29.1715 59.854 29.1497 59.6325C28.7613 55.6989 27.4333 51.9617 25.4095 49.1088C23.6168 46.5816 21.4827 45.0733 19.6993 45.0733H19.6935C13.1987 45.0853 11.8399 59.4828 11.8271 59.6284C11.806 59.8638 11.5921 60.0383 11.3471 60.0184C11.1032 59.9981 10.9225 59.7908 10.9431 59.5554C10.9988 58.9295 12.3892 44.2311 19.6915 44.2172H19.6993C21.8061 44.2172 24.1536 45.8233 26.1407 48.6251C28.2479 51.5957 29.6296 55.4759 30.0321 59.5512C30.0554 59.7867 29.8766 59.9958 29.6328 60.018C29.6183 60.0191 29.6043 60.0199 29.5903 60.0199H29.5907Z" fill="url(#paint12_linear_3_3095)"/>
<path d="M2.53252 89.6509L11.0822 93.8301L16.2626 78.4818L7.72693 57.9049L5.30659 58.4777L1.63419 88.0298C1.55121 88.6985 1.91 89.3462 2.53252 89.6509Z" fill="url(#paint13_linear_3_3095)"/>
<path style="mix-blend-mode:multiply" opacity="0.52" d="M16.2627 78.4818L7.72699 57.9049L6.29925 58.243C6.10135 60.9903 6.18822 63.2516 6.32262 64.8979C6.89489 71.9037 8.79517 73.8531 7.87463 78.7405C7.10915 82.8042 5.43754 83.356 5.58362 86.0901C5.74295 89.0679 7.89372 91.5613 10.4512 93.5224L11.0819 93.8308L16.2623 78.4825L16.2627 78.4818Z" fill="url(#paint14_linear_3_3095)"/>
<path d="M7.72716 57.9049H39.6058L50.1559 90.7906L11.0825 93.8301L7.72716 57.9049Z" fill="url(#paint15_linear_3_3095)"/>
<path d="M17.6026 60.7237C17.4012 60.7237 17.2193 60.5905 17.1714 60.3931C17.0806 60.0203 14.9863 51.2084 17.9396 46.884C18.7861 45.6447 19.9684 44.8879 21.4546 44.6348C29.0889 43.336 33.7893 59.1676 33.9857 59.842C34.0519 60.0696 33.9144 60.3062 33.6787 60.3701C33.4426 60.4344 33.198 60.3013 33.1317 60.0737C33.0858 59.9161 28.4589 44.3102 21.6085 45.4781C20.3549 45.6913 19.3969 46.3055 18.6802 47.3553C15.9349 51.3754 18.0136 60.1098 18.035 60.1979C18.0911 60.428 17.9431 60.6582 17.7047 60.7124C17.6708 60.7203 17.6365 60.7237 17.603 60.7237H17.6026Z" fill="url(#paint16_linear_3_3095)"/>
<g style="mix-blend-mode:multiply" opacity="0.3">
<path style="mix-blend-mode:multiply" d="M39.606 57.9049H23.7913C23.0114 58.6711 22.4578 59.5538 22.4049 60.5442C22.1563 65.1969 33.2347 66.7255 34.3033 73.1024C35.0738 77.7024 30.3317 83.0104 26.1002 85.3751C21.6421 87.8666 18.6214 86.6046 15.6062 89.3711C14.2813 90.5863 13.4745 92.1063 12.995 93.6815L50.1569 90.7906L39.6064 57.9053L39.606 57.9049Z" fill="url(#paint17_linear_3_3095)"/>
</g>
<path d="M18.4827 61.6344C18.9667 61.1671 18.9667 60.4096 18.4827 59.9423C17.9988 59.4751 17.2142 59.4751 16.7302 59.9423C16.2463 60.4096 16.2463 61.1671 16.7302 61.6344C17.2142 62.1016 17.9988 62.1016 18.4827 61.6344Z" fill="url(#paint18_linear_3_3095)"/>
<path d="M34.6426 61.5231C35.1266 61.0558 35.1266 60.2983 34.6426 59.831C34.1587 59.3638 33.3741 59.3638 32.8901 59.831C32.4062 60.2983 32.4062 61.0558 32.8901 61.5231C33.3741 61.9903 34.1587 61.9903 34.6426 61.5231Z" fill="url(#paint19_linear_3_3095)"/>
<path d="M66.4334 9.72576C69.7045 36.4181 72.9753 62.8314 76.2465 88.9667C76.3933 90.1383 75.555 91.1746 74.3816 91.2712C61.2359 92.4752 48.0897 93.7059 34.9436 94.9629C32.5984 95.0728 31.3109 93.8075 31.1597 92.541C27.7928 64.328 24.4262 35.8197 21.0592 7.01613C20.908 5.72262 22.0432 4.61041 24.3884 4.72099C37.5992 5.63047 50.8096 6.52792 64.0205 7.41332C65.2016 7.48855 66.2865 8.52892 66.433 9.72614L66.4334 9.72576Z" fill="#26264F"/>
<path d="M68.2572 9.67123C71.5486 36.4798 74.8404 63.0063 78.1318 89.2507C78.2795 90.4264 77.4361 91.4687 76.2553 91.5657C62.605 92.6817 48.9544 93.8199 35.3042 94.9806C34.0583 95.0874 32.9134 94.1347 32.7615 92.8622C29.3735 64.5198 25.9855 35.8791 22.5974 6.93903C22.4455 5.63988 23.3485 4.64276 24.6025 4.72476C38.3447 5.60979 52.0869 6.48429 65.8291 7.34825C67.0176 7.42461 68.1092 8.46874 68.2568 9.67123H68.2572Z" fill="url(#paint20_linear_3_3095)"/>
<path d="M67.4648 14.0569C70.5135 38.895 73.5622 63.4904 76.6109 87.8443C76.7488 88.9449 75.9604 89.9172 74.8575 90.0037C62.0199 91.0174 49.1827 92.0502 36.345 93.1026C35.1853 93.1985 34.1187 92.3067 33.9773 91.1242C30.8448 64.946 27.712 38.5121 24.5795 11.8231C24.4381 10.6157 25.2784 9.68104 26.4455 9.74799C39.363 10.4743 52.2805 11.1931 65.1979 11.9036C66.3078 11.9649 67.3277 12.9349 67.4652 14.0569H67.4648Z" fill="url(#paint21_linear_3_3095)"/>
<path style="mix-blend-mode:multiply" opacity="0.35" d="M65.1983 11.904C52.4339 11.2014 39.6695 10.4913 26.9052 9.77402C27.2998 11.9646 27.9878 14.3485 29.1479 16.7787C33.382 25.6478 39.6018 26.136 42.0354 33.8647C44.5426 41.827 38.8885 44.3188 41.6505 51.5078C44.6478 59.3087 51.9992 58.1795 55.8843 66.7365C59.2333 74.112 54.9221 77.4832 58.3849 81.9652C62.1804 86.8778 69.2022 85.2123 76.4906 86.8759C73.482 62.8383 70.4738 38.5659 67.4652 14.057C67.3277 12.935 66.3078 11.965 65.1979 11.9037L65.1983 11.904Z" fill="url(#paint22_linear_3_3095)"/>
<path d="M46.5539 8.62969C46.6057 9.06149 46.3053 9.39211 45.8823 9.36879C45.4592 9.34396 45.0739 8.97272 45.0221 8.53867C44.9703 8.10612 45.271 7.77363 45.6945 7.80033C46.1176 7.82553 46.502 8.19715 46.5542 8.62969H46.5539Z" fill="#DE8BDF"/>
<path d="M51.1652 32.6325C52.7969 32.6325 54.1196 31.1258 54.1196 29.2673C54.1196 27.4087 52.7969 25.902 51.1652 25.902C49.5335 25.902 48.2108 27.4087 48.2108 29.2673C48.2108 31.1258 49.5335 32.6325 51.1652 32.6325Z" fill="url(#paint23_linear_3_3095)"/>
<path d="M62.9252 32.6325C64.5568 32.6325 65.8796 31.1258 65.8796 29.2673C65.8796 27.4087 64.5568 25.902 62.9252 25.902C61.2935 25.902 59.9707 27.4087 59.9707 29.2673C59.9707 31.1258 61.2935 32.6325 62.9252 32.6325Z" fill="url(#paint24_linear_3_3095)"/>
<path d="M57.0118 32.6325C58.6667 32.6325 60.0083 31.1258 60.0083 29.2673C60.0083 27.4087 58.6667 25.902 57.0118 25.902C55.3568 25.902 54.0153 27.4087 54.0153 29.2673C54.0153 31.1258 55.3568 32.6325 57.0118 32.6325Z" fill="#D8DEE8"/>
<path d="M74.6851 32.6325C76.3168 32.6325 77.6396 31.1258 77.6396 29.2673C77.6396 27.4087 76.3168 25.902 74.6851 25.902C73.0534 25.902 71.7307 27.4087 71.7307 29.2673C71.7307 31.1258 73.0534 32.6325 74.6851 32.6325Z" fill="url(#paint25_linear_3_3095)"/>
<path d="M71.7698 29.2673C71.7698 31.1257 70.4282 32.6325 68.7733 32.6325C67.1185 32.6325 65.7768 31.1257 65.7768 29.2673C65.7768 27.4088 67.1185 25.902 68.7733 25.902C70.4282 25.902 71.7698 27.4088 71.7698 29.2673Z" fill="#D8DEE8"/>
<path d="M80.5333 32.6325C82.1882 32.6325 83.5298 31.1258 83.5298 29.2673C83.5298 27.4087 82.1882 25.902 80.5333 25.902C78.8784 25.902 77.5368 27.4087 77.5368 29.2673C77.5368 31.1258 78.8784 32.6325 80.5333 32.6325Z" fill="#D8DEE8"/>
<path d="M45.2523 32.6325C46.9073 32.6325 48.2488 31.1258 48.2488 29.2673C48.2488 27.4087 46.9073 25.902 45.2523 25.902C43.5974 25.902 42.2558 27.4087 42.2558 29.2673C42.2558 31.1258 43.5974 32.6325 45.2523 32.6325Z" fill="#D8DEE8"/>
<path d="M23.9869 9.41486L42.3201 29.7232H89.6382L66.7094 11.9872L23.9869 9.41486Z" fill="url(#paint26_linear_3_3095)"/>
<path d="M23.9869 9.41486L42.3201 29.7232H48.2488L28.9184 9.71201L23.9869 9.41486Z" fill="#F4F7FA"/>
<path d="M34.2139 10.0305L54.0921 29.723H59.9487L39.5482 10.3517L34.2139 10.0305Z" fill="#F4F7FA"/>
<path d="M44.9225 10.6751L65.8198 29.723H71.7045L50.337 11.0012L44.9225 10.6751Z" fill="#F4F7FA"/>
<path d="M61.2899 11.6607L55.792 11.3297L77.6028 29.7232H83.5163L61.2899 11.6607Z" fill="#F4F7FA"/>
<path d="M83.5225 29.7231C83.7181 31.3656 84.951 32.6328 86.4466 32.6328C87.9421 32.6328 89.175 31.3656 89.3706 29.7231H83.5221H83.5225Z" fill="url(#paint27_linear_3_3095)"/>
<g opacity="0.8">
<g style="mix-blend-mode:multiply" opacity="0.35">
<path style="mix-blend-mode:multiply" d="M68.3144 69.1114C68.3811 69.8741 67.8053 70.5158 67.0277 70.5467L38.5316 71.6754C37.6941 71.7085 36.9251 71.0947 36.816 70.3026L35.9991 64.3815C35.8873 63.5721 36.4876 62.8943 37.3384 62.8702L66.2677 62.0424C67.0569 62.0198 67.7504 62.6344 67.8181 63.413L68.3144 69.111V69.1114Z" fill="url(#paint28_linear_3_3095)"/>
<path style="mix-blend-mode:multiply" d="M68.851 75.2723C68.9161 76.0201 68.3462 76.6546 67.5768 76.6911L39.3928 78.032C38.5646 78.0715 37.8053 77.4757 37.6982 76.6997L37.6171 76.113C37.5096 75.3336 38.099 74.6709 38.9319 74.6348L67.2827 73.4067C68.0563 73.3733 68.7357 73.9563 68.8012 74.707L68.8503 75.2723H68.851Z" fill="url(#paint29_linear_3_3095)"/>
</g>
<g style="mix-blend-mode:multiply" opacity="0.3">
<path style="mix-blend-mode:multiply" d="M62.7318 46.882L37.9335 47.0709C37.5162 47.0739 37.1368 46.773 37.0869 46.398L36.8742 44.7968C36.824 44.4195 37.1243 44.1134 37.5439 44.1134L62.4739 44.1141C62.8405 44.1141 63.1634 44.3996 63.1958 44.7513L63.3333 46.2441C63.3656 46.5939 63.0964 46.8794 62.7314 46.882H62.7318Z" fill="url(#paint30_linear_3_3095)"/>
<path style="mix-blend-mode:multiply" d="M39.0008 47.6606L42.168 55.3897C42.3651 55.8708 42.8937 56.195 43.4496 56.1773L59.678 55.6646C60.186 55.6485 60.5962 55.3107 60.6741 54.8451L61.911 47.4504L39.0008 47.6602V47.6606ZM46.1173 54.8639C46.1536 55.1666 45.912 55.4198 45.577 55.4296L44.9977 55.4469C44.6612 55.457 44.3573 55.2189 44.3199 54.9146L43.5832 48.9319C43.5451 48.622 43.7913 48.3674 44.1321 48.3636L44.7192 48.3572C45.0585 48.3534 45.3635 48.6009 45.4009 48.9094L46.1173 54.8642V54.8639ZM49.3215 54.7732C49.3562 55.0734 49.1174 55.3242 48.7882 55.334L48.2186 55.3509C47.8879 55.3607 47.5899 55.1245 47.5544 54.8232L46.854 48.8909C46.8178 48.5836 47.0605 48.3309 47.3959 48.3275L47.9728 48.3211C48.3067 48.3173 48.6055 48.5626 48.6405 48.8687L49.3211 54.7736L49.3215 54.7732ZM52.4719 54.6841C52.5046 54.9816 52.2689 55.2306 51.9452 55.2404L51.385 55.2569C51.0597 55.2667 50.7679 55.0324 50.734 54.7333L50.0691 48.8507C50.0348 48.546 50.2744 48.2955 50.6039 48.2918L51.1711 48.2854C51.4991 48.2816 51.7921 48.525 51.8256 48.8285L52.4715 54.6841H52.4719ZM55.5701 54.5964C55.6012 54.8917 55.3687 55.1384 55.05 55.1478L54.4992 55.1644C54.1793 55.1738 53.8934 54.9413 53.8611 54.645L53.2304 48.8108C53.1976 48.5084 53.4345 48.2605 53.7586 48.2568L54.3165 48.2508C54.639 48.247 54.9261 48.4885 54.9577 48.7894L55.5697 54.5968L55.5701 54.5964ZM58.6172 54.5099C58.6468 54.8026 58.417 55.0474 58.1038 55.0568L57.5623 55.073C57.2475 55.0824 56.9674 54.8518 56.937 54.5577L56.3395 48.7717C56.3087 48.4719 56.5424 48.2259 56.8611 48.2222L57.4096 48.2162C57.7267 48.2128 58.0079 48.452 58.0379 48.7503L58.6176 54.5099H58.6172Z" fill="url(#paint31_linear_3_3095)"/>
<g style="mix-blend-mode:multiply">
<g style="mix-blend-mode:multiply">
<path style="mix-blend-mode:multiply" d="M41.312 43.3062C40.963 43.6127 40.3689 43.5751 39.984 43.2212C39.5983 42.8661 39.5703 42.3282 39.9217 42.0209C40.273 41.714 40.8687 41.7546 41.252 42.1104C41.6342 42.4655 41.6607 43.0004 41.312 43.3065V43.3062Z" fill="url(#paint32_linear_3_3095)"/>
<path style="mix-blend-mode:multiply" d="M48.5584 35.7096C48.4158 35.57 48.1552 35.5836 47.9764 35.7404L40.6819 42.1256C40.4988 42.2858 40.4707 42.5276 40.6195 42.6649C40.7679 42.8022 41.0364 42.7834 41.2191 42.6236L48.4934 36.2455C48.6718 36.0891 48.701 35.8491 48.5588 35.7099L48.5584 35.7096Z" fill="url(#paint33_linear_3_3095)"/>
</g>
<g style="mix-blend-mode:multiply">
<path style="mix-blend-mode:multiply" d="M58.9432 43.3438C59.3241 43.6372 59.8536 43.603 60.1266 43.2682C60.3997 42.9338 60.314 42.4246 59.935 42.1301C59.5548 41.8344 59.023 41.8664 58.7484 42.2023C58.4733 42.5382 58.561 43.0497 58.9428 43.3442L58.9432 43.3438Z" fill="url(#paint34_linear_3_3095)"/>
<path style="mix-blend-mode:multiply" d="M50.4108 35.7509C50.5215 35.6178 50.7833 35.643 50.9952 35.8073L59.2706 42.2218C59.4697 42.376 59.5449 42.6062 59.4389 42.736C59.333 42.8658 59.0852 42.8462 58.8858 42.692L50.5947 36.2888C50.3824 36.1248 50.2998 35.8837 50.4108 35.7505V35.7509Z" fill="url(#paint35_linear_3_3095)"/>
</g>
</g>
</g>
<path d="M68.7992 68.6433C68.8659 69.4061 68.2901 70.0481 67.5125 70.0786L39.0165 71.2074C38.1789 71.2405 37.4099 70.6266 37.3008 69.8345L36.4839 63.9135C36.3721 63.104 36.9724 62.4263 37.8232 62.4022L66.7525 61.5743C67.5417 61.5518 68.2352 62.166 68.3029 62.9449L68.7996 68.6429L68.7992 68.6433Z" fill="white"/>
<path d="M69.3354 74.8043C69.4004 75.552 68.8305 76.1865 68.0611 76.223L39.8771 77.5639C39.0489 77.6034 38.2896 77.0076 38.1825 76.2317L38.1015 75.6449C37.994 74.8656 38.5834 74.2028 39.4162 74.1667L67.767 72.9387C68.5407 72.9052 69.2201 73.4882 69.2855 74.2389L69.3346 74.8043H69.3354Z" fill="white"/>
<path d="M63.0655 46.5604L38.2672 46.7492C37.85 46.7523 37.4705 46.4514 37.4207 46.0764L37.208 44.4752C37.1577 44.0979 37.4581 43.7917 37.8776 43.7917L62.8076 43.7925C63.1742 43.7925 63.4972 44.078 63.5295 44.4297L63.667 45.9225C63.6993 46.2723 63.4302 46.5578 63.0651 46.5604H63.0655Z" fill="white"/>
<path d="M39.3351 47.3392L42.5022 55.0682C42.6993 55.5493 43.228 55.8735 43.7839 55.8558L60.0123 55.3432C60.5202 55.327 60.9304 54.9892 61.0084 54.5236L62.2452 47.1289L39.3351 47.3388V47.3392ZM46.4516 54.5424C46.4878 54.8452 46.2463 55.0983 45.9113 55.1081L45.332 55.1254C44.9954 55.1356 44.6916 54.8975 44.6542 54.5932L43.9175 48.6105C43.8793 48.3005 44.1255 48.0459 44.4668 48.0421L45.0538 48.0358C45.3932 48.032 45.6982 48.2791 45.7356 48.5879L46.452 54.5428L46.4516 54.5424ZM49.6557 54.4518C49.6904 54.7519 49.4516 55.0028 49.1224 55.0126L48.5529 55.0295C48.2222 55.0393 47.9241 54.8031 47.8887 54.5018L47.1883 48.5695C47.152 48.2622 47.3947 48.0094 47.7301 48.006L48.3071 47.9996C48.6409 47.9959 48.9397 48.2411 48.9748 48.5473L49.6554 54.4521L49.6557 54.4518ZM52.8061 54.3626C52.8389 54.6601 52.6032 54.9091 52.2794 54.9189L51.7193 54.9355C51.394 54.9452 51.1022 54.7109 51.0683 54.4119L50.4033 48.5292C50.369 48.2246 50.6086 47.9741 50.9382 47.9703L51.5054 47.9639C51.8334 47.9602 52.1263 48.2035 52.1599 48.507L52.8057 54.3626H52.8061ZM55.9043 54.275C55.9355 54.5702 55.7029 54.817 55.3843 54.8264L54.8334 54.8429C54.5136 54.8523 54.2276 54.6199 54.1953 54.3235L53.5646 48.4894C53.5319 48.187 53.7687 47.9387 54.0929 47.9353L54.6507 47.9289C54.9733 47.9252 55.2604 48.1666 55.2919 48.4676L55.9039 54.275H55.9043ZM58.9515 54.1885C58.9811 54.4811 58.7512 54.726 58.438 54.7354L57.8965 54.7515C57.5818 54.7609 57.3017 54.5304 57.2713 54.2362L56.6737 48.4502C56.6429 48.1505 56.8767 47.9045 57.1953 47.9007L57.7438 47.8947C58.0609 47.8913 58.3422 48.1305 58.3722 48.4288L58.9519 54.1885H58.9515Z" fill="white"/>
<path d="M41.6461 42.9847C41.2971 43.2912 40.703 43.2536 40.3181 42.8997C39.9324 42.5446 39.9044 42.0067 40.2558 41.6994C40.6072 41.3925 41.2028 41.4331 41.5861 41.7889C41.9683 42.144 41.9948 42.6789 41.6461 42.985V42.9847Z" fill="white"/>
<path d="M48.892 35.3879C48.7494 35.2484 48.4888 35.2619 48.31 35.4188L41.0155 41.8039C40.8324 41.9641 40.8043 42.206 40.9531 42.3433C41.1016 42.4806 41.37 42.4618 41.5527 42.3019L48.8266 35.9239C49.005 35.7674 49.0342 35.5278 48.892 35.3883V35.3879Z" fill="white"/>
<path d="M59.2766 43.0222C59.6576 43.3156 60.187 43.2814 60.4601 42.9466C60.7332 42.6122 60.6475 42.103 60.2685 41.8085C59.8882 41.5128 59.3565 41.5448 59.0819 41.8807C58.8068 42.2166 58.8945 42.7281 59.2762 43.0226L59.2766 43.0222Z" fill="white"/>
<path d="M50.7444 35.4298C50.8551 35.2966 51.1169 35.3218 51.3288 35.4862L59.6042 41.9007C59.8033 42.0549 59.8785 42.2851 59.7725 42.4149C59.6666 42.5446 59.4188 42.5251 59.2194 42.3708L50.9283 35.9676C50.716 35.8036 50.6334 35.5625 50.7444 35.4294V35.4298Z" fill="white"/>
</g>
<path d="M34.6787 24.4647C34.6787 31.0515 29.3444 36.2331 22.5263 36.0307C15.4308 35.8204 9.46315 29.9036 9.46315 22.8233C9.46315 15.7431 15.4308 10.6033 22.5263 11.3164C29.3444 12.0017 34.6787 17.8776 34.6787 24.4644V24.4647Z" fill="url(#paint36_linear_3_3095)"/>
<path d="M36.5215 23.8968C36.5215 30.4835 31.1872 35.6651 24.3691 35.4627C17.2736 35.2525 11.3059 29.3356 11.3059 22.2553C11.3059 15.1751 17.2736 10.0353 24.3691 10.7484C31.1872 11.4337 36.5215 17.31 36.5215 23.8968Z" fill="url(#paint37_linear_3_3095)"/>
<g style="mix-blend-mode:soft-light">
<path d="M35.9863 23.8618C35.9863 30.1586 30.8823 35.1036 24.3692 34.8997C17.6033 34.6883 11.9223 29.0415 11.9223 22.2953C11.9223 15.549 17.6029 10.642 24.3692 11.3112C30.8823 11.9555 35.9863 17.5647 35.9863 23.8615V23.8618Z" fill="white"/>
</g>
<path d="M35.422 23.8251C35.422 29.3545 31.2841 33.7838 25.7796 34.28C25.3172 34.3221 24.8435 34.336 24.3632 34.3206C17.9338 34.1122 12.5423 28.743 12.5423 22.3364C12.5423 16.7651 16.6191 12.51 21.9109 11.9078C22.7036 11.8175 23.5256 11.8081 24.3636 11.8905C30.5591 12.4957 35.4224 17.8307 35.4224 23.8251H35.422Z" fill="url(#paint38_linear_3_3095)"/>
<path style="mix-blend-mode:multiply" opacity="0.4" d="M25.7796 34.2804C25.3172 34.3225 24.8435 34.3364 24.3632 34.321C17.9338 34.1126 12.5423 28.7434 12.5423 22.3368C12.5423 16.7656 16.6191 12.5104 21.9109 11.9082C23.6978 13.2555 25.2981 14.9793 25.5735 17.0221C26.0231 20.3516 22.5782 21.8839 22.1976 25.5027C21.8852 28.4884 23.3659 31.8145 25.7796 34.2804Z" fill="url(#paint39_linear_3_3095)"/>
<path d="M25.1917 30.1307C25.4745 29.2787 24.9884 28.3666 24.106 28.0936C23.2235 27.8205 22.2789 28.2898 21.9961 29.1418C21.7133 29.9938 22.1994 30.9059 23.0818 31.1789C23.9643 31.452 24.9089 30.9827 25.1917 30.1307Z" fill="white"/>
<path d="M23.5956 16.058C20.0904 16.058 16.885 17.297 14.4226 19.3454C13.9174 19.7659 13.8811 20.5088 14.3529 20.9643L14.4004 21.0102C14.82 21.4152 15.4943 21.445 15.9431 21.0703C17.9961 19.3582 20.67 18.3212 23.596 18.3212C26.522 18.3212 29.196 19.3582 31.249 21.0703C31.6981 21.445 32.3721 21.4152 32.7916 21.0102L32.8392 20.9643C33.3109 20.5088 33.2747 19.7655 32.7694 19.3454C30.307 17.297 27.1017 16.058 23.5964 16.058H23.5956Z" fill="white"/>
<path d="M23.5952 19.8294C21.1737 19.8294 18.9513 20.649 17.2064 22.0155C16.6844 22.4243 16.6509 23.1837 17.1266 23.643L17.1348 23.6509C17.5512 24.053 18.2107 24.0752 18.6696 23.7186C20.0175 22.6707 21.73 22.0426 23.5952 22.0426C25.4605 22.0426 27.173 22.6707 28.5209 23.7186C28.9798 24.0755 29.6393 24.0533 30.0557 23.6513L30.0639 23.6434C30.5392 23.1845 30.5061 22.4247 29.9841 22.0159C28.2392 20.6498 26.0168 19.8298 23.5952 19.8298V19.8294Z" fill="white"/>
<path d="M19.9211 26.341C20.3336 26.7393 20.9733 26.7841 21.4618 26.476C22.0753 26.089 22.8081 25.8641 23.5954 25.8641C24.3827 25.8641 25.1159 26.089 25.7291 26.476C26.2172 26.7841 26.8572 26.739 27.2698 26.341L27.2752 26.3357C27.7809 25.8475 27.7014 25.0358 27.1104 24.6469C26.1089 23.9872 24.8993 23.6013 23.5954 23.6013C22.2916 23.6013 21.0816 23.9872 20.0804 24.6469C19.4898 25.0358 19.4104 25.8479 19.916 26.3357L19.9215 26.341H19.9211Z" fill="white"/>
<path d="M42.2676 97.606C42.2652 98.236 41.7685 98.7615 41.1184 98.8205L22.6621 100.489L15.6963 101.119L15.634 101.124C15.2783 101.157 14.9211 101.084 14.6083 100.919L13.4045 100.293C13.0925 100.127 12.8716 99.8105 12.8716 99.4659V82.014L14.9943 81.8722L42.2146 80.0321L42.2344 86.0032L42.2609 96.4043L42.2672 97.6064L42.2676 97.606Z" fill="url(#paint40_linear_3_3095)"/>
<path d="M42.16 97.6061V97.6569C42.16 98.2884 41.7156 98.8161 41.0642 98.8752L15.6691 101.173L15.6204 101.179C15.2647 101.211 14.9141 101.139 14.6017 100.973L13.4014 100.348C13.0894 100.182 12.8716 99.8651 12.8716 99.5206V98.2105C12.8716 98.5551 13.0925 98.8714 13.4045 99.0376L14.5946 99.6631C14.9075 99.829 15.2713 99.9012 15.627 99.8689L15.6924 99.8632L41.1164 97.5651C41.7479 97.5079 42.1807 97.0099 42.2103 96.404L42.1604 97.6061H42.16Z" fill="#E1E7EF"/>
<path d="M42.2419 86.0029C42.1328 86.5208 41.6832 86.9244 41.1184 86.9756L15.634 89.279C15.2783 89.3113 14.9211 89.2391 14.6083 89.0733L13.4045 88.4477C13.0925 88.2819 12.8716 87.9652 12.8716 87.6206V82.0137L42.2013 80.0319L42.2415 86.0029H42.2419Z" fill="#F4F7FA"/>
<path style="mix-blend-mode:multiply" opacity="0.2" d="M15.7189 82.9419V101.174L15.6453 101.179C15.2896 101.212 14.9266 101.139 14.6141 100.973L13.4076 100.348C13.0956 100.182 12.8716 99.8654 12.8716 99.5209V82.0143L15.006 81.8725C15.2253 82.14 15.4478 82.4905 15.7193 82.9422L15.7189 82.9419Z" fill="url(#paint41_linear_3_3095)"/>
<path d="M13.3275 82.7726C13.0392 82.6244 12.8857 82.3123 12.9492 82.0042C13.0127 81.6962 13.2788 81.4641 13.6045 81.4325L39.1843 78.9617C40.0826 78.8748 40.9876 79.0475 41.7838 79.4567C42.1231 79.6312 42.3039 79.9987 42.2291 80.3613C42.1543 80.7239 41.8411 80.9973 41.4582 81.0342L16.7377 83.4222C15.5593 83.5362 14.3719 83.3101 13.3279 82.7726H13.3275Z" fill="#D8DEE8"/>
<path d="M21.4481 80.6841L23.5533 77.5731L29.2444 77.065L31.6204 79.6964L21.4481 80.6841Z" fill="#D8DEE8"/>
<path d="M18.5085 82.5869C20.0462 82.5869 21.2927 82.2754 21.2927 81.8911C21.2927 81.5068 20.0462 81.1952 18.5085 81.1952C16.9708 81.1952 15.7243 81.5068 15.7243 81.8911C15.7243 82.2754 16.9708 82.5869 18.5085 82.5869Z" fill="#F4F7FA"/>
<path d="M21.2926 80.7039H15.7238V81.9049H21.2926V80.7039Z" fill="#F4F7FA"/>
<path d="M18.5084 81.3859C20.0461 81.3859 21.2926 81.0744 21.2926 80.6901C21.2926 80.3058 20.0461 79.9942 18.5084 79.9942C16.9707 79.9942 15.7242 80.3058 15.7242 80.6901C15.7242 81.0744 16.9707 81.3859 18.5084 81.3859Z" fill="#C5CAD1"/>
<path d="M23.3706 82.813L25.4758 79.7016L31.1669 79.1935L33.5428 81.8253L23.3706 82.813Z" fill="#F4F7FA"/>
<path d="M21.4481 80.6841L23.3932 82.7791L25.4754 79.7016L23.5533 77.5731L21.4481 80.6841Z" fill="#E1E7EF"/>
<path d="M23.3941 82.7789L33.5434 81.8251L34.1827 82.6413L23.6587 83.7467L23.3941 82.7789Z" fill="#E1E7EF"/>
<path d="M23.6577 83.7468L22.9911 88.8358L35.5822 86.8288L34.1817 82.6414L23.6577 83.7468Z" fill="#D8DEE8"/>
<path d="M22.7993 88.8358L23.393 82.779L23.6575 83.7468L22.9909 89.2556L22.7993 88.8358Z" fill="#F4F7FA"/>
<path style="mix-blend-mode:multiply" opacity="0.2" d="M22.7993 88.8358L23.393 82.779L23.6575 83.7468L22.9909 89.2556L22.7993 88.8358Z" fill="url(#paint42_linear_3_3095)"/>
<path d="M38.869 91.0516C39.0377 91.7057 39.1273 92.3899 39.1273 93.0948C39.1273 97.752 35.2169 101.528 30.3933 101.528C29.5601 101.528 28.7545 101.415 27.9913 101.204L27.2098 101.934L26.4467 101.195L24.5737 99.3825C24.3255 99.1681 24.0898 98.9398 23.8682 98.6995L23.8635 98.695C22.4926 97.2055 21.6594 95.244 21.6594 93.0944C21.6594 91.4496 22.1471 89.9146 22.9909 88.6173C22.9917 88.617 22.9917 88.6162 22.9917 88.6162C24.5367 86.2406 27.2741 84.6616 30.3937 84.6616C31.6364 84.6616 32.818 84.9121 33.8881 85.3635C34.9582 85.8148 35.9165 86.4678 36.712 87.2719L39.7631 90.2166L38.8694 91.0513L38.869 91.0516Z" fill="url(#paint43_linear_3_3095)"/>
<path style="mix-blend-mode:multiply" opacity="0.3" d="M26.4469 101.195L24.5739 99.3825C24.3257 99.1681 24.0901 98.9398 23.8684 98.6994L23.8637 98.6949C22.4928 97.2055 21.6596 95.244 21.6596 93.0944C21.6596 91.4496 22.1473 89.9146 22.9911 88.6173C22.9681 88.6974 21.6865 93.1798 23.6284 94.5861C25.5883 96.0052 25.8894 98.5167 26.3421 100.845C26.3647 100.963 26.4005 101.08 26.4473 101.194L26.4469 101.195Z" fill="url(#paint44_linear_3_3095)"/>
<path d="M42.4079 96.2607C42.4079 99.5826 40.4184 102.456 37.5267 103.831C36.3643 104.384 35.0565 104.693 33.6739 104.693C28.8504 104.693 24.94 100.918 24.94 96.2607C24.94 93.9516 25.901 91.8596 27.4593 90.3367C29.0421 88.7874 31.2419 87.8279 33.6743 87.8279C38.4979 87.8279 42.4083 91.6035 42.4083 96.2607H42.4079Z" fill="url(#paint45_linear_3_3095)"/>
<g style="mix-blend-mode:soft-light" opacity="0.3">
<path d="M37.5267 103.831C36.3642 104.383 35.0565 104.693 33.6739 104.693C28.8504 104.693 24.94 100.918 24.94 96.2606C24.94 93.9515 25.901 91.8595 27.4593 90.3366C28.3973 90.6882 29.3576 91.5123 29.8675 93.3132C30.9225 97.0388 31.6829 103.69 37.5271 103.831L37.5267 103.831Z" fill="#F4F7FA"/>
</g>
<path d="M40.3583 96.2606C40.3583 99.8255 37.3653 102.716 33.6726 102.716C31.5526 102.716 29.6632 101.763 28.4392 100.276C27.5296 99.1741 26.9873 97.7783 26.9873 96.2602C26.9873 92.6953 29.9803 89.8051 33.6726 89.8051C35.2449 89.8051 36.6905 90.329 37.832 91.2073C39.3719 92.3887 40.3587 94.2133 40.3587 96.2602L40.3583 96.2606Z" fill="url(#paint46_linear_3_3095)"/>
<path style="mix-blend-mode:soft-light" d="M39.2842 95.2239C39.2842 98.7888 36.2912 101.679 32.5986 101.679C31.0263 101.679 29.5806 101.155 28.4392 100.277C27.5296 99.1747 26.9873 97.7789 26.9873 96.2608C26.9873 92.6959 29.9803 89.8057 33.6726 89.8057C35.2449 89.8057 36.6905 90.3297 37.832 91.2079C38.7416 92.31 39.2842 93.7058 39.2842 95.2239Z" fill="url(#paint47_linear_3_3095)"/>
<path style="mix-blend-mode:multiply" opacity="0.8" d="M35.2063 97.7414C36.4279 96.5619 36.4279 94.6495 35.2063 93.47C33.9847 92.2905 32.004 92.2905 30.7824 93.47C29.5608 94.6495 29.5608 96.5619 30.7824 97.7414C32.004 98.9209 33.9847 98.9209 35.2063 97.7414Z" fill="url(#paint48_linear_3_3095)"/>
<path opacity="0.5" d="M35.4402 95.1209C35.6339 94.3287 35.1258 93.535 34.3054 93.3481C33.485 93.1611 32.6629 93.6517 32.4693 94.4438C32.2756 95.236 32.7837 96.0297 33.6042 96.2166C34.4246 96.4036 35.2466 95.913 35.4402 95.1209Z" fill="#EFF0EF"/>
<path d="M37.5267 84.7545C37.0854 84.7545 36.7227 84.4344 36.6829 84.0094L36.6728 83.9007C36.6307 83.4509 36.9751 83.0522 37.441 83.0112L40.1999 82.7697C40.226 82.7674 40.2517 82.7663 40.277 82.7663C40.7184 82.7663 41.0811 83.0864 41.1208 83.5114L41.131 83.6201C41.173 84.07 40.8287 84.4687 40.3627 84.5097L37.6039 84.7511C37.5778 84.7534 37.552 84.7545 37.5267 84.7545Z" fill="#D8DEE8"/>
<path d="M40.2178 82.9323L37.4585 83.1738C37.0855 83.2065 36.8105 83.5249 36.8443 83.8851L36.8545 83.9941C36.8884 84.3543 37.2182 84.6198 37.5912 84.5871L40.3505 84.3456C40.7235 84.313 40.9985 83.9945 40.9647 83.6343L40.9545 83.5253C40.9206 83.1652 40.5908 82.8996 40.2178 82.9323Z" fill="#C5CAD1"/>
<path d="M34.6392 80.458C35.5942 80.458 36.3684 80.2645 36.3684 80.0258C36.3684 79.7872 35.5942 79.5937 34.6392 79.5937C33.6841 79.5937 32.9099 79.7872 32.9099 80.0258C32.9099 80.2645 33.6841 80.458 34.6392 80.458Z" fill="#F4F7FA"/>
<path d="M36.3684 79.2886H32.9099V80.0344H36.3684V79.2886Z" fill="#F4F7FA"/>
<path d="M34.6391 79.712C35.5942 79.712 36.3684 79.5185 36.3684 79.2799C36.3684 79.0412 35.5942 78.8477 34.6391 78.8477C33.6841 78.8477 32.9099 79.0412 32.9099 79.2799C32.9099 79.5185 33.6841 79.712 34.6391 79.712Z" fill="#C5CAD1"/>
<path d="M38.6536 80.8401C39.6087 80.8401 40.3829 80.6466 40.3829 80.408C40.3829 80.1693 39.6087 79.9758 38.6536 79.9758C37.6986 79.9758 36.9244 80.1693 36.9244 80.408C36.9244 80.6466 37.6986 80.8401 38.6536 80.8401Z" fill="#F4F7FA"/>
<path d="M40.3829 79.6707H36.9244V80.4166H40.3829V79.6707Z" fill="#F4F7FA"/>
<path d="M38.6539 80.0942C39.6089 80.0942 40.3832 79.9007 40.3832 79.662C40.3832 79.4234 39.6089 79.2299 38.6539 79.2299C37.6989 79.2299 36.9246 79.4234 36.9246 79.662C36.9246 79.9007 37.6989 80.0942 38.6539 80.0942Z" fill="#C5CAD1"/>
<path style="mix-blend-mode:multiply" opacity="0.3" d="M22.673 100.489L15.7189 101.119V101.173L15.6453 101.179C15.2896 101.211 14.9266 101.139 14.6141 100.973L13.4077 100.348C13.0956 100.182 12.8716 99.8651 12.8716 99.5206V94.8073C14.9055 93.108 14.419 89.3061 15.6691 90.3498C15.6691 90.3498 15.9273 95.3941 18.1887 95.3941C20.4502 95.3941 22.1966 96.8467 22.611 100.194C22.6235 100.296 22.6531 100.395 22.6734 100.489L22.673 100.489Z" fill="url(#paint49_linear_3_3095)"/>
<path d="M64.8121 83.2748L86.0849 82.3819L110.595 83.2109L86.4153 88.3138L64.8121 83.2748Z" fill="url(#paint50_linear_3_3095)"/>
<path d="M81.9523 103.067L64.7208 98.5892C62.9853 98.1382 61.6371 96.478 61.6371 94.8682V94.8505C61.6371 93.2407 62.9853 92.1604 64.7208 92.4561L83.2024 95.3763L81.9523 103.067Z" fill="url(#paint51_linear_3_3095)"/>
<path d="M110.624 99.7046L82.782 102.707C81.0383 102.895 79.6043 101.721 79.6043 100.081V98.9696C79.6043 97.3305 81.0379 95.8918 82.782 95.7575L110.624 93.6177C109.392 95.8323 109.108 97.9041 110.624 99.7046Z" fill="url(#paint52_linear_3_3095)"/>
<path d="M110.867 100.003L83.0153 103.052C80.7407 103.301 78.856 101.762 78.856 99.618V99.5943C78.856 97.45 80.7407 95.5634 83.0153 95.3922L110.867 93.2949C111.034 93.2821 111.17 93.4172 111.17 93.5958C111.17 93.7745 111.034 93.9302 110.867 93.9434L83.0153 96.1328C81.1855 96.2765 79.6744 97.7964 79.6744 99.5187V99.542C79.6744 101.264 81.1851 102.505 83.0153 102.311L110.867 99.3536C111.034 99.3359 111.17 99.4664 111.17 99.6451C111.17 99.8238 111.034 99.9836 110.867 100.002V100.003Z" fill="url(#paint53_linear_3_3095)"/>
<path d="M82.6759 95.3944L64.7206 92.4561C62.9851 92.1604 61.6369 89.9642 61.6369 87.5468V87.5201C61.6369 85.1028 62.9851 83.1845 64.7206 83.2466L83.7679 83.9296L82.6763 95.3936L82.6759 95.3944Z" fill="url(#paint54_linear_3_3095)"/>
<path d="M110.624 92.8257L84.3422 94.7398C81.7501 94.9286 79.6043 93.0897 79.6043 90.6287V88.9591C79.6043 86.4981 81.7504 84.4463 84.3422 84.3782L110.624 83.6865C109.388 87.0047 109.112 90.1119 110.624 92.8261V92.8257Z" fill="url(#paint55_linear_3_3095)"/>
<path d="M110.867 93.2949L83.0153 95.3922C80.7407 95.5633 78.856 93.0858 78.856 89.8661V89.8308C78.856 86.6111 80.7407 83.9462 83.0153 83.8917L110.867 83.2233C111.034 83.2192 111.17 83.4336 111.17 83.7021C111.17 83.9707 111.034 84.1922 110.867 84.1971L83.0153 85.0035C81.1855 85.0566 79.6744 87.2043 79.6744 89.7901V89.8255C79.6744 92.4114 81.1851 94.409 83.0153 94.2804L110.867 92.3211C111.034 92.3095 111.17 92.5175 111.17 92.786C111.17 93.0546 111.034 93.2821 110.867 93.2949Z" fill="url(#paint56_linear_3_3095)"/>
<g style="mix-blend-mode:soft-light" opacity="0.5">
<path d="M77.1076 92.9718L73.2697 92.3241C72.3733 89.9624 72.4407 87.7925 73.2697 85.1995L77.1076 85.4628C76.3211 88.1916 76.4399 90.6632 77.1076 92.9715V92.9718Z" fill="white"/>
</g>
<path d="M77.8557 63.7229C77.2578 63.3964 77.7167 62.3181 77.6068 60.0662C77.472 57.3065 76.6816 56.8371 77.2231 55.7196C77.8853 54.3532 79.726 53.6964 80.9672 53.5983C81.2406 53.5765 81.296 53.4283 83.6275 53.8683C87.8281 54.6612 88.7938 53.4922 90.7156 54.4916C92.5718 55.4571 91.8617 56.6746 93.6778 57.8278C96.6217 59.6976 99.446 57.3257 101.565 58.9096C103.57 60.4077 103.87 64.5053 102.008 66.8594C99.896 69.5285 95.7545 69.0053 92.9793 68.6622C92.3954 68.59 89.4425 68.1691 86.2707 66.1824C84.5161 65.0834 83.2831 63.8726 82.4904 62.9733C82.3065 62.7961 82.0237 62.5851 81.6664 62.5693C81.2379 62.5501 80.9115 62.8217 80.7537 62.9417C79.9243 63.571 78.4436 64.043 77.8565 63.7222L77.8557 63.7229Z" fill="url(#paint57_linear_3_3095)"/>
<path d="M80.0725 62.0769C79.2922 61.4694 76.7312 62.8773 75.0861 64.6436C73.1535 66.7187 73.4106 68.295 71.7693 70.8286C70.9532 72.0883 69.5266 73.8031 66.9072 75.3854C67.1281 75.8372 67.3486 76.2885 67.5691 76.7402C68.8835 76.7402 71.4515 76.545 73.7553 74.8931C75.3557 73.7455 76.1258 72.3034 77.6007 69.4667C79.081 66.6194 81.0479 62.8363 80.0725 62.0769Z" fill="url(#paint58_linear_3_3095)"/>
<path d="M65.7286 100.239L67.7142 98.9236L68.6441 98.8695C68.6441 98.8695 69.0321 99.9896 68.9997 100.049C68.6265 100.728 66.7286 101.34 65.5276 101.451C65.3281 101.469 65.0492 101.487 64.9686 101.351C64.8318 101.121 65.3457 100.593 65.7286 100.239Z" fill="url(#paint59_linear_3_3095)"/>
<path d="M67.6692 97.617C67.848 98.3493 67.7046 98.745 67.5375 98.9714C67.4198 99.1309 67.3096 99.1809 66.5947 99.8546C66.3583 100.077 66.2383 100.196 66.271 100.253C66.308 100.318 66.5262 100.269 66.9944 100.131C68.0155 99.8297 68.5281 99.674 68.6403 99.4258C68.7416 99.2012 68.6337 99.1087 68.6033 98.5144C68.5831 98.1232 68.6458 97.8035 68.6984 97.6031C68.3552 97.6076 68.0124 97.6125 67.6692 97.617Z" fill="url(#paint60_linear_3_3095)"/>
<path d="M65.8125 91.8388C65.8125 91.8388 64.9488 92.9657 65.1736 94.1324C65.3987 95.2992 66.9215 93.4851 67.1124 92.8912C67.3033 92.2969 67.5172 91.454 67.5172 91.454C67.5172 91.454 66.331 90.8341 65.8125 91.8392V91.8388Z" fill="url(#paint61_linear_3_3095)"/>
<path d="M66.0632 90.1399C66.0632 90.1399 66.394 91.3747 65.9538 92.0623C65.7344 92.4046 65.4282 92.7021 65.54 92.9639C65.6148 93.1391 65.8653 93.2539 66.0691 93.2215C66.4594 93.1598 66.6406 92.5656 66.7683 92.1469C66.9573 91.5282 67.0025 90.2249 67.0025 90.2249L66.0632 90.1399Z" fill="url(#paint62_linear_3_3095)"/>
<path d="M66.87 91.1502C66.5774 91.0663 66.2849 90.982 65.9923 90.8981C65.4839 89.9394 64.8376 88.3533 64.8969 86.3763C65.0484 81.2922 69.7251 78.3298 70.2452 78.0116C71.6051 78.5739 72.9982 79.398 73.1178 80.532C73.2678 81.9557 71.3013 82.8279 69.5385 85.0256C68.4804 86.3447 67.383 88.2825 66.87 91.1502Z" fill="url(#paint63_linear_3_3095)"/>
<path d="M67.6221 98.2003C66.453 94.6876 66.5122 91.7621 66.6801 90.0691C66.9341 87.5099 67.4499 82.3047 70.8952 80.1739C71.6474 79.7086 72.737 79.2678 74.0206 78.0213C75.0927 76.9806 75.7483 75.9131 76.1379 75.1654C80.822 73.5364 85.2544 73.8271 87.3499 76.1832C87.5918 76.4555 88.1921 77.0415 88.3581 77.9476C88.732 79.9922 86.792 82.5932 84.473 83.248C81.5259 84.0804 79.6069 81.2188 77.0214 82.3592C76.298 82.6782 75.7129 83.3981 74.5426 84.8379C73.0541 86.6693 72.2563 88.3257 71.9567 88.9874C71.0646 90.9575 70.386 92.4131 70.3883 94.2483C70.3891 94.6759 70.4273 95.5373 69.9688 96.4956C69.6166 97.2313 69.1086 97.7376 68.7273 98.0547C68.3587 98.1032 67.9906 98.1517 67.6221 98.2003Z" fill="url(#paint64_linear_3_3095)"/>
<path style="mix-blend-mode:multiply" opacity="0.3" d="M88.3574 77.948C88.1918 77.0419 87.5915 76.4555 87.3492 76.1836C85.2538 73.8275 80.8213 73.5367 76.1372 75.1658C75.7481 75.9135 75.092 76.9806 74.0203 78.0217C72.7367 79.2682 71.6471 79.709 70.8949 80.1743C68.7913 81.4753 67.7803 83.9228 67.2537 86.2142C68.1512 84.6735 68.9747 84.2297 69.6304 84.1846C70.5688 84.1195 71.0371 84.8706 72.152 84.6991C73.3437 84.5159 73.5579 83.5433 74.5225 83.3766C74.8112 83.3266 75.1719 83.3492 75.6156 83.5452C76.1528 82.9317 76.5587 82.5638 77.0208 82.36C79.6067 81.2199 81.5256 84.0811 84.4723 83.2488C86.791 82.5939 88.7314 79.993 88.3574 77.9484V77.948Z" fill="url(#paint65_linear_3_3095)"/>
<path d="M69.08 81.8816C69.618 81.8225 70.4482 81.7578 71.4567 81.7951C76.2433 81.9715 77.6971 84.1673 81.664 84.4923C82.6025 84.5694 86.7809 84.9117 88.43 82.495C89.6138 80.7603 89.2402 77.9115 87.7611 76.8689C87.1351 76.4277 86.5456 76.4755 82.7295 76.7316C81.2924 76.8279 79.8549 76.9163 78.4178 77.0182C72.336 77.4482 71.1466 77.1093 70.0999 78.1459C69.6118 78.6296 68.9172 79.6474 69.0796 81.8816H69.08Z" fill="url(#paint66_linear_3_3095)"/>
<path d="M80.7501 62.2767C80.7501 62.2767 87.7271 59.8623 88.7782 64.8396C89.7856 69.6101 86.306 72.0293 88.2573 76.8073C88.4837 77.361 74.6106 75.5732 74.6106 75.5732C76.3028 73.2619 76.6141 71.4181 76.5787 70.1513C76.5397 68.7623 76.0866 68.1563 76.35 66.4957C76.35 66.4957 76.6437 64.6433 78.0185 62.9872C78.216 62.7495 78.4532 62.5001 80.7497 62.2767H80.7501Z" fill="url(#paint67_linear_3_3095)"/>
<g style="mix-blend-mode:soft-light">
<g style="mix-blend-mode:soft-light">
<path d="M86.163 75.8813C86.0956 75.8682 79.438 74.5671 75.4956 74.5671C75.4707 74.5671 75.4461 74.5671 75.4212 74.5671V74.4362C75.4453 74.4362 75.4703 74.4362 75.4956 74.4362C79.452 74.4362 86.1228 75.7399 86.1902 75.7531L86.1634 75.8813H86.163Z" fill="#F4F7FA"/>
</g>
</g>
<path d="M82.1037 59.1781C82.0569 59.4753 81.8243 61.0697 82.517 61.436C82.667 61.5154 82.9482 61.5496 83.5104 61.6177C83.8785 61.6625 84.1863 61.685 84.4032 61.6971C84.3888 61.963 84.3234 62.3982 84.0324 62.8078C83.2162 63.9553 81.4243 63.7756 81.1683 63.7455C80.2661 63.6405 79.3713 63.4258 79.1488 63.2753C78.8103 63.0462 78.545 62.8755 78.383 62.6953C78.7184 62.514 79.3888 62.0484 79.8481 61.8821C80.1913 61.758 80.515 61.6647 80.8103 61.594C80.8403 61.2871 80.8703 60.9798 80.9003 60.6729C81.3012 60.1749 81.7024 59.6765 82.1033 59.1785L82.1037 59.1781Z" fill="url(#paint68_linear_3_3095)"/>
<path d="M82.1839 59.9612C82.1839 59.9612 82.1356 61.1223 80.9864 61.3935C79.9575 61.6365 79.0222 59.2545 79.5154 58.5955C79.6798 58.3758 80.106 58.1509 80.4866 58.1392C80.7542 58.131 81.6782 58.4104 81.8586 59.2755C82.0269 59.0822 82.2478 59.0164 82.3631 59.0867C82.5092 59.1759 82.4519 59.4625 82.439 59.5275C82.3938 59.7528 82.2524 59.8988 82.1839 59.9612Z" fill="url(#paint69_linear_3_3095)"/>
<path d="M73.1974 76.2217L84.0997 76.0983C84.2497 76.0968 84.3911 76.166 84.478 76.2841L84.8079 76.7328C84.9723 76.9562 84.811 77.2658 84.5274 77.2718L72.9866 77.5201L73.1974 76.2217Z" fill="url(#paint70_linear_3_3095)"/>
<path d="M61.5252 71.0367L72.7688 70.5913C73.1015 70.5782 73.4166 70.735 73.5981 71.0047L77.9005 77.3842L66.011 77.62C65.6846 77.6264 65.3768 77.4737 65.1926 77.2135L61.2257 71.6118C61.0566 71.3733 61.2257 71.0487 61.5245 71.0367H61.5252Z" fill="url(#paint71_linear_3_3095)"/>
<path style="mix-blend-mode:multiply" opacity="0.3" d="M73.5982 71.0047C73.4167 70.7354 73.1011 70.5782 72.7684 70.5913L72.5218 70.6011C72.507 70.9532 72.4159 71.28 72.2102 71.5512C71.5682 72.3986 70.3866 71.968 69.5826 72.8722C68.6995 73.8655 69.6395 74.9315 68.8518 75.8537C68.0228 76.8245 66.5424 76.1599 64.9316 76.8441L65.193 77.2131C65.3773 77.4734 65.685 77.6261 66.0111 77.6197L77.9005 77.3838L73.5982 71.0047Z" fill="url(#paint72_linear_3_3095)"/>
<path d="M83.1604 75.2885C82.9964 74.9361 82.8324 74.5836 82.668 74.2308C84.206 73.7257 86.3303 72.9877 88.5005 72.0929C88.8406 71.9526 89.2438 71.7804 89.3572 71.4193C89.6747 70.4071 87.199 69.5217 86.1262 67.4143C85.1339 65.4652 85.4374 62.6626 86.423 62.276C88.4741 61.4718 96.4574 69.9618 94.0409 73.878C92.6751 76.0919 88.0748 76.7001 83.16 75.2878L83.1604 75.2885Z" fill="url(#paint73_linear_3_3095)"/>
<path d="M82.6668 74.2307C81.6535 73.7846 80.5106 74.3691 80.4373 74.4083C80.2277 74.5192 79.9247 74.7125 79.627 75.0439C79.5943 75.0932 79.204 75.6878 79.3707 75.8612C79.5043 76.0004 79.978 75.8507 80.5351 75.4697C80.7759 75.4227 81.135 75.3715 81.5702 75.3847C82.3692 75.4091 82.7482 75.6303 83.0236 75.4042C83.2254 75.2387 83.2768 74.9108 83.1861 74.6746C83.0883 74.4207 82.8386 74.3063 82.6672 74.2311L82.6668 74.2307Z" fill="url(#paint74_linear_3_3095)"/>
<defs>
<linearGradient id="paint0_linear_3_3095" x1="92.4247" y1="44.7005" x2="84.2359" y2="47.422" gradientUnits="userSpaceOnUse">
<stop stop-color="#FCB148"/>
<stop offset="0.05" stop-color="#FDB946"/>
<stop offset="0.14" stop-color="#FEC144"/>
<stop offset="0.32" stop-color="#FFC444"/>
<stop offset="0.48" stop-color="#FDB946"/>
<stop offset="0.78" stop-color="#F99C4C"/>
<stop offset="0.87" stop-color="#F8924F"/>
<stop offset="1" stop-color="#F8924F"/>
</linearGradient>
<linearGradient id="paint1_linear_3_3095" x1="99.0928" y1="36.777" x2="92.1515" y2="52.6377" gradientUnits="userSpaceOnUse">
<stop stop-color="#FFDB44"/>
<stop offset="1" stop-color="#FEEF06"/>
</linearGradient>
<linearGradient id="paint2_linear_3_3095" x1="97.74" y1="53.3308" x2="96.4134" y2="45.8237" gradientUnits="userSpaceOnUse">
<stop stop-color="#FCB148"/>
<stop offset="0.05" stop-color="#FDB946"/>
<stop offset="0.14" stop-color="#FEC144"/>
<stop offset="0.32" stop-color="#FFC444"/>
<stop offset="0.48" stop-color="#FDB946"/>
<stop offset="0.78" stop-color="#F99C4C"/>
<stop offset="0.87" stop-color="#F8924F"/>
<stop offset="1" stop-color="#F8924F"/>
</linearGradient>
<linearGradient id="paint3_linear_3_3095" x1="94.7292" y1="41.2063" x2="100.253" y2="53.3513" gradientUnits="userSpaceOnUse">
<stop stop-color="#FCB148"/>
<stop offset="0.05" stop-color="#FDB946"/>
<stop offset="0.14" stop-color="#FEC144"/>
<stop offset="0.32" stop-color="#FFC444"/>
<stop offset="0.48" stop-color="#FDB946"/>
<stop offset="0.78" stop-color="#F99C4C"/>
<stop offset="0.87" stop-color="#F8924F"/>
<stop offset="1" stop-color="#F8924F"/>
</linearGradient>
<linearGradient id="paint4_linear_3_3095" x1="94.4957" y1="38.6253" x2="97.2518" y2="49.3225" gradientUnits="userSpaceOnUse">
<stop stop-color="#FFDB44"/>
<stop offset="1" stop-color="#FEEF06"/>
</linearGradient>
<linearGradient id="paint5_linear_3_3095" x1="93.0073" y1="41.9826" x2="98.52" y2="54.1032" gradientUnits="userSpaceOnUse">
<stop stop-color="#FCB148"/>
<stop offset="0.05" stop-color="#FDB946"/>
<stop offset="0.14" stop-color="#FEC144"/>
<stop offset="0.32" stop-color="#FFC444"/>
<stop offset="0.48" stop-color="#FDB946"/>
<stop offset="0.78" stop-color="#F99C4C"/>
<stop offset="0.87" stop-color="#F8924F"/>
<stop offset="1" stop-color="#F8924F"/>
</linearGradient>
<linearGradient id="paint6_linear_3_3095" x1="94.3213" y1="25.1806" x2="84.4564" y2="28.4596" gradientUnits="userSpaceOnUse">
<stop stop-color="#FCB148"/>
<stop offset="0.05" stop-color="#FDB946"/>
<stop offset="0.14" stop-color="#FEC144"/>
<stop offset="0.32" stop-color="#FFC444"/>
<stop offset="0.48" stop-color="#FDB946"/>
<stop offset="0.78" stop-color="#F99C4C"/>
<stop offset="0.87" stop-color="#F8924F"/>
<stop offset="1" stop-color="#F8924F"/>
</linearGradient>
<linearGradient id="paint7_linear_3_3095" x1="102.356" y1="15.6352" x2="93.9935" y2="34.7428" gradientUnits="userSpaceOnUse">
<stop stop-color="#FFDB44"/>
<stop offset="1" stop-color="#FEEF06"/>
</linearGradient>
<linearGradient id="paint8_linear_3_3095" x1="100.726" y1="35.5779" x2="99.1277" y2="26.534" gradientUnits="userSpaceOnUse">
<stop stop-color="#FCB148"/>
<stop offset="0.05" stop-color="#FDB946"/>
<stop offset="0.14" stop-color="#FEC144"/>
<stop offset="0.32" stop-color="#FFC444"/>
<stop offset="0.48" stop-color="#FDB946"/>
<stop offset="0.78" stop-color="#F99C4C"/>
<stop offset="0.87" stop-color="#F8924F"/>
<stop offset="1" stop-color="#F8924F"/>
</linearGradient>
<linearGradient id="paint9_linear_3_3095" x1="97.0991" y1="20.9717" x2="103.753" y2="35.6026" gradientUnits="userSpaceOnUse">
<stop stop-color="#FCB148"/>
<stop offset="0.05" stop-color="#FDB946"/>
<stop offset="0.14" stop-color="#FEC144"/>
<stop offset="0.32" stop-color="#FFC444"/>
<stop offset="0.48" stop-color="#FDB946"/>
<stop offset="0.78" stop-color="#F99C4C"/>
<stop offset="0.87" stop-color="#F8924F"/>
<stop offset="1" stop-color="#F8924F"/>
</linearGradient>
<linearGradient id="paint10_linear_3_3095" x1="96.8166" y1="17.8618" x2="100.137" y2="30.7488" gradientUnits="userSpaceOnUse">
<stop stop-color="#FFDB44"/>
<stop offset="1" stop-color="#FEEF06"/>
</linearGradient>
<linearGradient id="paint11_linear_3_3095" x1="95.0246" y1="21.9067" x2="101.666" y2="36.5079" gradientUnits="userSpaceOnUse">
<stop stop-color="#FCB148"/>
<stop offset="0.05" stop-color="#FDB946"/>
<stop offset="0.14" stop-color="#FEC144"/>
<stop offset="0.32" stop-color="#FFC444"/>
<stop offset="0.48" stop-color="#FDB946"/>
<stop offset="0.78" stop-color="#F99C4C"/>
<stop offset="0.87" stop-color="#F8924F"/>
<stop offset="1" stop-color="#F8924F"/>
</linearGradient>
<linearGradient id="paint12_linear_3_3095" x1="19.6833" y1="49.4913" x2="20.7253" y2="63.5201" gradientUnits="userSpaceOnUse">
<stop stop-color="#E38DDD"/>
<stop offset="1" stop-color="#9571F6"/>
</linearGradient>
<linearGradient id="paint13_linear_3_3095" x1="-2.00471" y1="62.4696" x2="8.25277" y2="80.285" gradientUnits="userSpaceOnUse">
<stop stop-color="#FF9085"/>
<stop offset="1" stop-color="#FB6FBB"/>
</linearGradient>
<linearGradient id="paint14_linear_3_3095" x1="-0.333433" y1="61.5075" x2="9.92406" y2="79.3228" gradientUnits="userSpaceOnUse">
<stop stop-color="#8599FF"/>
<stop offset="1" stop-color="#836FFB"/>
</linearGradient>
<linearGradient id="paint15_linear_3_3095" x1="16.8098" y1="69.5186" x2="46.435" y2="93.1599" gradientUnits="userSpaceOnUse">
<stop stop-color="#8591FF"/>
<stop offset="1" stop-color="#FB6FBB"/>
</linearGradient>
<linearGradient id="paint16_linear_3_3095" x1="22.7889" y1="43.1393" x2="25.6869" y2="62.2751" gradientUnits="userSpaceOnUse">
<stop stop-color="#E38DDD"/>
<stop offset="1" stop-color="#9571F6"/>
</linearGradient>
<linearGradient id="paint17_linear_3_3095" x1="17.2034" y1="69.0259" x2="46.8286" y2="92.6671" gradientUnits="userSpaceOnUse">
<stop stop-color="#FF9085"/>
<stop offset="1" stop-color="#FB6FBB"/>
</linearGradient>
<linearGradient id="paint18_linear_3_3095" x1="15.9344" y1="60.1888" x2="16.4299" y2="60.3792" gradientUnits="userSpaceOnUse">
<stop stop-color="#E38DDD"/>
<stop offset="1" stop-color="#9571F6"/>
</linearGradient>
<linearGradient id="paint19_linear_3_3095" x1="32.0942" y1="60.0775" x2="32.5893" y2="60.2678" gradientUnits="userSpaceOnUse">
<stop stop-color="#E38DDD"/>
<stop offset="1" stop-color="#9571F6"/>
</linearGradient>
<linearGradient id="paint20_linear_3_3095" x1="23.123" y1="49.7436" x2="106.532" y2="46.4411" gradientUnits="userSpaceOnUse">
<stop stop-color="#444B8C"/>
<stop offset="1" stop-color="#26264F"/>
</linearGradient>
<linearGradient id="paint21_linear_3_3095" x1="67.0606" y1="17.4114" x2="10.8522" y2="53.418" gradientUnits="userSpaceOnUse">
<stop stop-color="#B4FFE4"/>
<stop offset="0.376888" stop-color="#00E5FF"/>
<stop offset="1" stop-color="#8B49FF"/>
</linearGradient>
<linearGradient id="paint22_linear_3_3095" x1="66.2046" y1="19.2728" x2="-9.58548" y2="182.09" gradientUnits="userSpaceOnUse">
<stop stop-color="#FFC444"/>
<stop offset="1" stop-color="#F36F56"/>
</linearGradient>
<linearGradient id="paint23_linear_3_3095" x1="48.2108" y1="29.2673" x2="54.1196" y2="29.2673" gradientUnits="userSpaceOnUse">
<stop stop-color="#FF9085"/>
<stop offset="1" stop-color="#FB6FBB"/>
</linearGradient>
<linearGradient id="paint24_linear_3_3095" x1="59.9707" y1="29.2673" x2="65.8796" y2="29.2673" gradientUnits="userSpaceOnUse">
<stop stop-color="#FF9085"/>
<stop offset="1" stop-color="#FB6FBB"/>
</linearGradient>
<linearGradient id="paint25_linear_3_3095" x1="71.7307" y1="29.2673" x2="77.6392" y2="29.2673" gradientUnits="userSpaceOnUse">
<stop stop-color="#FF9085"/>
<stop offset="1" stop-color="#FB6FBB"/>
</linearGradient>
<linearGradient id="paint26_linear_3_3095" x1="23.9869" y1="19.5692" x2="89.6382" y2="19.5692" gradientUnits="userSpaceOnUse">
<stop stop-color="#85D3FF"/>
<stop offset="1" stop-color="#FB6FBB"/>
</linearGradient>
<linearGradient id="paint27_linear_3_3095" x1="83.5225" y1="31.1779" x2="89.3706" y2="31.1779" gradientUnits="userSpaceOnUse">
<stop stop-color="#FF9085"/>
<stop offset="1" stop-color="#FB6FBB"/>
</linearGradient>
<linearGradient id="paint28_linear_3_3095" x1="35.9855" y1="66.8595" x2="68.3199" y2="66.8595" gradientUnits="userSpaceOnUse">
<stop stop-color="#FFC444"/>
<stop offset="1" stop-color="#F36F56"/>
</linearGradient>
<linearGradient id="paint29_linear_3_3095" x1="37.6051" y1="75.7195" x2="68.8565" y2="75.7195" gradientUnits="userSpaceOnUse">
<stop stop-color="#FFC444"/>
<stop offset="1" stop-color="#F36F56"/>
</linearGradient>
<linearGradient id="paint30_linear_3_3095" x1="36.8688" y1="45.5923" x2="63.336" y2="45.5923" gradientUnits="userSpaceOnUse">
<stop stop-color="#FFC444"/>
<stop offset="1" stop-color="#F36F56"/>
</linearGradient>
<linearGradient id="paint31_linear_3_3095" x1="39.0008" y1="51.8142" x2="61.911" y2="51.8142" gradientUnits="userSpaceOnUse">
<stop stop-color="#FFC444"/>
<stop offset="1" stop-color="#F36F56"/>
</linearGradient>
<linearGradient id="paint32_linear_3_3095" x1="39.6754" y1="42.6637" x2="41.557" y2="42.6637" gradientUnits="userSpaceOnUse">
<stop stop-color="#FFC444"/>
<stop offset="1" stop-color="#F36F56"/>
</linearGradient>
<linearGradient id="paint33_linear_3_3095" x1="40.5241" y1="39.185" x2="48.6488" y2="39.185" gradientUnits="userSpaceOnUse">
<stop stop-color="#FFC444"/>
<stop offset="1" stop-color="#F36F56"/>
</linearGradient>
<linearGradient id="paint34_linear_3_3095" x1="58.5883" y1="42.7352" x2="60.2868" y2="42.7352" gradientUnits="userSpaceOnUse">
<stop stop-color="#FFC444"/>
<stop offset="1" stop-color="#F36F56"/>
</linearGradient>
<linearGradient id="paint35_linear_3_3095" x1="50.3618" y1="39.244" x2="59.4872" y2="39.244" gradientUnits="userSpaceOnUse">
<stop stop-color="#FFC444"/>
<stop offset="1" stop-color="#F36F56"/>
</linearGradient>
<linearGradient id="paint36_linear_3_3095" x1="9.46315" y1="23.6433" x2="34.6787" y2="23.6433" gradientUnits="userSpaceOnUse">
<stop stop-color="#311944"/>
<stop offset="1" stop-color="#893976"/>
</linearGradient>
<linearGradient id="paint37_linear_3_3095" x1="29.6457" y1="10.8466" x2="17.2646" y2="39.1378" gradientUnits="userSpaceOnUse">
<stop stop-color="#AA80F9"/>
<stop offset="1" stop-color="#6165D7"/>
</linearGradient>
<linearGradient id="paint38_linear_3_3095" x1="12.5423" y1="23.0803" x2="35.422" y2="23.0803" gradientUnits="userSpaceOnUse">
<stop stop-color="#AA80F9"/>
<stop offset="1" stop-color="#6165D7"/>
</linearGradient>
<linearGradient id="paint39_linear_3_3095" x1="18.7932" y1="20.1695" x2="28.4196" y2="41.3341" gradientUnits="userSpaceOnUse">
<stop stop-color="#AA80F9"/>
<stop offset="1" stop-color="#6165D7"/>
</linearGradient>
<linearGradient id="paint40_linear_3_3095" x1="28.3777" y1="79.167" x2="25.2938" y2="122.82" gradientUnits="userSpaceOnUse">
<stop stop-color="#AA80F9"/>
<stop offset="1" stop-color="#6165D7"/>
</linearGradient>
<linearGradient id="paint41_linear_3_3095" x1="12.8712" y1="91.5289" x2="15.7189" y2="91.5289" gradientUnits="userSpaceOnUse">
<stop stop-color="#AA80F9"/>
<stop offset="1" stop-color="#6165D7"/>
</linearGradient>
<linearGradient id="paint42_linear_3_3095" x1="22.7993" y1="86.0171" x2="23.6575" y2="86.0171" gradientUnits="userSpaceOnUse">
<stop stop-color="#AA80F9"/>
<stop offset="1" stop-color="#6165D7"/>
</linearGradient>
<linearGradient id="paint43_linear_3_3095" x1="21.6594" y1="93.2979" x2="39.7631" y2="93.2979" gradientUnits="userSpaceOnUse">
<stop stop-color="#444B8C"/>
<stop offset="1" stop-color="#26264F"/>
</linearGradient>
<linearGradient id="paint44_linear_3_3095" x1="21.6596" y1="94.9062" x2="26.4469" y2="94.9062" gradientUnits="userSpaceOnUse">
<stop stop-color="#444B8C"/>
<stop offset="1" stop-color="#26264F"/>
</linearGradient>
<linearGradient id="paint45_linear_3_3095" x1="24.9396" y1="96.2607" x2="42.4079" y2="96.2607" gradientUnits="userSpaceOnUse">
<stop stop-color="#AA80F9"/>
<stop offset="1" stop-color="#6165D7"/>
</linearGradient>
<linearGradient id="paint46_linear_3_3095" x1="26.9873" y1="96.2606" x2="40.3583" y2="96.2606" gradientUnits="userSpaceOnUse">
<stop stop-color="#444B8C"/>
<stop offset="1" stop-color="#26264F"/>
</linearGradient>
<linearGradient id="paint47_linear_3_3095" x1="26.9873" y1="95.7422" x2="39.2842" y2="95.7422" gradientUnits="userSpaceOnUse">
<stop stop-color="#444B8C"/>
<stop offset="1" stop-color="#26264F"/>
</linearGradient>
<linearGradient id="paint48_linear_3_3095" x1="29.8662" y1="95.6057" x2="36.1226" y2="95.6057" gradientUnits="userSpaceOnUse">
<stop stop-color="#40447E"/>
<stop offset="1" stop-color="#3C3B6B"/>
</linearGradient>
<linearGradient id="paint49_linear_3_3095" x1="12.8712" y1="95.6788" x2="22.673" y2="95.6788" gradientUnits="userSpaceOnUse">
<stop stop-color="#AA80F9"/>
<stop offset="1" stop-color="#6165D7"/>
</linearGradient>
<linearGradient id="paint50_linear_3_3095" x1="64.8121" y1="85.3481" x2="110.595" y2="85.3481" gradientUnits="userSpaceOnUse">
<stop stop-color="#40447E"/>
<stop offset="1" stop-color="#3C3B6B"/>
</linearGradient>
<linearGradient id="paint51_linear_3_3095" x1="69.8818" y1="102.873" x2="73.3994" y2="94.5861" gradientUnits="userSpaceOnUse">
<stop stop-color="#AA80F9"/>
<stop offset="1" stop-color="#6165D7"/>
</linearGradient>
<linearGradient id="paint52_linear_3_3095" x1="79.6043" y1="98.1722" x2="110.624" y2="98.1722" gradientUnits="userSpaceOnUse">
<stop stop-color="#85C4FF"/>
<stop offset="1" stop-color="#FB6FBB"/>
</linearGradient>
<linearGradient id="paint53_linear_3_3095" x1="78.856" y1="98.1861" x2="111.17" y2="98.1861" gradientUnits="userSpaceOnUse">
<stop stop-color="#AA80F9"/>
<stop offset="1" stop-color="#6165D7"/>
</linearGradient>
<linearGradient id="paint54_linear_3_3095" x1="75.2996" y1="80.7735" x2="69.1663" y2="102.17" gradientUnits="userSpaceOnUse">
<stop stop-color="#40447E"/>
<stop offset="1" stop-color="#3C3B6B"/>
</linearGradient>
<linearGradient id="paint55_linear_3_3095" x1="79.604" y1="89.2198" x2="110.624" y2="89.2198" gradientUnits="userSpaceOnUse">
<stop stop-color="#85DAFF"/>
<stop offset="1" stop-color="#FB6FBB"/>
</linearGradient>
<linearGradient id="paint56_linear_3_3095" x1="78.856" y1="89.3121" x2="111.17" y2="89.3121" gradientUnits="userSpaceOnUse">
<stop stop-color="#40447E"/>
<stop offset="1" stop-color="#3C3B6B"/>
</linearGradient>
<linearGradient id="paint57_linear_3_3095" x1="121.55" y1="78.788" x2="84.4042" y2="56.9035" gradientUnits="userSpaceOnUse">
<stop stop-color="#311944"/>
<stop offset="1" stop-color="#6B3976"/>
</linearGradient>
<linearGradient id="paint58_linear_3_3095" x1="73.6327" y1="64.8642" x2="73.6119" y2="77.1527" gradientUnits="userSpaceOnUse">
<stop stop-color="#FF9085"/>
<stop offset="1" stop-color="#FB6FBB"/>
</linearGradient>
<linearGradient id="paint59_linear_3_3095" x1="64.8918" y1="100.292" x2="69.009" y2="100.035" gradientUnits="userSpaceOnUse">
<stop stop-color="#311944"/>
<stop offset="1" stop-color="#6B3976"/>
</linearGradient>
<linearGradient id="paint60_linear_3_3095" x1="66.9323" y1="101.746" x2="71.6422" y2="83.5082" gradientUnits="userSpaceOnUse">
<stop stop-color="#FFC444"/>
<stop offset="1" stop-color="#F36F56"/>
</linearGradient>
<linearGradient id="paint61_linear_3_3095" x1="65.0903" y1="92.9532" x2="67.6078" y2="92.7955" gradientUnits="userSpaceOnUse">
<stop stop-color="#311944"/>
<stop offset="1" stop-color="#6B3976"/>
</linearGradient>
<linearGradient id="paint62_linear_3_3095" x1="64.0493" y1="99.7154" x2="67.202" y2="87.508" gradientUnits="userSpaceOnUse">
<stop stop-color="#FFC444"/>
<stop offset="1" stop-color="#F36F56"/>
</linearGradient>
<linearGradient id="paint63_linear_3_3095" x1="67.8585" y1="79.3502" x2="71.7313" y2="96.3544" gradientUnits="userSpaceOnUse">
<stop stop-color="#AB316D"/>
<stop offset="1" stop-color="#792D3D"/>
</linearGradient>
<linearGradient id="paint64_linear_3_3095" x1="73.462" y1="99.3896" x2="76.763" y2="85.7525" gradientUnits="userSpaceOnUse">
<stop stop-color="#AB316D"/>
<stop offset="1" stop-color="#792D3D"/>
</linearGradient>
<linearGradient id="paint65_linear_3_3095" x1="73.4618" y1="99.39" x2="76.7627" y2="85.7529" gradientUnits="userSpaceOnUse">
<stop stop-color="#AB316D"/>
<stop offset="1" stop-color="#792D3D"/>
</linearGradient>
<linearGradient id="paint66_linear_3_3095" x1="78.2202" y1="77.0109" x2="82.084" y2="93.9751" gradientUnits="userSpaceOnUse">
<stop stop-color="#AB316D"/>
<stop offset="1" stop-color="#792D3D"/>
</linearGradient>
<linearGradient id="paint67_linear_3_3095" x1="73.132" y1="66.6634" x2="100.755" y2="75.2212" gradientUnits="userSpaceOnUse">
<stop stop-color="#FF9085"/>
<stop offset="1" stop-color="#FB6FBB"/>
</linearGradient>
<linearGradient id="paint68_linear_3_3095" x1="82.3814" y1="65.5631" x2="80.2415" y2="57.7726" gradientUnits="userSpaceOnUse">
<stop stop-color="#FFC444"/>
<stop offset="1" stop-color="#F36F56"/>
</linearGradient>
<linearGradient id="paint69_linear_3_3095" x1="80.7284" y1="58.6351" x2="83.2497" y2="68.7755" gradientUnits="userSpaceOnUse">
<stop stop-color="#FFC444"/>
<stop offset="1" stop-color="#F36F56"/>
</linearGradient>
<linearGradient id="paint70_linear_3_3095" x1="72.9644" y1="77.0909" x2="84.8426" y2="76.3471" gradientUnits="userSpaceOnUse">
<stop stop-color="#40447E"/>
<stop offset="1" stop-color="#3C3B6B"/>
</linearGradient>
<linearGradient id="paint71_linear_3_3095" x1="64.913" y1="70.2985" x2="72.9161" y2="77.5831" gradientUnits="userSpaceOnUse">
<stop stop-color="#40447E"/>
<stop offset="1" stop-color="#3C3B6B"/>
</linearGradient>
<linearGradient id="paint72_linear_3_3095" x1="64.913" y1="70.2985" x2="72.9161" y2="77.5831" gradientUnits="userSpaceOnUse">
<stop stop-color="#40447E"/>
<stop offset="1" stop-color="#3C3B6B"/>
</linearGradient>
<linearGradient id="paint73_linear_3_3095" x1="89.569" y1="65.2631" x2="88.2805" y2="76.5213" gradientUnits="userSpaceOnUse">
<stop stop-color="#FF9085"/>
<stop offset="1" stop-color="#FB6FBB"/>
</linearGradient>
<linearGradient id="paint74_linear_3_3095" x1="80.2631" y1="74.396" x2="84.3167" y2="77.8988" gradientUnits="userSpaceOnUse">
<stop stop-color="#FFC444"/>
<stop offset="1" stop-color="#F36F56"/>
</linearGradient>
</defs>
</svg>
