<svg width="127" height="99" viewBox="0 0 127 99" fill="none" xmlns="http://www.w3.org/2000/svg">
<path d="M62.321 15.6197V44.0992C62.321 44.8597 62.105 45.5713 61.7302 46.1816C60.9932 47.3869 59.6337 48.1935 58.0804 48.1935H17.5806C15.2395 48.1935 13.34 46.3595 13.34 44.0992V15.6197C13.34 14.8928 13.537 14.2089 13.8832 13.6201C14.6074 12.3688 15.9924 11.5254 17.5806 11.5254H58.0804C60.4215 11.5254 62.321 13.3594 62.321 15.6197Z" fill="#E9EFFD"/>
<path d="M61.7302 46.1818C60.9932 47.3871 59.6337 48.1937 58.0804 48.1937H17.5806C15.2395 48.1937 13.34 46.3597 13.34 44.0994V15.6199C13.34 14.8931 13.537 14.2092 13.8832 13.6203L61.7302 46.1818Z" fill="#DAE3FE"/>
<path d="M38.6517 28.5356C41.812 27.2536 43.2975 23.7407 41.9697 20.6894C40.6419 17.638 37.0035 16.2038 33.8432 17.4858C30.6829 18.7678 29.1974 22.2807 30.5252 25.332C31.853 28.3834 35.4914 29.8177 38.6517 28.5356Z" fill="white"/>
<path d="M36.8612 31.1568H17.6754V32.0308H36.8612V31.1568Z" fill="#C3D3F9"/>
<path d="M36.8612 33.6596H17.6754V34.5336H36.8612V33.6596Z" fill="#C3D3F9"/>
<path d="M36.8612 36.162H17.6754V37.0361H36.8612V36.162Z" fill="#C3D3F9"/>
<path d="M27.1826 19.9432C31.6725 17.9457 33.635 12.812 31.5661 8.47695C29.4972 4.14188 24.1802 2.24697 19.6903 4.24455C15.2004 6.24212 13.2379 11.3758 15.3068 15.7108C17.3757 20.0459 22.6927 21.9408 27.1826 19.9432Z" stroke="url(#paint0_linear_3_4010)" stroke-linecap="round" stroke-linejoin="round"/>
<path d="M30.7559 12.2861C30.7559 15.9726 27.7923 18.9873 24.0409 19.2296C23.8789 19.2419 23.7105 19.248 23.5453 19.248C23.342 19.248 23.1419 19.2388 22.945 19.2204C19.2444 18.9291 16.3348 15.9358 16.3348 12.2861C16.3348 8.4402 19.5652 5.3242 23.5453 5.3242C27.5254 5.3242 30.7559 8.4402 30.7559 12.2861Z" fill="url(#paint1_linear_3_4010)"/>
<path d="M54.6492 26.5257L59.8777 28.8811L56.9045 43.2895C56.9045 43.2895 58.731 45.6663 58.9438 48.767L44.3353 47.9788L45.501 42.4031L43.4808 28.7308L48.6235 26.633C48.6235 26.633 50.8534 24.802 54.6429 26.5257H54.6492Z" fill="url(#paint2_linear_3_4010)"/>
<path d="M46.8927 21.3488C46.8927 21.3488 44.4563 26.1117 44.936 27.4642C45.1138 27.9642 46.251 28.5131 46.9657 27.7924C46.9657 27.7924 47.636 28.096 48.5667 27.6605C49.4974 27.225 49.707 24.0906 49.707 24.0906L46.8895 21.3488H46.8927Z" fill="#390634"/>
<path d="M53.7984 21.7199L53.0646 26.3755C53.0646 26.3755 51.6924 28.7554 49.2116 28.3046C49.2116 28.3046 49.1417 25.3726 49.2116 24.5814L53.7984 21.7199Z" fill="#DB7E6B"/>
<path d="M46.3648 18.6898C46.2123 21.3488 46.9747 24.4955 48.5216 24.7224C50.9897 25.0843 54.9094 22.0511 55.0619 19.3952C55.2144 16.7362 53.3053 14.3501 50.815 14.2152C48.3215 14.0802 46.5204 16.0338 46.3648 18.6898Z" fill="#FF967F"/>
<path d="M49.1865 26.3908L49.4693 27.7065L53.3858 25.1273L53.9957 25.8664L50.4222 29.1848L49.4025 28.4273L48.637 28.8812V27.4919L49.1865 26.3908Z" fill="white"/>
<path d="M49.1421 14.4634C48.5798 15.4725 48.4877 17.0857 50.5207 18.8491C51.9374 20.079 53.7098 20.4838 53.7098 20.4838C53.7098 20.4838 53.5859 22.1583 52.6616 22.1062C52.6616 22.1062 52.1756 24.8818 53.065 26.3754C53.9544 27.869 55.5426 27.1145 55.5426 27.1145C55.5426 27.1145 56.4193 27.9119 57.8011 27.3721C59.2654 26.8017 58.8525 25.6945 58.8525 25.6945C58.8525 25.6945 56.6226 19.6711 56.4606 17.5702C56.162 13.7458 50.7271 11.6081 49.1421 14.4634Z" fill="#390634"/>
<path d="M45.95 15.8376C44.8001 17.9323 46.3502 19.6529 46.3502 19.6529C46.3502 19.6529 46.8585 17.595 48.1195 16.1719C49.3806 14.7489 51.3913 13.6049 51.3913 13.6049C51.3913 13.6049 47.8019 12.4702 45.95 15.8376Z" fill="#390634"/>
<path d="M44.7922 45.8046C42.4448 51.6103 45.1162 67.6319 45.1162 67.6319H55.9702C55.9702 67.6319 61.2971 52.0151 58.2604 45.8046H44.7922Z" fill="#390634"/>
<path d="M43.484 28.7309L35.0505 33.96L35.9558 37.0392L44.3671 34.6961L43.484 28.7309Z" fill="url(#paint3_linear_3_4010)"/>
<path d="M35.3144 33.7974C34.3774 32.5185 28.8122 27.8384 27.6115 26.8355C27.6115 26.8355 27.1763 25.483 26.8587 24.9769C26.541 24.474 25.3149 23.5079 25.3149 23.5079C25.3149 23.5079 25.2006 23.8146 25.3149 24.1857C25.4293 24.5568 25.928 25.1701 25.928 25.1701L23.7489 24.8451C23.7489 24.8451 22.1829 24.3513 21.7287 24.7806L23.7076 25.3634L23.6981 25.483C23.3995 25.3879 21.7224 24.8849 21.3094 25.2744L23.6536 26.0412V26.0933C23.2439 25.9706 21.7033 25.529 21.3094 25.9001L23.606 26.6515L23.5901 26.8662C22.9929 26.7005 21.8526 26.4399 21.5191 26.7496L23.5901 27.4274L26.055 28.3413C26.8873 29.6448 31.5757 36.8919 33.1862 37.2784C34.9555 37.7016 35.9529 37.0391 35.9529 37.0391C35.9529 37.0391 36.3626 35.2327 35.3081 33.7974H35.3144Z" fill="#FF967F"/>
<path d="M59.8772 28.8812C59.8772 28.8812 57.2598 30.1417 57.3297 32.8835C57.3964 35.6253 64.2036 41.6702 64.2036 41.6702L66.9036 39.919C66.9036 39.919 63.1077 30.8133 59.8772 28.8812Z" fill="url(#paint4_linear_3_4010)"/>
<path d="M66.9048 39.919C66.9048 39.919 65.3801 40.011 64.3764 40.4557C63.4711 40.8575 59.1161 47.0128 58.2617 48.2304L55.9778 48.8867C55.6887 48.8683 55.2472 48.856 54.9677 48.9082C54.5262 48.991 54.0306 49.9509 54.0306 49.9509C54.0306 49.9509 54.2339 50.0092 54.4404 49.8773C54.6437 49.7454 54.8311 49.4756 54.8311 49.4756L55.9238 49.4234L55.9619 49.4848C55.6093 49.5676 55.0439 49.7148 54.8216 49.8344C54.4912 50.0153 54.1418 50.6962 54.1418 50.6962C54.1418 50.6962 54.5071 50.687 54.7104 50.549C54.9137 50.4079 55.0408 50.1625 55.0408 50.1625L56.1589 49.9908C55.819 50.0767 55.4029 50.1932 55.2186 50.2914C54.8883 50.4723 54.5389 51.1532 54.5389 51.1532C54.5389 51.1532 54.9042 51.144 55.1075 51.006C55.3108 50.8649 55.4378 50.6195 55.4378 50.6195L56.5655 50.4478C56.467 50.4876 56.3812 50.5214 56.3209 50.552C55.9905 50.733 55.6411 51.4139 55.6411 51.4139C55.6411 51.4139 56.0064 51.4047 56.2097 51.2666C56.413 51.1256 56.54 50.8802 56.54 50.8802L56.8069 50.8403L56.8132 50.8495C56.8132 50.8495 58.9923 50.7177 59.4338 49.9448C59.4338 49.9448 65.9011 44.7188 66.6825 43.1761C67.4639 41.6304 67.0795 40.3361 66.8985 39.9129L66.9048 39.919Z" fill="#FF967F"/>
<path d="M124.955 1.85431H112.516C111.496 1.85431 110.667 2.65171 110.667 3.63926V6.60497C110.667 7.58946 111.493 8.38992 112.516 8.38992H113.672L113.138 11.5857L116.795 8.38992H124.958C125.978 8.38992 126.807 7.59252 126.807 6.60497V3.63926C126.807 2.65478 125.981 1.85431 124.958 1.85431H124.955Z" fill="url(#paint5_linear_3_4010)"/>
<path d="M113.217 5.4395C113.536 5.4395 113.795 5.18959 113.795 4.88132C113.795 4.57304 113.536 4.32314 113.217 4.32314C112.898 4.32314 112.639 4.57304 112.639 4.88132C112.639 5.18959 112.898 5.4395 113.217 5.4395Z" fill="#335060"/>
<path d="M115.95 4.88132C115.95 5.19107 115.69 5.4395 115.372 5.4395C115.054 5.4395 114.794 5.18801 114.794 4.88132C114.794 4.57462 115.054 4.32314 115.372 4.32314C115.69 4.32314 115.95 4.57462 115.95 4.88132Z" fill="#335060"/>
<path d="M118.107 4.88132C118.107 5.19107 117.846 5.4395 117.529 5.4395C117.211 5.4395 116.951 5.18801 116.951 4.88132C116.951 4.57462 117.211 4.32314 117.529 4.32314C117.846 4.32314 118.107 4.57462 118.107 4.88132Z" fill="#335060"/>
<path d="M120.26 4.88132C120.26 5.19107 119.999 5.4395 119.682 5.4395C119.364 5.4395 119.104 5.18801 119.104 4.88132C119.104 4.57462 119.364 4.32314 119.682 4.32314C119.999 4.32314 120.26 4.57462 120.26 4.88132Z" fill="#335060"/>
<path d="M122.417 4.88132C122.417 5.19107 122.156 5.4395 121.838 5.4395C121.521 5.4395 121.26 5.18801 121.26 4.88132C121.26 4.57462 121.521 4.32314 121.838 4.32314C122.156 4.32314 122.417 4.57462 122.417 4.88132Z" fill="#335060"/>
<path d="M123.993 5.4395C124.312 5.4395 124.571 5.18959 124.571 4.88132C124.571 4.57304 124.312 4.32314 123.993 4.32314C123.674 4.32314 123.415 4.57304 123.415 4.88132C123.415 5.18959 123.674 5.4395 123.993 5.4395Z" fill="#335060"/>
<path d="M106.154 39.4375C106.154 45.3904 103.295 50.6962 98.8288 54.1495C95.4935 56.7257 91.2624 58.2684 86.6534 58.2684C75.882 58.2684 67.15 49.8374 67.15 39.4375C67.15 34.6776 68.9796 30.3318 71.9941 27.0164C75.5708 23.0877 80.8119 20.6096 86.6534 20.6096C97.4248 20.6096 106.154 29.0375 106.154 39.4375Z" fill="#E9EFFD"/>
<path d="M90.3219 27.869L102.65 32.6749L101.344 37.0851L91.1224 35.2633L90.3219 27.869Z" fill="url(#paint6_linear_3_4010)"/>
<path d="M98.9331 54.1863C95.5978 56.7625 91.3668 58.3051 86.7577 58.3051C75.9864 58.3051 67.2543 49.8742 67.2543 39.4742C67.2543 34.7144 69.0839 30.3685 72.0984 27.0532L98.9331 54.1863Z" fill="#DAE3FE"/>
<path d="M101.345 37.0851C101.345 37.0851 101.113 34.2696 102.097 31.0555C103.082 27.8414 108.377 16.3067 108.377 16.3067L110.988 16.782C110.988 16.782 107.653 34.3525 105.766 35.9626C103.883 37.5727 101.345 37.082 101.345 37.082V37.0851Z" fill="#FF967F"/>
<path d="M90.2936 9.70972C90.2936 9.70972 92.8919 9.32328 94.2514 10.869C95.611 12.4147 95.5856 14.9204 94.6993 15.7332L90.2936 9.71278V9.70972Z" fill="#390634"/>
<path d="M89.1028 22.5847L87.9592 27.55L82.7753 24.4463L84.7034 19.6926L89.1028 22.5847Z" fill="#DB7E6B"/>
<path d="M88.5298 26.4245L83.0059 23.4894C83.0059 23.4894 77.7965 25.6424 77.5138 29.1694C77.247 32.5185 78.6573 40.8636 78.3842 47.6231C77.733 48.9909 76.8563 51.285 76.7197 53.9317H77.9935L92.7513 51.7358L91.6236 45.5774C92.1096 40.5017 93.2182 36.5423 93.2182 34.515C93.2182 30.0343 88.5266 26.4214 88.5266 26.4214L88.5298 26.4245Z" fill="url(#paint7_linear_3_4010)"/>
<path d="M84.7104 22.6951L88.7 24.4157L89.1034 26.8846L84.5929 24.3053L84.7104 22.6951Z" fill="white"/>
<path d="M94.8514 17.4322C94.8514 21.0143 94.3146 23.3943 93.4125 23.6181C90.1407 24.4278 83.8958 20.5114 83.8958 16.9292C83.8958 13.347 86.1162 10.5193 89.4927 10.5193C92.8693 10.5193 94.8514 13.8469 94.8514 17.4291V17.4322Z" fill="#FF967F"/>
<path d="M93.4128 11.8352C93.4128 11.8352 92.8918 14.3071 90.6524 15.7333C88.413 17.1624 86.774 16.776 86.774 16.776C86.774 16.776 86.1736 18.3585 86.774 19.1314C87.3743 19.9043 87.6952 19.6896 87.6952 19.6896C87.6952 19.6896 86.2943 25.3849 84.5346 26.2344C82.7748 27.0839 81.8949 26.2344 81.8949 26.2344C81.8949 26.2344 80.0145 27.5869 78.1753 26.8509C76.3361 26.1179 76.5363 24.2654 77.9339 22.5265C79.3347 20.7906 81.2914 17.1226 81.2914 14.6506C81.2914 12.1787 83.3815 9.61474 86.1292 8.89708C89.528 8.00767 92.2057 9.16697 93.4064 11.8321L93.4128 11.8352Z" fill="#390634"/>
<path d="M85.6814 27.7862L95.3251 35.1315V41.5045L81.1009 34.8432C79.122 33.917 78.1754 31.7088 78.8964 29.703C79.8748 26.9827 83.3371 26.0043 85.6782 27.7893L85.6814 27.7862Z" fill="url(#paint8_linear_3_4010)"/>
<path d="M126.07 18.2297L94.3528 17.1256V15.2578L126.07 13.3287V18.2297Z" fill="#390634"/>
<path d="M98.3496 21.1709C98.3496 21.1709 94.0963 33.7207 94.0963 36.2202C94.0963 38.7198 95.3287 41.5046 95.3287 41.5046C95.3287 41.5046 99.509 39.9374 99.8965 34.1961C100.284 28.4517 101.348 20.6127 101.348 20.6127L98.3527 21.1739L98.3496 21.1709Z" fill="#FF967F"/>
<path d="M98.3714 21.6125L97.7202 16.3558L101.24 16.0277C101.24 16.0277 101.897 20.441 100.967 21.6125H98.3746H98.3714Z" fill="#FF967F"/>
<path d="M97.7202 16.3587C97.7202 16.3587 97.9775 14.5063 98.2253 14.172C98.4731 13.8377 99.1242 14.1168 99.3148 14.2579C99.3148 14.2579 99.2259 14.399 98.9908 14.4971C98.7558 14.5953 98.6319 14.5615 98.6319 14.5615L98.5969 16.3587C98.5969 16.3587 97.9458 16.6838 97.7202 16.3587Z" fill="#FF967F"/>
<path d="M98.8628 16.3587C98.8628 16.3587 98.9295 14.9541 99.0661 14.5707C99.2027 14.1874 99.7745 13.8653 100.289 13.8347C100.289 13.8347 100.245 14.2794 100.076 14.4297C99.9079 14.5799 99.6601 14.7302 99.6601 14.7302L99.5775 16.3557H98.866L98.8628 16.3587Z" fill="#FF967F"/>
<path d="M99.5274 16.3587C99.5274 16.3587 99.5941 14.9541 99.7307 14.5707C99.8673 14.1874 100.439 13.8653 100.954 13.8347C100.954 13.8347 100.909 14.2794 100.741 14.4297C100.572 14.5799 100.325 14.7302 100.325 14.7302L100.242 16.3557H99.5306L99.5274 16.3587Z" fill="#FF967F"/>
<path d="M100.435 16.3037C100.435 16.3037 100.499 14.9726 100.626 14.6107C100.756 14.2488 101.296 13.9421 101.785 13.9115C101.785 13.9115 101.741 14.2458 101.582 14.3899C101.423 14.5341 101.191 14.7641 101.191 14.7641L101.245 16.2515L100.435 16.3067V16.3037Z" fill="#FF967F"/>
<path d="M77.0076 51.7358H92.7565V73.6275L78.6594 69.708C78.6594 69.708 75.9213 63.5465 75.4353 60.0931C74.9525 56.6398 77.0045 51.7358 77.0045 51.7358H77.0076Z" fill="#390634"/>
<path d="M102.47 15.2609V16.7239C102.47 17.2084 102.86 17.6071 103.362 17.6347L110.465 18.0058C110.868 18.0273 111.205 17.7175 111.205 17.328V14.6322C111.205 14.2427 110.865 13.933 110.462 13.9544L103.356 14.3531C102.857 14.3807 102.467 14.7794 102.467 15.264L102.47 15.2609Z" fill="#4C0D49"/>
<path d="M126.069 18.2297C126.417 18.2297 126.698 17.1326 126.698 15.7792C126.698 14.4258 126.417 13.3287 126.069 13.3287C125.722 13.3287 125.44 14.4258 125.44 15.7792C125.44 17.1326 125.722 18.2297 126.069 18.2297Z" fill="#DC911B"/>
<path d="M109.845 13.9882C109.845 13.9882 110.264 13.5036 110.515 13.3717C110.763 13.2368 111.071 13.4453 111.252 13.7551C111.433 14.0649 111.595 14.4881 111.595 14.4881C111.595 14.4881 111.303 14.5096 111.106 14.4176C110.909 14.3255 110.75 14.0373 110.75 14.0373L109.845 13.9912V13.9882Z" fill="#FF967F"/>
<path d="M110.75 13.7918C110.75 13.7918 111.077 13.4821 111.341 13.4452C111.605 13.4084 111.999 13.8746 112.151 14.0954C112.303 14.3132 112.437 14.6107 112.437 14.6107C112.437 14.6107 112.129 14.6782 111.875 14.5493C111.621 14.4205 111.56 14.2242 111.56 14.2242L111.033 14.2733L110.747 13.7949L110.75 13.7918Z" fill="#FF967F"/>
<path d="M111.872 13.89C111.872 13.89 112.097 13.6355 112.399 13.6293C112.698 13.6232 113.174 14.3286 113.276 14.4973C113.276 14.4973 113.107 14.6046 112.853 14.4973C112.599 14.3899 112.482 14.1752 112.482 14.1752L112.154 14.1875L111.878 13.89H111.872Z" fill="#FF967F"/>
<path d="M112.761 13.8655C112.761 13.8655 112.929 13.7674 113.155 13.752C113.38 13.7367 113.79 14.3869 113.79 14.3869C113.79 14.3869 113.615 14.4635 113.475 14.3869C113.336 14.3102 113.126 14.1047 113.126 14.1047H112.891L112.761 13.8655Z" fill="#FF967F"/>
<path d="M100.648 87.0663C100.648 90.995 99.9935 94.7796 98.7865 98.3372H22.4372C22.4244 98.3035 22.4149 98.2697 22.4022 98.236C21.2142 94.709 20.5726 90.9582 20.5726 87.0663C20.5726 75.9609 25.7851 65.9934 34.0535 59.1634C41.1211 53.324 50.4217 49.7786 60.6118 49.7786C82.7231 49.7786 100.648 66.4719 100.648 87.0663Z" fill="#E9EFFD"/>
<path d="M98.3767 97.2116L22.4022 98.2359C21.2142 94.7089 20.5726 90.9581 20.5726 87.0662C20.5726 75.9608 25.7851 65.9933 34.0535 59.1633L98.3767 97.2116Z" fill="#DAE3FE"/>
<path d="M66.5521 60.8961H73.4037C75.0873 60.8961 76.5357 62.0462 76.8565 63.641C78.124 69.9159 81.1511 85.0144 81.545 88.1488C82.0437 92.1266 78.6735 95.261 78.6735 95.261H63.3153L66.5521 60.8961Z" fill="url(#paint9_linear_3_4010)"/>
<path d="M46.3681 68.2414L38.4174 86.6398L42.531 89.4951C42.531 89.4951 50.7516 82.1008 51.641 77.5495C52.5304 72.9982 46.3681 68.2414 46.3681 68.2414Z" fill="url(#paint10_linear_3_4010)"/>
<path d="M62.7302 64.0765L70.6872 67.1526L67.5171 88.7499C67.5171 88.7499 70.4299 92.1266 71.0144 96.7055H49.2874L50.5357 88.3482L46.3651 68.2414L53.8107 64.7206C53.8107 64.7206 56.9617 61.8285 62.727 64.0765H62.7302Z" fill="url(#paint11_linear_3_4010)"/>
<path d="M50.7857 57.0226C50.7857 57.0226 47.5806 64.2789 48.4129 66.2448C48.7178 66.9686 50.4553 67.6924 51.4527 66.5699C51.4527 66.5699 52.4724 66.9686 53.8128 66.2448C55.1565 65.5241 55.1978 60.8624 55.1978 60.8624L50.7857 57.0226Z" fill="#390634"/>
<path d="M61.0559 57.0226L60.3698 63.9845C60.3698 63.9845 58.5401 67.6219 54.8237 67.1526C54.8237 67.1526 54.4679 62.8099 54.4997 61.6352L61.0559 57.0226Z" fill="#DB7E6B"/>
<path d="M54.6212 64.3832L55.4566 66.4411C55.4566 66.4411 60.6787 62.2241 61.5173 62.1076L62.0604 63.0215L57.9088 68.9131L55.4534 67.1895L53.4364 68.2353L53.8461 66.0179L54.618 64.374L54.6212 64.3832Z" fill="white"/>
<path d="M49.776 53.1246C49.776 57.0778 51.18 61.6844 53.4892 61.896C57.1803 62.2333 62.7296 57.4244 62.7296 53.4711C62.7296 49.5179 59.6929 46.132 55.9859 46.132C52.279 46.132 49.7728 49.1713 49.7728 53.1246H49.776Z" fill="#FF967F"/>
<path d="M53.5312 46.638C52.7879 48.1807 52.7879 50.576 55.9485 53.0264C58.153 54.7347 60.818 55.1978 60.818 55.1978C60.818 55.1978 60.7767 57.6882 59.4045 57.6882C59.4045 57.6882 58.9249 61.8438 60.3702 63.9846C61.8186 66.1253 64.1057 64.8801 64.1057 64.8801C64.1057 64.8801 65.4715 65.9934 67.4759 65.0825C69.5978 64.1195 68.8926 62.5094 68.8926 62.5094C68.8926 62.5094 65.0713 53.7594 64.6457 50.6557C63.877 45.0064 55.6341 42.2769 53.5281 46.638H53.5312Z" fill="#390634"/>
<path d="M48.915 48.9289C47.3871 52.1277 49.8362 54.5536 49.8362 54.5536C49.8362 54.5536 50.4111 51.4591 52.1613 49.2509C53.9084 47.0397 56.7926 45.1811 56.7926 45.1811C56.7926 45.1811 51.3704 43.7857 48.915 48.9289Z" fill="#390634"/>
<path d="M70.688 67.1527C70.688 67.1527 69.1379 67.6771 68.0324 69.5142C66.927 71.3482 66.5522 87.0264 66.5522 87.0264C66.5522 87.0264 68.0007 88.0016 71.0628 86.5479C74.1249 85.0942 73.6135 72.4309 73.2101 70.1337C72.8067 67.8366 70.6848 67.1557 70.6848 67.1557L70.688 67.1527Z" fill="url(#paint12_linear_3_4010)"/>
<path d="M61.472 54.5537L55.4557 59.973L58.4416 63.3558L64.0036 57.6022L61.472 54.5537Z" fill="#CB4F24"/>
<path d="M60.5643 65.0916C60.5643 65.0916 62.0667 82.7233 63.8138 85.4958C65.5608 88.2683 68.6198 87.1826 68.6198 87.1826C68.6198 87.1826 70.3192 84.864 69.992 82.7233C69.668 80.5795 64.0616 64.0243 64.0616 64.0243L60.5611 65.0946L60.5643 65.0916Z" fill="#FF967F"/>
<path d="M64.0641 64.0244L62.4314 58.6143C62.4314 58.6143 60.9449 56.6423 60.8019 56.4951C60.659 56.3478 59.4646 56.2896 59.039 56.4613C59.039 56.4613 59.1089 56.6331 59.3598 56.7588C59.6076 56.8846 60.2715 57.136 60.2715 57.136L61.3451 58.9854L61.1863 59.1173C60.8146 58.6818 59.8744 57.5746 59.7188 57.4121C59.525 57.2066 58.1401 56.7097 58.1401 56.7097C58.1401 56.7097 58.1051 57.0655 58.3719 57.3783C58.6388 57.6912 59.0453 58.004 59.0453 58.004L60.1349 59.9791L59.9919 60.0956C59.7092 59.608 59.1216 58.6051 59.0263 58.4824C58.9024 58.3199 57.7493 57.7709 57.7493 57.7709C57.7493 57.7709 57.4635 58.2064 58.5022 58.9946L59.2296 60.7182L59.0993 60.8256C58.8929 60.4637 58.4958 59.7429 58.3211 59.562C58.0892 59.3289 57.0696 58.5284 57.0696 58.5284C57.0696 58.5284 56.9997 59.5466 57.9558 60.1754L59.1533 62.4112L60.6399 65.4474L64.0673 64.0305L64.0641 64.0244Z" fill="#FF967F"/>
<path d="M38.4174 86.6399L25.575 94.4697C24.2822 94.0802 22.478 93.5405 22.3065 93.5098C22.0365 93.4607 21.2455 94.4145 21.2455 94.4145L20.48 94.4851L19.9622 94.8654L19.0506 95.1046L18.6567 95.7946L18.1135 96.1749L17.7419 97.3189C17.7419 97.3189 18.1612 97.4539 18.5074 97.0644L18.5328 97.4385H23.5897C23.5897 97.4385 23.8375 97.6992 25.4162 97.6777C26.9949 97.6532 28.3767 97.0674 28.3767 97.0674C28.3767 97.0674 40.1931 93.7214 42.5341 89.4921C42.5341 89.4921 42.0164 87.2839 38.4206 86.6368L38.4174 86.6399Z" fill="#FF967F"/>
<path d="M21.5694 81.3556L26.5692 97.2116H52.4001L51.7076 95.583H43.6585L39.2178 81.3556H21.5694Z" fill="url(#paint13_linear_3_4010)"/>
<path d="M113.966 96.8681H0.760681V98.3371H113.966V96.8681Z" fill="#27AAE1"/>
<path d="M90.1941 69.6645H81.3921V83.1375H90.1941V69.6645Z" fill="#C5C5C5"/>
<path d="M88.6721 70.4282H79.8701V83.9012H88.6721V70.4282Z" fill="#D9D9D9"/>
<path d="M87.4236 71.0323H78.6217V84.5053H87.4236V71.0323Z" fill="#ECECEC"/>
<path d="M86.2989 71.6796H77.4969V85.1526H86.2989V71.6796Z" fill="#F6F6F6"/>
<path d="M92.5219 73.44H87.5571V96.8682H92.5219V73.44Z" fill="#9C897A"/>
<path d="M91.5408 74.6852H88.5041V78.7427H91.5408V74.6852Z" fill="#C5BA9F"/>
<path d="M91.5408 79.3285H88.5041V79.629H91.5408V79.3285Z" fill="#C5BA9F"/>
<path d="M79.1799 81.3557H76.4958V96.8682H87.5562V73.44L79.1799 81.3557Z" fill="#917D70"/>
<path d="M99.7296 88.9125H94.7362V96.8681H99.7296V88.9125Z" fill="#9C897A"/>
<path d="M21.5694 81.3556L43.4139 96.8681H26.4612L21.5694 81.3556Z" fill="url(#paint14_linear_3_4010)"/>
<path d="M20.7408 14.8706C20.5752 14.8708 20.4104 14.8498 20.2505 14.8081C19.7707 14.676 19.3636 14.3676 19.1167 13.949C18.8697 13.5305 18.8024 13.0351 18.9294 12.5692L19.7227 9.66296C19.7845 9.42775 19.8944 9.20684 20.0458 9.01319C20.1973 8.81954 20.3872 8.65707 20.6046 8.5353C20.8163 8.41693 21.0502 8.34029 21.2928 8.30981C21.5353 8.27934 21.7817 8.29564 22.0177 8.35777C22.2686 8.42503 22.5022 8.54188 22.7039 8.70091C22.9055 8.85994 23.0707 9.05768 23.1891 9.2816H24.0744C24.1922 9.05732 24.3572 8.85929 24.559 8.7002C24.7607 8.54111 24.9946 8.42447 25.2457 8.35777C25.4817 8.29564 25.7281 8.27934 25.9707 8.30981C26.2132 8.34029 26.4471 8.41693 26.6588 8.5353C26.8751 8.65675 27.0644 8.81834 27.2158 9.01075C27.3672 9.20316 27.4776 9.42258 27.5407 9.65639L28.3341 12.5692C28.4629 13.0365 28.3962 13.5339 28.1484 13.954C27.9005 14.3742 27.4915 14.6833 27.0095 14.8147C26.7735 14.8768 26.5271 14.8931 26.2846 14.8626C26.042 14.8322 25.8081 14.7555 25.5964 14.6371C25.3797 14.5161 25.1902 14.3547 25.0388 14.1622C24.8873 13.9697 24.7771 13.7501 24.7145 13.5161L24.6532 13.2268H22.6102L22.5319 13.5095C22.4693 13.7435 22.3591 13.9631 22.2077 14.1556C22.0562 14.3481 21.8667 14.5095 21.65 14.6306C21.3733 14.7846 21.0602 14.8673 20.7408 14.8706ZM21.5308 8.95283C21.3253 8.95351 21.1235 9.00561 20.9451 9.10406C20.6655 9.26246 20.4623 9.52134 20.3799 9.82405L19.5865 12.7303C19.5035 13.0297 19.5455 13.3487 19.7034 13.6185C19.8613 13.8884 20.1225 14.0877 20.431 14.1736C20.58 14.2128 20.7355 14.2231 20.8886 14.204C21.0418 14.1848 21.1894 14.1365 21.3231 14.0618C21.4623 13.9842 21.584 13.8806 21.681 13.7569C21.7781 13.6333 21.8486 13.4921 21.8883 13.3418L22.0995 12.5692H25.164L25.3717 13.3418C25.4122 13.4919 25.4829 13.6327 25.5799 13.7563C25.6769 13.8798 25.7982 13.9837 25.9369 14.0618C26.0713 14.1364 26.2195 14.1846 26.3732 14.2038C26.5268 14.223 26.6829 14.2127 26.8325 14.1736C27.1413 14.0885 27.4029 13.8892 27.5604 13.6189C27.7178 13.3487 27.7585 13.0293 27.6735 12.7303L26.8801 9.82405C26.8406 9.67407 26.7706 9.53318 26.6741 9.40957C26.5777 9.28596 26.4567 9.18211 26.3183 9.10406C26.184 9.02949 26.0357 8.98123 25.8821 8.96205C25.7284 8.94287 25.5723 8.95314 25.4228 8.99228C25.2378 9.04319 25.0681 9.13596 24.9278 9.2629C24.7874 9.38983 24.6805 9.54727 24.6158 9.72214L24.5341 9.93912H22.7294L22.6477 9.72214C22.5824 9.54704 22.4748 9.38949 22.3339 9.26256C22.193 9.13563 22.0227 9.04297 21.8373 8.99228C21.7373 8.96627 21.6343 8.953 21.5308 8.95283Z" fill="white"/>
<path d="M21.5902 11.5829C21.4555 11.5829 21.3238 11.5444 21.2118 11.4721C21.0998 11.3999 21.0125 11.2972 20.961 11.177C20.9094 11.0569 20.896 10.9247 20.9222 10.7971C20.9485 10.6696 21.0134 10.5524 21.1086 10.4605C21.2039 10.3685 21.3252 10.3059 21.4573 10.2805C21.5894 10.2551 21.7263 10.2682 21.8508 10.3179C21.9752 10.3677 22.0816 10.452 22.1564 10.5601C22.2312 10.6682 22.2712 10.7953 22.2712 10.9254C22.2712 11.0998 22.1994 11.267 22.0717 11.3903C21.944 11.5136 21.7708 11.5829 21.5902 11.5829Z" fill="white"/>
<path d="M25.6757 10.5966C25.8638 10.5966 26.0162 10.4494 26.0162 10.2678C26.0162 10.0863 25.8638 9.93909 25.6757 9.93909C25.4877 9.93909 25.3352 10.0863 25.3352 10.2678C25.3352 10.4494 25.4877 10.5966 25.6757 10.5966Z" fill="#FFFDFD"/>
<path d="M25.6757 11.9117C25.8638 11.9117 26.0162 11.7645 26.0162 11.583C26.0162 11.4014 25.8638 11.2542 25.6757 11.2542C25.4877 11.2542 25.3352 11.4014 25.3352 11.583C25.3352 11.7645 25.4877 11.9117 25.6757 11.9117Z" fill="#FFFDFD"/>
<path d="M24.995 11.2543C25.183 11.2543 25.3355 11.1071 25.3355 10.9255C25.3355 10.7439 25.183 10.5967 24.995 10.5967C24.8069 10.5967 24.6544 10.7439 24.6544 10.9255C24.6544 11.1071 24.8069 11.2543 24.995 11.2543Z" fill="#FFFDFD"/>
<path d="M26.3571 11.2543C26.5451 11.2543 26.6976 11.1071 26.6976 10.9255C26.6976 10.7439 26.5451 10.5967 26.3571 10.5967C26.169 10.5967 26.0166 10.7439 26.0166 10.9255C26.0166 11.1071 26.169 11.2543 26.3571 11.2543Z" fill="#FFFDFD"/>
<defs>
<linearGradient id="paint0_linear_3_4010" x1="25.5216" y1="3.40052" x2="19.5455" y2="20.8482" gradientUnits="userSpaceOnUse">
<stop stop-color="#B4FFE4"/>
<stop offset="0.376888" stop-color="#00E5FF"/>
<stop offset="1" stop-color="#8B49FF"/>
</linearGradient>
<linearGradient id="paint1_linear_3_4010" x1="28.1062" y1="6.60474" x2="17.7904" y2="17.5639" gradientUnits="userSpaceOnUse">
<stop stop-color="#B4FFE4"/>
<stop offset="0.376888" stop-color="#00E5FF"/>
<stop offset="1" stop-color="#8B49FF"/>
</linearGradient>
<linearGradient id="paint2_linear_3_4010" x1="52.5716" y1="15.961" x2="34.2152" y2="29.6099" gradientUnits="userSpaceOnUse">
<stop stop-color="#F5321F"/>
<stop offset="1" stop-color="#ED168B"/>
</linearGradient>
<linearGradient id="paint3_linear_3_4010" x1="40.2159" y1="25.1786" x2="33.3691" y2="33.1796" gradientUnits="userSpaceOnUse">
<stop stop-color="#F5321F"/>
<stop offset="1" stop-color="#ED168B"/>
</linearGradient>
<linearGradient id="paint4_linear_3_4010" x1="62.6371" y1="23.4131" x2="52.2899" y2="31.4862" gradientUnits="userSpaceOnUse">
<stop stop-color="#FF9085"/>
<stop offset="1" stop-color="#FB6FBB"/>
</linearGradient>
<linearGradient id="paint5_linear_3_4010" x1="123.841" y1="2.74927" x2="117.53" y2="13.4853" gradientUnits="userSpaceOnUse">
<stop stop-color="#B4FFE4"/>
<stop offset="0.376888" stop-color="#00E5FF"/>
<stop offset="1" stop-color="#8B49FF"/>
</linearGradient>
<linearGradient id="paint6_linear_3_4010" x1="97.1568" y1="23.9286" x2="89.8749" y2="34.0792" gradientUnits="userSpaceOnUse">
<stop stop-color="#F5321F"/>
<stop offset="1" stop-color="#ED168B"/>
</linearGradient>
<linearGradient id="paint7_linear_3_4010" x1="85.8669" y1="10.4736" x2="64.1213" y2="22.755" gradientUnits="userSpaceOnUse">
<stop stop-color="#FF9085"/>
<stop offset="1" stop-color="#FB6FBB"/>
</linearGradient>
<linearGradient id="paint8_linear_3_4010" x1="87.8977" y1="20.6366" x2="75.884" y2="34.9129" gradientUnits="userSpaceOnUse">
<stop stop-color="#F5321F"/>
<stop offset="1" stop-color="#ED168B"/>
</linearGradient>
<linearGradient id="paint9_linear_3_4010" x1="81.7338" y1="55.8769" x2="54.0853" y2="71.6382" gradientUnits="userSpaceOnUse">
<stop stop-color="#D3FBFF"/>
<stop offset="0.170071" stop-color="#00E5FF"/>
<stop offset="0.808611" stop-color="#7526FF"/>
<stop offset="0.95722" stop-color="#3A019C"/>
</linearGradient>
<linearGradient id="paint10_linear_3_4010" x1="45.7976" y1="59.1541" x2="29.5694" y2="69.7459" gradientUnits="userSpaceOnUse">
<stop stop-color="#F5321F"/>
<stop offset="1" stop-color="#ED168B"/>
</linearGradient>
<linearGradient id="paint11_linear_3_4010" x1="60.0313" y1="48.9041" x2="33.0548" y2="69.5985" gradientUnits="userSpaceOnUse">
<stop stop-color="#F5321F"/>
<stop offset="1" stop-color="#ED168B"/>
</linearGradient>
<linearGradient id="paint12_linear_3_4010" x1="70.4131" y1="58.5186" x2="59.6915" y2="62.3716" gradientUnits="userSpaceOnUse">
<stop stop-color="#FF9085"/>
<stop offset="1" stop-color="#FB6FBB"/>
</linearGradient>
<linearGradient id="paint13_linear_3_4010" x1="52.6336" y1="79.0397" x2="41.0679" y2="103.14" gradientUnits="userSpaceOnUse">
<stop stop-color="#D3FBFF"/>
<stop offset="0.170071" stop-color="#00E5FF"/>
<stop offset="0.808611" stop-color="#7526FF"/>
<stop offset="0.95722" stop-color="#3A019C"/>
</linearGradient>
<linearGradient id="paint14_linear_3_4010" x1="43.5793" y1="79.0899" x2="30.2223" y2="99.2471" gradientUnits="userSpaceOnUse">
<stop stop-color="#D3FBFF"/>
<stop offset="0.170071" stop-color="#00E5FF"/>
<stop offset="0.808611" stop-color="#7526FF"/>
<stop offset="0.95722" stop-color="#3A019C"/>
</linearGradient>
</defs>
</svg>
